<svg width="20px" height="18px" viewBox="0 0 20 18" version="1.1" xmlns="http://www.w3.org/2000/svg">
  <g  transform="translate(1.000000, 0.000000)" fill-rule="evenodd" >
    <rect  fill="#0072AD" x="0" y="0" width="18" height="18"></rect>
    <path d="M0,9.02465354 L0.877067384,9.02465354 L1.07434399,8.54126377 L1.51719946,8.54126377 L1.71345918,9.02465354 L3.43861259,9.02465354 L3.43861259,8.65581841 L3.59317983,9.02568093 L4.48702589,9.02568093 L4.64057624,8.65119513 L4.64057624,9.02465354 L8.92676641,9.02465354 L8.92473263,8.23407239 L9.00760914,8.23407239 C9.0660803,8.23509979 9.08285898,8.24177786 9.08285898,8.33835307 L9.08285898,9.02465354 L11.2986617,9.02465354 L11.2986617,8.83972228 C11.4776343,8.93732489 11.7562621,9.02465354 12.120817,9.02465354 L13.0543218,9.02465354 L13.2541406,8.54126377 L13.6969961,8.54126377 L13.8927474,9.02465354 L15.689083,9.02465354 L15.689083,8.56643497 L15.961101,9.02465354 L17.4,9.02465354 L17.4,6 L15.9748291,6 L15.9748291,6.35753377 L15.7765356,6 L14.3137397,6 L14.3137397,6.35753377 L14.1306995,6 L12.1558997,6 C11.8249021,6 11.5330548,6.04623282 11.2986617,6.1767121 L11.2986617,6 L9.93704634,6 L9.93704634,6.1767121 C9.78603822,6.04212323 9.58266028,6 9.3574192,6 L4.37771024,6 L4.04213664,6.78133458 L3.70097014,6 L2.13241774,6 L2.13241774,6.35753377 L1.9585296,6 L0.621319619,6 L0,7.43681317 L0,9.02465354 L0,9.02465354 Z M16.9289809,8.57743191 L16.2021802,8.57743191 L15.230402,6.95953307 L15.2314185,8.57743191 L14.1869602,8.57743191 L13.9872171,8.09640732 L12.9203957,8.09640732 L12.7287846,8.57743191 L12.1280305,8.57743191 C11.8779704,8.57743191 11.5623458,8.5217128 11.3849657,8.34024231 C11.2030115,8.15519354 11.1105096,7.90880263 11.1105096,7.51519059 C11.1105096,7.19467793 11.1674338,6.9027916 11.3869988,6.67275859 C11.5531972,6.49997824 11.8124059,6.42023346 12.1656411,6.42023346 L12.6611871,6.42023346 L12.6611871,6.88234422 L12.1768227,6.88234422 C11.9897859,6.88234422 11.8825447,6.91097055 11.780386,7.01065152 C11.6944913,7.10215354 11.6340093,7.27340034 11.6340093,7.49985505 C11.6340093,7.73142162 11.6782273,7.89704538 11.7758117,8.00643886 C11.853066,8.0907843 11.9969014,8.11736589 12.1320965,8.11736589 L12.362843,8.11736589 L13.0850694,6.42023346 L13.8535467,6.42023346 L14.7211333,8.46088185 L14.7211333,6.42023346 L15.5033334,6.42023346 L16.4044646,7.92260461 L16.4044646,6.42023346 L16.9289809,6.42023346 L16.9289809,8.57743191 L16.9289809,8.57743191 Z M10.3624204,6.42023346 L10.8888535,6.42023346 L10.8888535,8.57743191 L10.3624204,8.57743191 L10.3624204,6.42023346 Z M10.0299363,7.00298375 C10.0299363,7.34445498 9.80279764,7.52388072 9.67076381,7.57704391 C9.78256257,7.62049459 9.87716153,7.69512752 9.92167868,7.75953676 C9.99401906,7.86484076 10.0076777,7.96298818 10.0076777,8.1531488 L10.0076777,8.57743191 L9.4926952,8.57743191 L9.49067169,8.30599296 C9.49067169,8.17768565 9.50382448,7.99008096 9.40871966,7.88733288 C9.33435577,7.81065521 9.22205113,7.79429731 9.037912,7.79429731 L8.48903572,7.79429731 L8.48903572,8.57743191 L7.97961783,8.57743191 L7.97961783,6.42023346 L9.15375777,6.42023346 C9.41327255,6.42023346 9.60651747,6.42841241 9.77143329,6.52451509 C9.93331385,6.62010659 10.0299363,6.7611935 10.0299363,7.00298375 L10.0299363,7.00298375 Z M7.64713376,8.57743191 L5.92929936,8.57743191 L5.92929936,6.42023346 L7.64713376,6.42023346 L7.64713376,6.87109816 L6.44464968,6.87109816 L6.44464968,7.25857599 L7.61756866,7.25857599 L7.61756866,7.70177292 L6.44464968,7.70023936 L6.44464968,8.13116787 L7.64713376,8.13116787 L7.64713376,8.57743191 L7.64713376,8.57743191 Z M5.54140127,8.57743191 L5.0153221,8.57743191 L5.01226646,6.89001199 L4.2677091,8.57743191 L3.81700235,8.57743191 L3.0683708,6.8864337 L3.0683708,8.57743191 L2.02385155,8.57743191 L1.8272721,8.09640732 L0.756779918,8.09640732 L0.558672659,8.57743191 L0,8.57743191 L0.918728784,6.42023346 L1.6831478,6.42023346 L2.556042,8.46394896 L2.556042,6.42023346 L3.39634272,6.42023346 L4.06756474,7.88477696 L4.68582236,6.42023346 L5.54140127,6.42023346 L5.54140127,8.57743191 L5.54140127,8.57743191 Z M13.8257962,7.68093385 L13.4637925,6.81245136 L13.105414,7.68093385 L13.8257962,7.68093385 L13.8257962,7.68093385 Z M9.37150093,7.32564047 C9.30230505,7.3654786 9.22007226,7.36900856 9.12129262,7.36900856 L8.50605096,7.36900856 L8.50605096,6.89649805 L9.12881392,6.89649805 C9.21806658,6.89649805 9.31032776,6.89952374 9.37049809,6.93331051 C9.4351812,6.96508016 9.47579618,7.03114086 9.47579618,7.121407 C9.47579618,7.21469883 9.43618404,7.28882802 9.37150093,7.32564047 L9.37150093,7.32564047 Z M1.63471338,7.68093385 L1.28737046,6.81245136 L0.942038217,7.68093385 L1.63471338,7.68093385 L1.63471338,7.68093385 Z"  fill="#FFFFFF"></path>
    <path d="M9.81818182,10.7314652 C9.81818182,11.3292677 9.38145069,11.4539376 8.93921665,11.4539376 L8.30938332,11.4539376 L8.30938332,12.1774319 L7.32986494,12.1774319 L6.70803585,11.4641564 L6.06219405,12.1774319 L4.06363636,12.1774319 L4.06363636,10.0202335 L6.09371073,10.0202335 L6.71403903,10.7263557 L7.3558787,10.0202335 L8.968232,10.0202335 C9.36894407,10.0202335 9.81818182,10.1336627 9.81818182,10.7314652 L9.81818182,10.7314652 Z M5.80224269,11.7291829 L4.55454545,11.7291829 L4.55454545,11.2994103 L5.6689202,11.2994103 L5.6689202,10.8594171 L4.55454545,10.8594171 L4.55454545,10.4684825 L5.82639167,10.4684825 L6.38181818,11.0965331 L5.80224269,11.7291829 L5.80224269,11.7291829 Z M7.8,12.0093385 L7.03636364,11.126223 L7.8,10.2723735 L7.8,12.0093385 L7.8,12.0093385 Z M8.98169597,11.0287938 L8.31818182,11.0287938 L8.31818182,10.4684825 L8.98677259,10.4684825 C9.17206919,10.4684825 9.3,10.5453162 9.3,10.7387072 C9.3,10.9294849 9.17816114,11.0287938 8.98169597,11.0287938 L8.98169597,11.0287938 Z M12.3818182,10.0202335 L14.0727273,10.0202335 L14.0727273,10.467308 L12.886732,10.467308 L12.886732,10.8581789 L14.043115,10.8581789 L14.043115,11.2981002 L12.886732,11.2981002 L12.886732,11.7278027 L14.0727273,11.7298464 L14.0727273,12.1774319 L12.3818182,12.1774319 L12.3818182,10.0202335 L12.3818182,10.0202335 Z M11.7486917,11.1744521 C11.862104,11.2163494 11.9543461,11.2924798 11.9976948,11.3563476 C12.0697746,11.4621127 12.0813679,11.5602136 12.082376,11.7507951 L12.082376,12.1774319 L11.5727766,12.1774319 L11.5727766,11.9071434 C11.5727766,11.7773641 11.5843698,11.5862717 11.4901116,11.486127 C11.4160155,11.4069309 11.3031072,11.3890479 11.117615,11.3890479 L10.5732358,11.3890479 L10.5732358,12.1774319 L10.0636364,12.1774319 L10.0636364,10.0202335 L11.236572,10.0202335 C11.4946481,10.0202335 11.6826605,10.0309633 11.8489986,10.1234438 C12.008784,10.219501 12.1090909,10.3564335 12.1090909,10.6021968 C12.1090909,10.945039 11.8832743,11.1208032 11.7486917,11.1744521 L11.7486917,11.1744521 Z M11.40583,10.9026677 C11.3401186,10.9420016 11.2571146,10.9460358 11.1607708,10.9460358 L10.5545455,10.9460358 L10.5545455,10.4684825 L11.1686759,10.4684825 C11.2571146,10.4684825 11.3470356,10.4699953 11.40583,10.5057992 C11.4705534,10.5410988 11.5090909,10.6066553 11.5090909,10.6974257 C11.5090909,10.7881961 11.4705534,10.8623253 11.40583,10.9026677 L11.40583,10.9026677 Z M15.9672375,11.0390524 C16.0668707,11.1443066 16.1181818,11.2756187 16.1181818,11.4958349 C16.1181818,11.9607924 15.8352236,12.1774319 15.3290869,12.1774319 L14.3491945,12.1774319 L14.3491945,11.7145182 L15.3251016,11.7145182 C15.4217458,11.7145182 15.4880019,11.7017446 15.5308442,11.6608692 C15.5647194,11.6291908 15.5901259,11.5811622 15.5901259,11.520871 C15.5901259,11.4580251 15.5637231,11.4069309 15.5278552,11.3783181 C15.4894964,11.344085 15.437189,11.3302896 15.3495117,11.3292677 C14.8797413,11.3134285 14.2909091,11.344085 14.2909091,10.6614661 C14.2909091,10.3492803 14.482703,10.0202335 15.0092644,10.0202335 L16.0170541,10.0202335 L16.0170541,10.4790597 L15.0954471,10.4790597 C15.0032864,10.4790597 14.9440047,10.4831472 14.8931917,10.5178913 C14.8388916,10.5531463 14.8184668,10.6057734 14.8184668,10.6742396 C14.8184668,10.7544576 14.8652944,10.8101503 14.9280633,10.8341646 C14.9808689,10.8530694 15.0371617,10.8581789 15.1228462,10.8592007 L15.3943467,10.8663539 C15.6678398,10.8740181 15.8536557,10.9220466 15.9672375,11.0390524 L15.9672375,11.0390524 Z M18,11.920339 C17.8758232,12.1056581 17.6369832,12.1980609 17.3135227,12.1980609 L16.3376334,12.1980609 L16.3376334,11.7329665 L17.309517,11.7329665 C17.4051532,11.7329665 17.4727494,11.7201327 17.5138079,11.6790648 C17.5478563,11.6472371 17.5743941,11.5989823 17.5743941,11.5384071 C17.5743941,11.4752651 17.5478563,11.4239302 17.5128064,11.3951826 C17.4747523,11.3607882 17.4221774,11.3469278 17.3350534,11.3459011 C16.8603776,11.3299872 16.2690358,11.3607882 16.2690358,10.6749535 C16.2690358,10.3612971 16.4633124,10.0307001 16.9925658,10.0307001 L18,10.0307001 L18,9.6 L17.0641677,9.6 C16.781265,9.6 16.5769742,9.66878881 16.4312667,9.77710552 L16.4312667,9.6 L15.0482979,9.6 C14.828485,9.6 14.5691158,9.65698178 14.444939,9.77710552 L14.4459404,9.6 L11.9754233,9.6 L11.9754233,9.77710552 C11.7791439,9.63285436 11.4486735,9.6 11.2939532,9.6 L9.66663653,9.6 L9.66663653,9.77710552 C9.51041413,9.62258737 9.16592371,9.6 8.9546229,9.6 L7.13152752,9.6 L6.71443374,10.0640678 L6.32387774,9.6 L3.6,9.6 L3.6,12.6241409 L6.27280503,12.6241409 L6.70241663,12.1544263 L7.10799402,12.6241409 L8.75333635,12.6256809 L8.75333635,11.9131521 L8.91656873,11.9131521 C9.13387809,11.9162322 9.39274662,11.9085319 9.61956953,11.8079155 L9.61956953,12.6241409 L10.9780034,12.6241409 L10.9780034,11.835123 L11.0435968,11.835123 C11.1277165,11.835123 11.1357279,11.8402565 11.1357279,11.9244458 L11.1357279,12.6241409 L15.262603,12.6241409 C15.5234744,12.6241409 15.7973643,12.5548387 15.9490803,12.4306082 L15.9490803,12.6241409 L17.2584443,12.6241409 C17.5313328,12.6241409 17.7962099,12.5856397 18,12.4850232 L18,11.920339 L18,11.920339 Z M18,10.4964981 L17.0778473,10.4964981 C16.9857322,10.4964981 16.9241552,10.5005934 16.8745932,10.5354034 C16.8215269,10.5707253 16.8,10.6234523 16.8,10.6920486 C16.8,10.7724188 16.8450563,10.8282172 16.9116395,10.8522771 C16.963204,10.8712179 17.0212766,10.876337 17.106383,10.8773608 L17.379224,10.8845276 C17.6545682,10.8922063 17.8397997,10.940326 17.9529412,11.0575539 C17.9714643,11.074959 17.9854819,11.0944116 18,11.1128405 L18,10.4964981 L18,10.4964981 Z"  fill="#FFFFFF"></path>
  </g>
</svg>
