<svg width="30px" height="18px" viewBox="0 0 30 18" version="1.1" xmlns="http://www.w3.org/2000/svg">
    <g fill-rule="evenodd">
      <path d="M28.8593761,16.7832708 L1.05278834,16.7832708 L1.01680055,1.14308333 L2.19328807,1.14075 L2.19328807,11.9526875 C2.19328807,12.623375 2.776916,13.1718542 3.49025641,13.1718542 L28.8510833,13.1718542 L28.8593761,16.7832708 Z"  fill="#004F8B" ></path>
      <g  transform="translate(5.640000, 3.500000)" >
          <path d="M6.63447262,6.13634375 L7.58189947,0.987625 L9.09656283,0.987625 L8.14913598,6.13634375 L6.63447262,6.13634375"  fill="#004F8B"></path>
          <path d="M13.640304,1.11351562 C13.3411297,1.0095 12.867354,0.894546875 12.2815747,0.894546875 C10.7858275,0.894546875 9.7323705,1.59564062 9.72602362,2.59795312 C9.71357877,3.33732812 10.4803063,3.74814062 11.0536408,3.99467187 C11.639669,4.24667187 11.8389112,4.41095312 11.8389112,4.63560937 C11.8329377,4.9806875 11.36526,5.1395 10.9289434,5.1395 C10.3244967,5.1395 10.0001838,5.05735937 9.50798975,4.865625 L9.30837427,4.78348437 L9.09656283,5.93925 C9.45186345,6.08154687 10.106214,6.20754687 10.7858275,6.21301562 C12.37516,6.21301562 13.4097008,5.52285937 13.4222702,4.4548125 C13.4283681,3.86867187 13.0231636,3.41957812 12.1505304,3.052625 C11.6208773,2.81703125 11.2966888,2.65821875 11.2966888,2.41715625 C11.3030357,2.19807812 11.5710979,1.97364062 12.1693221,1.97364062 C12.661765,1.96259375 13.0231636,2.06660937 13.2975727,2.17084375 L13.434715,2.22542187 L13.640304,1.11351562"  fill="#004F8B"></path>
          <path d="M15.6536327,4.31240625 C15.7783302,4.01654688 16.2580794,2.87182813 16.2580794,2.87182813 C16.2519814,2.88276563 16.3827768,2.57060938 16.4576949,2.378875 L16.5636006,2.8225 C16.5636006,2.8225 16.8502056,4.0549375 16.9126788,4.31240625 L15.6536327,4.31240625 L15.6536327,4.31240625 Z M17.5234723,0.987625 L16.3516647,0.987625 C15.9902661,0.987625 15.715857,1.08070313 15.5600474,1.41484375 L13.3100176,6.13634375 L14.89935,6.13634375 C14.89935,6.13634375 15.1611898,5.50098438 15.2173161,5.36404688 L17.1620737,5.36404688 C17.2055062,5.54484375 17.3426485,6.13634375 17.3426485,6.13634375 L18.7451837,6.13634375 L17.5234723,0.987625 L17.5234723,0.987625 Z"  fill="#004F8B"></path>
          <path d="M5.36920416,0.987625 L3.88577739,4.49867188 L3.72374537,3.78653125 C3.44946075,2.96490625 2.58939679,2.0721875 1.62952509,1.62845313 L2.98825441,6.130875 L4.59015621,6.130875 L6.97110596,0.987625 L5.36920416,0.987625"  fill="#004F8B"></path>
          <path d="M2.50825633,0.987625 L0.0711802821,0.987625 L0.0462905711,1.09164063 C1.9473667,1.51896875 3.20641273,2.54873438 3.72374537,3.78653125 L3.19396787,1.4203125 C3.10660498,1.09164063 2.83866725,0.9985625 2.50825633,0.987625"  fill="#EE9F2D"></path>
      </g>
      <path d="M12.9323635,15.9416667 L13.2462849,15.9416667 L13.2465961,15.9400625 L14.0749568,15.9353958 L14.1164915,15.6437292 L13.2890641,15.64825 L13.3800671,15.0233542 L14.0102435,15.0185417 L14.0517782,14.726875 L13.4225352,14.7316875 L13.5042046,14.1697917 L14.3058088,14.165125 L14.3473435,13.8733125 L13.2325956,13.8794375 L12.9323635,15.9416667 L12.9323635,15.9416667 Z M15.959419,15.9416667 L16.2736516,15.9416667 L16.2736516,15.9400625 L17.1021679,15.9353958 L17.1437026,15.6437292 L16.3161197,15.64825 L16.4072782,15.0233542 L17.0374546,15.0185417 L17.0789893,14.726875 L16.4499019,14.7316875 L16.5315712,14.1697917 L17.3330199,14.165125 L17.3747102,13.8733125 L16.2599623,13.8794375 L15.959419,15.9416667 L15.959419,15.9416667 Z M14.4623029,15.9416667 L14.7762244,15.9416667 L14.7763799,15.9400625 L15.6048962,15.9353958 L15.6464309,15.6437292 L14.8190036,15.64825 L15.1095909,13.8733125 L14.762535,13.8794375 L14.4623029,15.9416667 L14.4623029,15.9416667 Z M19.9447284,15.9416667 L20.258961,15.9416667 L20.2592721,15.9400625 L20.2816729,15.9353958 L20.521703,14.1697917 L21.2095924,14.165125 L21.2509716,13.8733125 L19.6300291,13.8794375 L19.5880277,14.1697917 L20.2066926,14.1697917 L19.9447284,15.9416667 L19.9447284,15.9416667 Z M21.2844171,15.9416667 L21.598183,15.9353958 L21.6210505,15.9353958 L21.7364765,15.062875 L21.9054154,15.0627292 L22.4122321,15.9353958 L22.75151,15.9353958 L22.2548047,15.0633125 C22.8786031,14.919375 23.0590535,13.8663125 22.2800055,13.8733125 L21.6118724,13.8794375 L21.2844171,15.9416667 L21.2844171,15.9416667 Z M21.780189,14.809125 L22.141401,14.809125 C22.4301216,14.809125 22.6069941,14.1342083 22.259316,14.130125 L21.8732143,14.1253125 L21.780189,14.809125 L21.780189,14.809125 Z M24.2722714,13.80375 C24.799311,13.80375 25.1664342,14.292875 25.0916095,14.8960417 C25.0172515,15.4990625 24.5292576,15.9881875 24.0020624,15.9881875 C23.4750228,15.9881875 23.1078996,15.4990625 23.1824131,14.8960417 C23.2570823,14.292875 23.7450762,13.80375 24.2722714,13.80375 L24.2722714,13.80375 Z M24.2347812,14.0500625 C24.616216,14.0500625 24.8817582,14.4597083 24.827623,14.8960417 C24.773799,15.3322292 24.4158539,15.741875 24.0342635,15.741875 C23.6532954,15.741875 23.3925756,15.3322292 23.4467108,14.8960417 C23.5005348,14.4597083 23.853502,14.0500625 24.2347812,14.0500625 L24.2347812,14.0500625 Z M25.3832858,15.9416667 L25.6972073,15.9353958 L25.7202303,15.9353958 L25.9615049,14.3412917 L26.7867544,15.9353958 L27.0485631,15.9353958 L27.3542398,13.8794375 L27.0577411,13.8794375 L26.8079107,15.3631458 L26.0434854,13.8794375 L25.7381198,13.8794375 L25.3832858,15.9416667 L25.3832858,15.9416667 Z M18.6938649,13.80375 C18.9318727,13.80375 19.1384573,13.8960625 19.2896623,14.0499167 L19.1213457,14.3232083 C19.0101198,14.1886042 18.846781,14.1060625 18.6549747,14.1060625 C18.2587616,14.1060625 17.8917939,14.4597083 17.8356365,14.8960417 C17.7796347,15.3322292 18.0555994,15.6860208 18.4521236,15.6860208 C18.6485967,15.6860208 18.837603,15.5989583 18.9855412,15.4582292 L18.9855412,15.8060417 C18.8133355,15.9211042 18.6160845,15.9881875 18.4132334,15.9881875 C17.8650375,15.9881875 17.4834471,15.4990625 17.5612275,14.8960417 C17.6386967,14.292875 18.1458246,13.80375 18.6938649,13.80375 L18.6938649,13.80375 Z"  fill="#FFFFFF" ></path>
    </g>
</svg>
