<svg width="26px" height="18px" viewBox="0 0 26 18" version="1.1" xmlns="http://www.w3.org/2000/svg">
  <g fill-rule="evenodd"  transform="translate(1.000000, 5.000000)" >
      <path d="M8.34952299,6.98492432 L9.56842549,0 L11.5196814,0 L10.298458,6.98492432 L8.34952299,6.98492432"  fill="#00589F"></path>
      <path d="M17.3735884,0.28345696 C16.9873709,0.146814378 16.3816215,0 15.6252005,0 C13.6981746,0 12.3404835,0.914697667 12.3283453,2.22592076 C12.3175532,3.19479524 13.2975676,3.73595225 14.0373711,4.05835017 C14.7969948,4.38880257 15.0522915,4.59992191 15.0491351,4.89481668 C15.0437275,5.34713419 14.4422484,5.5531458 13.881292,5.5531458 C13.1011981,5.5531458 12.6864338,5.45118773 12.0458247,5.19942487 L11.7946824,5.09242456 L11.5208186,6.60245605 C11.9758734,6.79072159 12.8184686,6.95362312 13.6936721,6.96167762 C15.7441688,6.96167762 17.074636,6.05791572 17.0899305,4.65748205 C17.0975895,3.89082112 16.577991,3.30694693 15.4528753,2.82544554 C14.7708849,2.5131976 14.3527321,2.30504685 14.3572346,1.98897903 C14.3572346,1.70888356 14.7108206,1.40892472 15.4746915,1.40892472 C16.1119353,1.39960421 16.5746258,1.53076799 16.9336193,1.66741057 L17.1094956,1.74527065 L17.3735884,0.28345696"  fill="#00589F"></path>
      <path d="M22.3751525,0 L20.8681593,0 C20.4009431,0 20.0516276,0.124552246 19.8464851,0.579690491 L16.9500047,6.98492432 L18.9985055,6.98492432 C18.9985055,6.98492432 19.3325264,6.12378104 19.4089994,5.93478104 C19.6325697,5.93478104 21.6221201,5.9378349 21.9068455,5.9378349 C21.9648907,6.18252826 22.1437377,6.98492432 22.1437377,6.98492432 L23.9542091,6.98492432 L22.3751525,0 L22.3751525,0 Z M19.9697702,4.50537097 C20.1314658,4.10239717 20.7469166,2.55105892 20.7469166,2.55105892 C20.735846,2.56992498 20.9072893,2.14636591 21.0053697,1.88371133 L21.1376134,2.48663378 C21.1376134,2.48663378 21.5109964,4.15501405 21.5892796,4.50537097 L19.9697702,4.50537097 L19.9697702,4.50537097 Z"  fill="#00589F"></path>
      <path d="M6.71355851,0 L4.80354462,4.77087807 L4.59965538,3.80141069 C4.24493222,2.68364439 3.13724624,1.47237052 1.89863947,0.866744912 L3.64468325,6.98492432 L5.70833934,6.98227531 L8.7793498,0 L6.71355851,0"  fill="#00589F"></path>
      <path d="M3.05912291,0 L0.0231122284,0 L0,0.145159739 C2.3609858,0.722347345 3.92374868,2.11628688 4.57142857,3.79181601 L3.91223736,0.58855676 C3.79851265,0.146919251 3.46773008,0.0157679344 3.05912291,0"  fill="#F9A51A"></path>
  </g>
</svg>
