<svg viewBox="0 0 124 16" xmlns="http://www.w3.org/2000/svg"><g fill="none" fill-rule="evenodd"><g><g><g><g fill="#0074C8"><path d="M92.61 4.93c-.723-.53-1.804-.8-3.21-.8-1.21 0-2.523.194-3.28.36-.19.044-.296.154-.296.308v1.406c0 .16.084.235.26.235h.093c.566-.05 1.93-.122 3.167-.122.91 0 1.518.216 1.518 1.275v.703h-1.12c-1.623 0-2.776.228-3.52.693-.727.458-1.085 1.167-1.085 2.164v.158c0 2.532 1.99 2.91 3.177 2.91 1.014 0 1.77-.223 2.602-.767l.136-.09v.43c0 .148.13.27.295.27h2.138c.162 0 .295-.122.295-.27V7.592c0-1.194-.395-2.09-1.17-2.662zm-1.71 6.994l-.046.024c-.565.296-1.082.44-1.573.44-.8 0-1.262-.174-1.262-1.064v-.177c0-1.1.47-1.513 1.73-1.513h1.15v2.29zM101.167 4.13c-.91 0-1.823.3-2.494.828l-.137.106v-.52c0-.153-.135-.276-.294-.276h-2.25c-.16 0-.29.123-.29.275v9.387c0 .15.15.292.31.292h2.286c.156 0 .295-.137.295-.292V6.983l.042-.02c.837-.423 1.647-.628 2.475-.628h.153c.116 0 .2-.136.2-.258V4.4c0-.148-.133-.27-.296-.27zM120.46 4.93c-.724-.53-1.803-.8-3.21-.8-1.21 0-2.524.194-3.28.36-.19.044-.295.154-.295.308v1.406c0 .16.083.235.257.235h.095c.566-.05 1.93-.122 3.167-.122.91 0 1.515.216 1.515 1.275v.703h-1.116c-1.627 0-2.777.228-3.52.693-.73.458-1.088 1.167-1.088 2.164v.158c0 2.532 1.99 2.91 3.178 2.91 1.015 0 1.767-.223 2.6-.767l.138-.09v.43c0 .148.132.27.294.27h2.137c.165 0 .296-.122.296-.27V7.592c0-1.194-.395-2.09-1.17-2.662zm-1.712 6.994l-.05.024c-.562.296-1.077.44-1.57.44-.798 0-1.26-.174-1.26-1.064v-.177c0-1.1.466-1.513 1.728-1.513h1.152v2.29zM108.596 4.13c-1.28 0-2.142.24-3.19.902l-.14.087v-.577c0-.152-.137-.275-.306-.275h-2.225c-.173 0-.312.123-.312.275v9.387c0 .15.16.292.33.292h2.402c.17 0 .313-.137.313-.292v-7l.046-.02c.733-.344 1.338-.575 1.91-.575 1.333 0 1.558.53 1.558 1.72v5.875c0 .155.146.292.31.292h2.402c.172 0 .332-.143.332-.292V8.055c0-2.75-1.027-3.925-3.43-3.925zM83.905.46h-2.3c-.164 0-.31.13-.31.28v13.18c0 .155.15.302.31.302h2.3c.166 0 .272-.156.272-.3V.738c0-.16-.118-.28-.272-.28z"/><path d="M122.446 3.944h-.215v.7c0 .013-.01.024-.02.024h-.123c-.015 0-.025-.01-.025-.023v-.7h-.213c-.014 0-.027-.01-.027-.022V3.83c0-.012.013-.02.026-.02h.596c.013 0 .025.008.025.02v.093c0 .013-.01.02-.024.02"/><path d="M123.356 4.668h-.122c-.01 0-.02-.01-.02-.023v-.537c0-.01-.002-.014-.002-.014l-.008.01-.117.22c-.008.014-.025.022-.04.022h-.124c-.016 0-.03-.008-.04-.02l-.117-.223s-.005-.01-.007-.01c0 0-.004.006-.004.015v.537c0 .012-.01.023-.02.023h-.122c-.012 0-.02-.006-.02-.017v-.796c0-.024.02-.044.048-.044h.1c.02 0 .036.01.046.026l.184.356c.005.01.008.015.012.015.006 0 .01-.005.014-.015l.184-.356c.01-.015.026-.026.046-.026h.102c.026 0 .047.02.047.044v.797c0 .012-.01.018-.02.018"/><path d="M73.222 7.6c.028 2.257 1.326 4.355 3.398 5.488 1.004.55 2.147.845 3.312.86-.014-1.104-.326-2.186-.908-3.134-1.2-1.96-3.417-3.185-5.802-3.213"/><path d="M73.222 6.806c2.385-.03 4.603-1.255 5.802-3.216.582-.947.894-2.03.908-3.13-1.165.013-2.308.31-3.312.86-2.072 1.132-3.37 3.228-3.398 5.486"/><path d="M72.07.46h-1.895c-.462 0-.84.357-.84.794v12.37c0 .138.13.292.337.292h1.897c.462 0 .84-.354.84-.797V.733c0-.157-.146-.274-.34-.274"/></g><text font-family="Helvetica Neue" font-size="12" fill="#AEAEAE" transform="translate(0 0)"><tspan x="0" y="13">Powered by</tspan></text></g></g></g></g></svg>
