<svg width="28px" height="22px" viewBox="0 0 28 22" version="1.1" xmlns="http://www.w3.org/2000/svg">
  <g fill-rule="evenodd">
    <g transform="translate(-225.000000, -5.000000)">
      <g transform="translate(224.000000, 5.000000)">
        <rect fill="#939090" x="1" y="0" width="28" height="22"></rect>
        <rect fill="#FFFFFF" x="2" y="1" width="26" height="20"></rect>
        <path d="M3,21 L27.9995547,20.9999998 C27.9995547,20.9999998 28.007547,14.0656546 27.9995556,12 C20.8481831,17.9980962 10.2365588,21 3,21 Z" fill="#E7772F"></path>
        <g transform="translate(3.000000, 8.000000)">
            <path d="M1.1522963,0.189931034 L0.0543703704,0.189931034 L0.0543703704,3.76013793 L1.14651852,3.76013793 C1.72725926,3.76013793 2.14651852,3.63255172 2.51466667,3.348 C2.95214815,3.01089655 3.21081481,2.50289655 3.21081481,1.97751724 C3.21081481,0.923862069 2.36533333,0.189931034 1.1522963,0.189931034 L1.1522963,0.189931034 Z M2.02607407,2.87186207 C1.79096296,3.06951724 1.48577778,3.15572414 1.00251852,3.15572414 L0.801777778,3.15572414 L0.801777778,0.794896552 L1.00251852,0.794896552 C1.48577778,0.794896552 1.77896296,0.875310345 2.02607407,1.08358621 C2.28474074,1.29806897 2.4402963,1.63034483 2.4402963,1.97227586 C2.4402963,2.31503448 2.28474074,2.65751724 2.02607407,2.87186207 L2.02607407,2.87186207 Z" fill="#1A1918"></path>
            <path d="M3.55496296,0.189931034 L4.30296296,0.189931034 L4.30296296,3.76013793 L3.55496296,3.76013793 L3.55496296,0.189931034 Z" fill="#1A1918"></path>
            <path d="M6.13185185,1.56 C5.68296296,1.40537931 5.55125926,1.30331034 5.55125926,1.11048276 C5.55125926,0.885517241 5.78607407,0.714758621 6.10844444,0.714758621 C6.33259259,0.714758621 6.51674074,0.800413793 6.71155556,1.00386207 L7.10296296,0.526758621 C6.78133333,0.264827586 6.39659259,0.130896552 5.97614815,0.130896552 C5.29762963,0.130896552 4.78014815,0.569517241 4.78014815,1.15393103 C4.78014815,1.6457931 5.02118519,1.89751724 5.72355556,2.13296552 C6.01644444,2.22910345 6.16548148,2.29324138 6.24074074,2.33627586 C6.39007407,2.42717241 6.46488889,2.55572414 6.46488889,2.70565517 C6.46488889,2.99489655 6.21792593,3.20924138 5.88414815,3.20924138 C5.52740741,3.20924138 5.24014815,3.04317241 5.06785185,2.73310345 L4.58459259,3.16634483 C4.92918519,3.63724138 5.34311111,3.84593103 5.9122963,3.84593103 C6.68948148,3.84593103 7.23481481,3.36482759 7.23481481,2.67365517 C7.23481481,2.10648276 6.98266667,1.84965517 6.13185185,1.56" fill="#1A1918"></path>
            <path d="M7.47081481,1.97751724 C7.47081481,3.02689655 8.35585185,3.84055172 9.49481481,3.84055172 C9.81674074,3.84055172 10.0925926,3.78165517 10.4325926,3.63255172 L10.4325926,2.81282759 C10.1334815,3.09144828 9.86874074,3.20386207 9.52962963,3.20386207 C8.7762963,3.20386207 8.24162963,2.69531034 8.24162963,1.97227586 C8.24162963,1.28689655 8.79318519,0.746206897 9.49481481,0.746206897 C9.85155556,0.746206897 10.1216296,0.864689655 10.4325926,1.14786207 L10.4325926,0.328551724 C10.1042963,0.173517241 9.83422222,0.109241379 9.51244444,0.109241379 C8.37925926,0.109241379 7.47081481,0.939448276 7.47081481,1.97751724" fill="#1A1918"></path>
            <path d="M16.3631111,2.588 L15.3405926,0.189931034 L14.5234074,0.189931034 L16.1508148,3.85172414 L16.5531852,3.85172414 L18.2097778,0.189931034 L17.398963,0.189931034 L16.3631111,2.588" fill="#1A1918"></path>
            <path d="M18.548,3.76013793 L20.6693333,3.76013793 L20.6693333,3.15572414 L19.2954074,3.15572414 L19.2954074,2.192 L20.6186667,2.192 L20.6186667,1.58731034 L19.2954074,1.58731034 L19.2954074,0.794896552 L20.6693333,0.794896552 L20.6693333,0.189931034 L18.548,0.189931034 L18.548,3.76013793" fill="#1A1918"></path>
            <path d="M23.6308148,1.244 C23.6308148,0.575586207 23.1362963,0.189931034 22.2737778,0.189931034 L21.1645926,0.189931034 L21.1645926,3.76013793 L21.9117037,3.76013793 L21.9117037,2.32593103 L22.0093333,2.32593103 L23.0445926,3.76013793 L23.9644444,3.76013793 L22.7571852,2.256 C23.3205926,2.14937931 23.6308148,1.79062069 23.6308148,1.244 L23.6308148,1.244 Z M22.1302222,1.83365517 L21.9117037,1.83365517 L21.9117037,0.752275862 L22.1420741,0.752275862 C22.6078519,0.752275862 22.8611852,0.934068966 22.8611852,1.28151724 C22.8611852,1.64041379 22.6078519,1.83365517 22.1302222,1.83365517 L22.1302222,1.83365517 Z" fill="#1A1918"></path>
            <path d="M14.748,1.97737931 C14.748,3.0257931 13.8357037,3.87558621 12.709037,3.87558621 C11.582963,3.87558621 10.6702222,3.0257931 10.6702222,1.97737931 C10.6702222,0.928827586 11.582963,0.0790344828 12.709037,0.0790344828 C13.8357037,0.0790344828 14.748,0.928827586 14.748,1.97737931" fill="#E7772F"></path>
        </g>
      </g>
    </g>
  </g>
</svg>