<svg viewBox="0 0 25 18" width="30" height="22" version="1.1" xmlns="http://www.w3.org/2000/svg">
    <g  transform="translate(1.000000, 2.250000)">
        <path d="M11.5264286,11.7549081 C12.9182857,10.5249286 13.7967143,8.73985773 13.7967143,6.75670974 C13.7967143,4.77328218 12.9182857,2.98835114 11.5264286,1.74537152 C10.3104286,0.661189115 8.68871429,0 6.90514286,0 C3.09442857,0 0,3.02805045 0,6.75670974 C0,10.485369 3.09442857,13.5 6.90514286,13.5 C8.68871429,13.5 10.3104286,12.8390905 11.5264286,11.7549081"  fill="#0092C7"></path>
        <path d="M11.469,11.7847969 C12.8608571,10.5474375 13.7392857,8.75165625 13.7392857,6.75660938 C13.7392857,4.76128125 12.8608571,2.96564063 11.469,1.71520313 L11.469,11.7847969"  fill="#0092C7"></path>
        <path d="M16.024813,0 C14.2194568,0 12.5782109,0.661189115 11.3335764,1.74537152 C11.0874835,1.97014786 10.8549821,2.2082039 10.6362168,2.45939985 L12.0448167,2.45939985 C12.2362545,2.68417619 12.4141007,2.93537214 12.5782109,3.17342818 L10.1028227,3.17342818 C9.95230402,3.41148422 9.81552147,3.64940047 9.69247501,3.88745651 L12.9748224,3.88745651 C13.0842774,4.12537276 13.1937323,4.3634288 13.2757151,4.60134505 L9.40517382,4.60134505 C9.32319105,4.83940109 9.25479977,5.07745713 9.2,5.32865308 L13.4808889,5.32865308 C13.5766078,5.77820577 13.6314076,6.26745775 13.6314076,6.75670974 C13.6314076,7.49715768 13.5082165,8.22446571 13.2757151,8.89879473 L9.40517382,8.89879473 C9.48730119,9.1365712 9.58302005,9.37462724 9.69247501,9.61282306 L12.9748224,9.61282306 C12.8517759,9.8508791 12.7287295,10.102075 12.5782109,10.3267116 L10.1028227,10.3267116 C10.2667882,10.5779076 10.4446344,10.8159636 10.6362168,11.0406001 L12.0448167,11.0406001 C11.8260514,11.2917961 11.5934054,11.5298521 11.3335764,11.7549081 C12.5782109,12.8390905 14.2194568,13.5 16.024813,13.5 C19.8816182,13.5 23,10.485369 23,6.75670974 C23,3.02805045 19.8816182,0 16.024813,0"  fill="#D82331"></path>
        <path  fill="#D82331"></path>
        <path d="M5.76657143,8.64548438 L4.90185714,8.64548438 L5.41528571,5.99835938 L4.23971429,8.64548438 L3.51,8.64548438 L3.36128571,6.01171875 L2.79385714,8.64548438 L2.01,8.64548438 L2.67228571,5.2003125 L4.037,5.2003125 L4.05057143,7.32839063 L4.99642857,5.2003125 L6.44228571,5.2003125 L5.76657143,8.64548438"  fill="#0B2D5A"></path>
        <path d="M15.3607143,8.60554688 C15.1174286,8.6720625 14.9418571,8.69864063 14.7391429,8.69864063 C14.3067143,8.69864063 14.0634286,8.485875 14.0634286,8.08678125 C14.0634286,8.00690625 14.077,7.91367188 14.0905714,7.83407813 L14.1445714,7.55479688 L14.1851429,7.34189063 L14.577,5.2003125 L15.4282857,5.2003125 L15.3068571,5.83875 L15.7391429,5.83875 L15.631,6.517125 L15.1851429,6.517125 L14.9554286,7.6876875 C14.9554286,7.74098438 14.9418571,7.78078125 14.9418571,7.80735938 C14.9418571,7.95375 15.0364286,8.00690625 15.2391429,8.00690625 C15.3337143,8.00690625 15.4147143,8.00690625 15.4688571,7.98046875 L15.3607143,8.60554688"  fill="#0B2D5A"></path>
        <path d="M11.9555714,6.73003125 C11.9555714,7.0756875 12.1581429,7.32839063 12.6041429,7.5015 C12.969,7.64789063 13.023,7.6876875 13.023,7.82057813 C13.023,7.9936875 12.8608571,8.0735625 12.523,8.0735625 C12.2527143,8.0735625 12.0231429,8.03348438 11.7392857,7.95375 L11.6177143,8.60554688 L11.6581429,8.60554688 L11.8204286,8.63226563 C11.8744286,8.64548438 11.942,8.6585625 12.0501429,8.6585625 C12.2527143,8.6720625 12.415,8.68528125 12.523,8.68528125 C13.442,8.68528125 13.8607143,8.39278125 13.8607143,7.75420313 C13.8607143,7.36846875 13.6851429,7.14220313 13.2528571,6.96951563 C12.888,6.83620313 12.8474286,6.79640625 12.8474286,6.66351563 C12.8474286,6.517125 12.9961429,6.43725 13.2662857,6.43725 C13.442,6.43725 13.6715714,6.45060938 13.9014286,6.4771875 L14.023,5.83875 C13.7932857,5.7988125 13.4555714,5.77223438 13.2528571,5.77223438 C12.2798571,5.77223438 11.942,6.21126563 11.9555714,6.73003125"  fill="#0B2D5A"></path>
        <path d="M8.55028571,8.64548438 L7.83414286,8.64548438 L7.84771429,8.35284375 C7.63142857,8.57896875 7.33414286,8.68528125 6.94228571,8.68528125 C6.48285714,8.68528125 6.15842857,8.37928125 6.15842857,7.92717188 C6.15842857,7.24879688 6.71257143,6.84970313 7.672,6.84970313 C7.76657143,6.84970313 7.88814286,6.84970313 8.02328571,6.86292188 C8.05028571,6.76996875 8.05028571,6.73003125 8.05028571,6.69009375 C8.05028571,6.50376563 7.90171429,6.42403125 7.49628571,6.42403125 C7.25314286,6.42403125 6.98285714,6.46396875 6.79357143,6.50376563 L6.672,6.54370313 L6.59085714,6.5570625 L6.71257143,5.93184375 C7.145,5.81217188 7.42871429,5.77223438 7.73957143,5.77223438 C8.48271429,5.77223438 8.87457143,6.064875 8.87457143,6.597 C8.87457143,6.74325 8.86114286,6.83620313 8.79357143,7.15570313 L8.61785714,8.14007813 L8.59085714,8.32626563 L8.56371429,8.472375 L8.55028571,8.56546875 L8.55028571,8.64548438 L8.55028571,8.64548438 Z M7.96928571,7.3951875 C7.87471429,7.3816875 7.83414286,7.3816875 7.76657143,7.3816875 C7.28,7.3816875 7.03685714,7.52807813 7.03685714,7.80735938 C7.03685714,7.98046875 7.15842857,8.08678125 7.34771429,8.08678125 C7.699,8.08678125 7.95571429,7.80735938 7.96928571,7.3951875 L7.96928571,7.3951875 Z"  fill="#0B2D5A"></path>
        <path d="M11.361,8.57896875 C11.0771429,8.6585625 10.7934286,8.69864063 10.4825714,8.69864063 C9.52328571,8.69864063 9.02328571,8.25975 9.02328571,7.43498438 C9.02328571,6.4771875 9.65828571,5.77223438 10.5231429,5.77223438 C11.2394286,5.77223438 11.6852857,6.17132813 11.6852857,6.7831875 C11.6852857,6.99609375 11.6581429,7.1955 11.5771429,7.47478125 L9.87457143,7.47478125 C9.861,7.52807813 9.861,7.54129688 9.861,7.567875 C9.861,7.887375 10.1177143,8.0600625 10.6177143,8.0600625 C10.9285714,8.0600625 11.1988571,8.00690625 11.5095714,7.873875 L11.361,8.57896875 L11.361,8.57896875 Z M10.9555714,6.91621875 L10.9555714,6.76996875 C10.9555714,6.54370313 10.8068571,6.41067188 10.5501429,6.41067188 C10.28,6.41067188 10.0772857,6.58364063 9.99614286,6.91621875 L10.9555714,6.91621875 L10.9555714,6.91621875 Z"  fill="#0B2D5A"></path>
        <path d="M20.5225714,7.36846875 C20.4011429,8.29954687 19.739,8.71185937 18.8605714,8.71185937 C17.8877143,8.71185937 17.4958571,8.14007812 17.4958571,7.42176562 C17.4958571,6.43725 18.158,5.75901562 19.1848571,5.75901562 C20.0767143,5.75901562 20.5497143,6.31757812 20.5497143,7.02267187 C20.5497143,7.1955 20.5497143,7.209 20.5225714,7.36846875 L20.5225714,7.36846875 Z M19.6577143,7.03589062 C19.6577143,6.74325 19.5362857,6.46396875 19.1848571,6.46396875 C18.7525714,6.46396875 18.4687143,6.98259375 18.4687143,7.42176562 C18.4687143,7.80735937 18.6578571,8.0600625 18.9685714,8.0600625 C19.1578571,8.0600625 19.5497143,7.80735937 19.6308571,7.36846875 C19.6444286,7.275375 19.6577143,7.15570312 19.6577143,7.03589062 L19.6577143,7.03589062 Z"  fill="#0B2D5A"></path>
        <path  fill="#FFFFFF"></path>
        <path d="M5.98285714,8.44607813 L5.118,8.44607813 L5.63142857,5.7988125 L4.45585714,8.44607813 L3.67214286,8.44607813 L3.537,5.81217188 L3.02357143,8.44607813 L2.23985714,8.44607813 L2.902,5.00076563 L4.25328571,5.00076563 L4.32071429,7.12898438 L5.26671429,5.00076563 L6.65842857,5.00076563 L5.98285714,8.44607813"  fill="#FFFFFF"></path>
        <path d="M15.577,8.40585938 C15.3337143,8.472375 15.158,8.49895313 14.9554286,8.49895313 C14.523,8.49895313 14.2797143,8.2861875 14.2797143,7.887375 C14.2797143,7.80735938 14.2932857,7.72748438 14.3067143,7.63439063 L14.3607143,7.35510938 L14.4014286,7.14220313 L14.7932857,5.00076563 L15.6445714,5.00076563 L15.5228571,5.63920313 L15.9688571,5.63920313 L15.8472857,6.31757813 L15.4014286,6.31757813 L15.1851429,7.48828125 C15.1715714,7.54129688 15.158,7.581375 15.158,7.6078125 C15.158,7.75420313 15.2527143,7.82057813 15.4552857,7.82057813 C15.55,7.82057813 15.631,7.80735938 15.685,7.794 L15.577,8.40585938"  fill="#FFFFFF"></path>
        <path d="M17.7795714,6.45060937 L17.766,6.35751562 L17.9281429,5.91848437 C17.8877143,5.91848437 17.8741429,5.91848437 17.8605714,5.90526562 C17.8201429,5.90526562 17.7931429,5.89190625 17.7931429,5.89190625 L17.712,5.89190625 C17.4282857,5.89190625 17.2255714,6.01171875 16.9551429,6.34429687 L17.0498571,5.83875 L16.158,5.83875 L15.631,8.64548437 L16.4822857,8.64548437 C16.604,7.9936875 16.658,7.63439062 16.7255714,7.32839062 C16.8337143,6.82298437 17.212,6.597 17.4958571,6.65015625 C17.5227143,6.65015625 17.5498571,6.65015625 17.5904286,6.66351562 L17.6444286,6.69009375 L17.7795714,6.45060937"  fill="#0B2D5A"></path>
        <path d="M18.0768571,5.66592187 C18.0092857,5.63920312 17.9958571,5.63920312 17.9822857,5.63920312 C17.9417143,5.62584375 17.9145714,5.62584375 17.9145714,5.612625 L17.8201429,5.612625 C17.5362857,5.612625 17.3337143,5.73229687 17.0768571,6.064875 L17.1578571,5.63920312 L16.3742857,5.63920312 L15.8472857,8.44607812 L16.712,8.44607812 C17.0228571,6.73003125 17.1444286,6.42403125 17.5632857,6.42403125 C17.5904286,6.42403125 17.6308571,6.43725 17.6714286,6.43725 L17.766,6.46396875 L18.0768571,5.66592187"  fill="#FFFFFF"></path>
        <path d="M12.1717143,6.53048437 C12.1717143,6.87628125 12.3744286,7.12898437 12.8338571,7.30209375 C13.1851429,7.44820312 13.2392857,7.48828125 13.2392857,7.62117187 C13.2392857,7.794 13.0771429,7.873875 12.7392857,7.873875 C12.4825714,7.873875 12.2392857,7.83407812 11.9555714,7.75420312 L11.8474286,8.40585937 L11.888,8.40585937 L12.0365714,8.44607812 C12.0907143,8.44607812 12.1717143,8.45915625 12.2662857,8.45915625 C12.469,8.485875 12.6311429,8.485875 12.7528571,8.485875 C13.658,8.485875 14.0905714,8.19309375 14.0905714,7.55479687 C14.0905714,7.16892187 13.9148571,6.94279687 13.469,6.76996875 C13.104,6.6369375 13.0635714,6.597 13.0635714,6.46396875 C13.0635714,6.31757812 13.2121429,6.23784375 13.496,6.23784375 C13.658,6.23784375 13.9014286,6.25120312 14.1175714,6.27778125 L14.2391429,5.63920312 C14.0094286,5.59926562 13.6715714,5.58604687 13.4824286,5.58604687 C12.5095714,5.58604687 12.1717143,6.01171875 12.1717143,6.53048437"  fill="#FFFFFF"></path>
        <path d="M8.76657143,8.44607812 L8.06385714,8.44607812 L8.07742857,8.15315625 C7.86114286,8.37928125 7.56385714,8.485875 7.172,8.485875 C6.71257143,8.485875 6.38828571,8.179875 6.38828571,7.72748437 C6.38828571,7.04910937 6.94228571,6.65015625 7.90171429,6.65015625 C7.99628571,6.65015625 8.11785714,6.65015625 8.253,6.66351562 C8.28,6.57028125 8.28,6.53048437 8.28,6.49054687 C8.28,6.30435937 8.13128571,6.23784375 7.726,6.23784375 C7.48271429,6.23784375 7.21242857,6.26442187 7.02342857,6.30435937 L6.90171429,6.34429687 L6.82071429,6.35751562 L6.94228571,5.73229687 C7.37471429,5.62584375 7.64485714,5.58604687 7.96928571,5.58604687 C8.71242857,5.58604687 9.09071429,5.86532812 9.09071429,6.39745312 C9.09071429,6.54370312 9.07728571,6.65015625 9.02328571,6.95601562 L8.84757143,7.95375 L8.82057143,8.12657812 L8.79357143,8.27296875 L8.78,8.3660625 L8.76657143,8.44607812 L8.76657143,8.44607812 Z M8.14485714,7.1955 C8.05028571,7.18228125 8.00971429,7.18228125 7.95571429,7.18228125 C7.46928571,7.18228125 7.226,7.32839062 7.226,7.6078125 C7.226,7.78078125 7.33414286,7.90059375 7.52328571,7.90059375 C7.87471429,7.90059375 8.13128571,7.6078125 8.14485714,7.1955 L8.14485714,7.1955 Z"  fill="#FFFFFF"></path>
        <path d="M11.5907143,8.37928125 C11.2934286,8.45915625 11.0095714,8.49895313 10.7122857,8.49895313 C9.753,8.49895313 9.253,8.0600625 9.253,7.23529688 C9.253,6.27778125 9.888,5.5726875 10.753,5.5726875 C11.4555714,5.5726875 11.9014286,5.97178125 11.9014286,6.58364063 C11.9014286,6.79640625 11.8744286,6.99609375 11.8068571,7.275375 L10.0907143,7.275375 L10.0907143,7.36846875 C10.0907143,7.6876875 10.334,7.86065625 10.834,7.86065625 C11.1447143,7.86065625 11.4285714,7.80735938 11.7257143,7.6876875 L11.5907143,8.37928125 L11.5907143,8.37928125 Z M11.1312857,6.71667188 L11.1312857,6.57028125 C11.1312857,6.34429688 10.9825714,6.21126563 10.7258571,6.21126563 C10.4555714,6.21126563 10.2664286,6.39745313 10.1852857,6.71667188 L11.1312857,6.71667188 L11.1312857,6.71667188 Z"  fill="#FFFFFF"></path>
        <path d="M20.7524286,7.16892188 C20.6172857,8.1 19.9551429,8.51245313 19.0767143,8.51245313 C18.1172857,8.51245313 17.7254286,7.94039063 17.7254286,7.22207813 C17.7254286,6.23784375 18.3877143,5.55946875 19.4145714,5.55946875 C20.3065714,5.55946875 20.7794286,6.11803125 20.7794286,6.82298438 C20.7794286,6.99609375 20.7794286,7.0093125 20.7524286,7.16892188 L20.7524286,7.16892188 Z M19.8604286,6.80990625 C19.8604286,6.517125 19.739,6.25120313 19.3875714,6.25120313 C18.9552857,6.25120313 18.685,6.75660938 18.685,7.209 C18.685,7.581375 18.8741429,7.83407813 19.1714286,7.83407813 C19.3605714,7.83407813 19.7658571,7.581375 19.8335714,7.15570313 C19.8604286,7.04910938 19.8604286,6.92957813 19.8604286,6.80990625 L19.8604286,6.80990625 Z"  fill="#FFFFFF"></path>
    </g>
</svg>
