<svg viewBox="0 0 25 18" width="30" height="22" version="1.1" xmlns="http://www.w3.org/2000/svg">
  <g  transform="translate(1.000000, 2.250000)">
      <path d="M11.5473659,11.7472817 C12.7588668,12.8314173 14.3658831,13.4924419 16.1287764,13.4924419 C19.8988065,13.4924419 22.9543098,10.4735282 22.9543098,6.74976232 C22.9543098,3.02647183 19.8988065,0.00755809859 16.1287764,0.00755809859 C14.3658831,0.00755809859 12.7588668,0.668582746 11.5473659,1.75271831 C10.1694756,2.98575792 9.30333936,4.76801937 9.30333936,6.74976232 C9.30333936,8.73107746 10.1694756,10.5133389 11.5473659,11.7472817"  fill="#F8971D"></path>
      <path  fill="#F8971D"></path>
      <path d="M13.7128496,6.03594982 C13.6871956,5.7939956 13.6482082,5.55563028 13.5973824,5.32261268 L9.41727394,5.32261268 C9.47048672,5.07889965 9.53671939,4.84093838 9.61544151,4.60839613 L13.3991184,4.60839613 C13.3163216,4.36373239 13.219902,4.12531954 13.1101009,3.89455986 L9.90592976,3.89455986 C10.0227471,3.64725792 10.1550196,3.40974824 10.3000949,3.18031954 L12.7167314,3.18031954 C12.5588532,2.9311875 12.3848448,2.69282218 12.1961046,2.46650704 L10.8191305,2.46650704 C11.0310172,2.21250264 11.260553,1.97366197 11.5073764,1.75226673 C10.2959961,0.668606514 8.68895568,0.00755809859 6.92541137,0.00755809859 C3.15593579,0.00755809859 0.0999984741,3.02599648 0.0999984741,6.75023768 C0.0999984741,10.4735282 3.15593579,13.4920141 6.92541137,13.4920141 C8.68895568,13.4920141 10.2959961,12.8313935 11.5073764,11.7472817 C11.7537417,11.5259102 11.984459,11.2874974 12.1961046,11.0335167 L10.8191305,11.0335167 C10.6306073,10.8071778 10.4578526,10.5683371 10.3000949,10.3192526 L12.7167314,10.3192526 C12.8616862,10.0898002 12.9930666,9.85188644 13.1101009,9.60544014 L9.90592976,9.60544014 C9.79634567,9.37420511 9.69814193,9.13626761 9.61544151,8.89160387 L13.3991184,8.89160387 C13.4775994,8.6586338 13.5445313,8.4206963 13.5973824,8.17738732 C13.6482082,7.94346655 13.6871956,7.70552905 13.7128496,7.46357482 C13.7382625,7.22920246 13.7509448,6.99086092 13.7509448,6.75023768 C13.7509448,6.50871127 13.7382625,6.27032218 13.7128496,6.03594982"  fill="#CA1F27"></path>
      <path  fill="#FFFFFF"></path>
      <path d="M9.22792043,8.69706602 C8.99925256,8.76012148 8.84115732,8.78745423 8.6696082,8.78745423 C8.32368897,8.78745423 8.1087402,8.57228609 8.1087402,8.17693574 C8.1087402,8.09866901 8.11590115,8.01548239 8.13053647,7.92735211 L8.17555154,7.6554507 L8.21003014,7.43541021 L8.53191079,5.53730546 L9.24301386,5.53730546 L9.15838457,5.95007746 L9.60335142,5.95007746 L9.49890295,6.65181602 L9.05244123,6.65181602 L8.86066305,7.7869331 C8.85145268,7.83791461 8.84749849,7.87641813 8.84749849,7.90189701 C8.84749849,8.04542958 8.92417119,8.10808099 9.1003255,8.10808099 C9.18425558,8.10808099 9.25027125,8.09957218 9.32614828,8.08165141 L9.22792043,8.69706602"  fill="#221F5F"></path>
      <path d="M11.5150573,8.67115933 C11.2614346,8.74759595 11.016299,8.78384155 10.756311,8.78384155 C9.96395419,8.78384155 9.49709464,8.35628609 9.49709464,7.53827641 C9.49709464,6.58384067 10.0462929,5.88122271 10.7907896,5.88122271 C11.4009403,5.88122271 11.790211,6.27391109 11.790211,6.89201144 C11.790211,7.09638908 11.7632309,7.29629842 11.6991441,7.57806338 L10.2267631,7.57806338 C10.2211694,7.62146303 10.2193852,7.64023944 10.2193852,7.66529049 C10.2193852,7.9877456 10.4394213,8.15278785 10.8695359,8.15278785 C11.1340325,8.15278785 11.3728029,8.0982412 11.638915,7.97657482 L11.5150573,8.67115933 M11.0736829,7.01679137 C11.0781435,6.95908363 11.0803858,6.91169102 11.0803858,6.87499384 C11.0803858,6.64958187 10.9505244,6.51676849 10.7299096,6.51676849 C10.4945389,6.51676849 10.3257625,6.6943125 10.257167,7.01498504 L11.0736829,7.01679137"  fill="#221F5F"></path>
      <path d="M3.57224834,8.73150528 L2.83112719,8.73150528 L3.25487643,6.10264173 L2.30835443,8.73150528 L1.80325497,8.73150528 L1.74097649,6.11782923 L1.29511754,8.73150528 L0.575310428,8.73150528 L1.15503315,5.31146567 L2.22066305,5.31146567 L2.25015069,7.42870775 L2.96894515,5.31146567 L4.14141049,5.31146567 L3.57224834,8.73150528"  fill="#221F5F"></path>
      <path d="M5.35192285,7.49264261 C5.27421338,7.48327817 5.2592164,7.48104401 5.20605184,7.48104401 C4.78601567,7.48104401 4.57314045,7.64023944 4.57314045,7.90413116 C4.57314045,8.07720687 4.67727547,8.18765493 4.83920434,8.18765493 C5.19742013,8.18765493 5.33924051,7.90365581 5.35192285,7.49264261 M5.93707052,8.73150528 L5.29658831,8.73150528 L5.31018686,8.44303785 C5.14789632,8.66041637 4.92870404,8.77892165 4.53376733,8.77892165 C4.17535865,8.77892165 3.87546715,8.46987148 3.87546715,8.01997447 C3.87546715,7.88756514 3.90037372,7.76727729 3.93044002,7.65635387 C4.04672694,7.23010563 4.48499096,6.95684947 5.15785413,6.94746127 C5.24200121,6.9465581 5.37381555,6.94477553 5.48371308,6.95863204 C5.50743822,6.8673882 5.51332128,6.82802905 5.51332128,6.77837852 C5.51332128,6.59410827 5.35975889,6.53599648 5.013695,6.53599648 C4.80233876,6.53599648 4.5655214,6.57269366 4.40002411,6.61965845 L4.29772152,6.6486787 L4.25449066,6.66080018 L4.35681736,6.03552201 C4.70379747,5.93177641 4.94505124,5.88794894 5.21873418,5.88794894 C5.85473177,5.88794894 6.19172996,6.17059331 6.19172996,6.7037007 C6.19172996,6.84100616 6.20569017,6.94477553 6.15655214,7.25470511 L6.00159132,8.2408706 L5.97622664,8.41843838 L5.95708258,8.55935651 L5.94374925,8.6559243 L5.93707052,8.73150528"  fill="#221F5F"></path>
      <path d="M15.0786739,5.97603169 C15.2846534,5.97603169 15.4770102,6.02924736 15.7406389,6.16075352 L15.8619892,5.41832482 C15.7962146,5.3914912 15.777167,5.38388556 15.6829898,5.35122887 L15.3792646,5.27564789 C15.2850874,5.25240317 15.1742013,5.24030546 15.0473538,5.24030546 C14.6796383,5.24030546 14.4636769,5.24479754 14.2418083,5.37896567 C14.1218083,5.45140933 13.9725136,5.55741285 13.7994454,5.74482042 L13.7120916,5.71841461 L12.9571549,6.24840845 L12.9934659,5.95007746 L12.2078602,5.95007746 L11.7564075,8.73150528 L12.4975286,8.73150528 L12.7679566,7.23414613 C12.7679566,7.23414613 12.8734418,7.02976849 12.9224352,6.96578609 C13.0589994,6.78420158 13.1794575,6.7828706 13.333478,6.78776673 C13.3525497,6.78869366 13.3779867,6.78912148 13.3867872,6.78959683 C13.36434,6.95190581 13.3530078,7.12771479 13.3530078,7.3178081 C13.3530078,8.22748944 13.875877,8.79368134 14.6737312,8.79368134 C14.8790597,8.79368134 15.0550693,8.7672993 15.3282218,8.69395246 L15.4588788,7.91439877 C15.2127306,8.03335563 15.011959,8.09018398 14.829126,8.09018398 C14.3985775,8.09018398 14.1381314,7.77623768 14.1381314,7.25696303 C14.1381314,6.50379137 14.5258348,5.97603169 15.0786739,5.97603169"  fill="#221F5F"></path>
      <path d="M21.3390958,5.31186972 L21.1764436,6.28821919 C20.9981917,6.02523063 20.7858228,5.89824032 20.4986377,5.89824032 C20.109343,5.89824032 19.7529596,6.11825704 19.525642,6.52884243 L19.5276914,6.52480194 L19.0569741,6.24840845 L19.0933092,5.95007746 L18.3074623,5.95007746 L17.8557926,8.73198063 L18.5969138,8.73198063 L18.8419048,7.23502553 C18.8419048,7.23502553 19.0320434,7.02617958 19.0810127,6.96224472 C19.1901386,6.820875 19.3114888,6.79358979 19.4097649,6.78691109 C19.3244605,7.02213908 19.275226,7.29991109 19.275226,7.61340581 C19.275226,8.30841813 19.6415672,8.7681787 20.1803737,8.7681787 C20.4521278,8.7681787 20.662182,8.6738213 20.8649789,8.45915229 L20.8284991,8.73198063 L21.5301266,8.73198063 L22.0943219,5.31186972 L21.3390958,5.31186972 M20.4367209,8.07675528 C20.1844485,8.07675528 20.057167,7.89248504 20.057167,7.52841285 C20.057167,6.9819243 20.2953586,6.59368046 20.6317782,6.59368046 C20.8867993,6.59368046 21.0249307,6.78510475 21.0249307,7.1388618 C21.0249307,7.69076937 20.7822061,8.07675528 20.4367209,8.07675528"  fill="#221F5F"></path>
      <path d="M17.024352,7.49264261 C16.9465943,7.48327817 16.9315732,7.48104401 16.8789632,7.48104401 C16.4588065,7.48104401 16.2460518,7.64023944 16.2460518,7.90413116 C16.2460518,8.07720687 16.3497288,8.18765493 16.5117058,8.18765493 C16.8699216,8.18765493 17.0121278,7.90365581 17.024352,7.49264261 M17.6094515,8.73150528 L16.9690175,8.73150528 L16.9830741,8.44303785 C16.8209042,8.66041637 16.6010609,8.77892165 16.2065582,8.77892165 C15.8483906,8.77892165 15.5228692,8.47616989 15.5260277,8.01683715 C15.5305606,7.35536092 16.0303074,6.94746127 16.830428,6.94746127 C16.9150573,6.94746127 17.0461724,6.94477553 17.1566245,6.95863204 C17.1799879,6.8673882 17.1863773,6.82802905 17.1863773,6.77837852 C17.1863773,6.59410827 17.0325738,6.53599648 16.6865823,6.53599648 C16.4753948,6.53599648 16.2385533,6.57269366 16.0729355,6.61965845 L15.9706329,6.6486787 L15.9275467,6.66080018 L16.0303074,6.03552201 C16.376733,5.93177641 16.6176251,5.88794894 16.8912357,5.88794894 C17.5277637,5.88794894 17.8646414,6.17059331 17.8646414,6.7037007 C17.8646414,6.84100616 17.8782399,6.94477553 17.8294876,7.25470511 L17.6745509,8.2408706 L17.6486799,8.41843838 L17.6298493,8.55935651 L17.6166847,8.6559243 L17.6094515,8.73150528"  fill="#221F5F"></path>
      <path d="M7.48139843,6.54540845 C7.62678722,6.54445775 7.82507535,6.55926496 8.03816757,6.58742958 L8.14413502,5.94520511 C7.92691983,5.91297623 7.65092224,5.88927993 7.48231465,5.88927993 C6.65393611,5.88927993 6.38126582,6.32577201 6.38126582,6.83877201 C6.38126582,7.16973592 6.54389391,7.4175132 6.93446655,7.60000088 C7.23455093,7.73906514 7.28535262,7.76459155 7.28535262,7.89070246 C7.28535262,8.06425352 7.133044,8.16217606 6.84028933,8.16217606 C6.6194575,8.16217606 6.41393611,8.12818838 6.17709464,8.05213204 L6.09121157,8.69126673 L6.10789632,8.69530722 L6.24347197,8.72347183 C6.28667872,8.73238468 6.35254973,8.74312764 6.43809524,8.75118486 C6.61403255,8.76594454 6.76216998,8.77623592 6.8581314,8.77623592 C7.68045811,8.77623592 8.02006028,8.46138644 8.02006028,7.84820599 C8.02006028,7.46626056 7.83594937,7.24220335 7.46550934,7.07447535 C7.15539482,6.9331294 7.11807113,6.91349736 7.11944545,6.78420158 C7.12137432,6.6563081 7.25545509,6.54671567 7.48139843,6.54540845"  fill="#221F5F"></path>
      <path d="M16.0625437,5.20320423 L15.9411453,5.94520511 C15.6768656,5.81415053 15.4847498,5.76093486 15.2796624,5.76093486 C14.7259072,5.76093486 14.3382037,6.28912236 14.3382037,7.04139085 C14.3382037,7.56109331 14.5991079,7.87456426 15.0296805,7.87456426 C15.2118143,7.87456426 15.4137191,7.81868662 15.6591923,7.69927817 L15.5287281,8.47840405 C15.255648,8.5521787 15.079566,8.57856074 14.8740687,8.57856074 C14.0768656,8.57856074 13.5793852,8.0123213 13.5793852,7.10263996 C13.5793852,5.87989173 14.2658469,5.02520863 15.2483424,5.02520863 C15.3742737,5.02520863 15.4856661,5.03728257 15.5797951,5.06055106 L15.8835684,5.13613204 C15.9774563,5.16921655 15.996962,5.17682218 16.0625437,5.20320423"  fill="#FFFFFF"></path>
      <path d="M13.6844364,5.71171215 C13.6622061,5.70724384 13.6372514,5.70500968 13.609789,5.70500968 C13.3670645,5.70500968 13.2284509,5.82798327 13.0015913,6.1567368 L13.0667149,5.73498063 L12.3965763,5.73498063 L11.9446896,8.51683627 L12.6860518,8.51683627 C12.9507896,6.81550352 13.0211212,6.52213996 13.3763713,6.52213996 C13.3994937,6.52213996 13.4011091,6.52166461 13.4308137,6.52570511 C13.4966124,6.18939349 13.5875588,5.94294718 13.7120916,5.71841461 L13.6844364,5.71171215"  fill="#FFFFFF"></path>
      <path d="M9.41620253,8.48196919 C9.212827,8.54547623 9.05518987,8.57230986 8.88393008,8.57230986 C8.50517179,8.57230986 8.29830018,8.35673768 8.29830018,7.96179137 C8.29830018,7.88352465 8.30550934,7.79993398 8.32004822,7.71223151 L8.36520796,7.43985475 L8.39968656,7.21983803 L8.72115732,5.32218486 L9.45762508,5.32218486 L9.37253767,5.73498063 L9.75081374,5.73498063 L9.64896926,6.41166813 L9.26922242,6.41166813 L9.07435805,7.57183627 C9.06526823,7.6223662 9.06162749,7.66082218 9.06162749,7.68675264 C9.06162749,7.83033275 9.13796263,7.89248504 9.31421338,7.89248504 C9.39886679,7.89248504 9.46382158,7.88442782 9.51433394,7.86653081 L9.41620253,8.48196919"  fill="#FFFFFF"></path>
      <path d="M6.56986136,6.61381162 C6.56986136,6.96578609 6.74251959,7.2073125 7.13316456,7.38977641 C7.43271851,7.5288882 7.47901145,7.56957835 7.47901145,7.69568926 C7.47901145,7.86921655 7.34731766,7.94750704 7.05446655,7.94750704 C6.83404461,7.94750704 6.62854732,7.91306778 6.39168174,7.83703521 L6.28937914,8.4788081 L6.32250753,8.48508275 L6.45805907,8.51327113 C6.50157926,8.52220775 6.56660639,8.5302412 6.65166968,8.53741901 C6.82760699,8.5530581 6.96349608,8.5606875 7.0594575,8.5606875 C7.84004822,8.5606875 8.20096444,8.26727641 8.20096444,7.63308539 C8.20096444,7.25113996 8.05010247,7.02753433 7.67908379,6.85890317 C7.36908981,6.71803257 7.33314045,6.68670687 7.33314045,6.55745863 C7.33314045,6.40717606 7.45641953,6.33026408 7.69552743,6.33026408 C7.84060277,6.33026408 8.03908379,6.3459507 8.22693189,6.37230898 L8.33275467,5.7282544 C8.14095238,5.69828345 7.85046414,5.67370775 7.68135021,5.67370775 C6.853912,5.67370775 6.56764316,6.10128697 6.56986136,6.61381162"  fill="#FFFFFF"></path>
      <path d="M21.7191079,8.51683627 L21.0185654,8.51683627 L21.0551175,8.24358011 C20.8513803,8.45827289 20.6413261,8.55263028 20.3695238,8.55263028 C19.8307896,8.55263028 19.4748403,8.09377289 19.4748403,7.39830898 C19.4748403,6.47291725 20.0269801,5.69248415 20.6803376,5.69248415 C20.9681977,5.69248415 21.1873418,5.80968222 21.3901386,6.07355018 L21.5523568,5.09677289 L22.283255,5.09677289 L21.7191079,8.51683627 M20.6258951,7.86161092 C20.9713803,7.86161092 21.214129,7.4747456 21.214129,6.9237412 C21.214129,6.57000792 21.0764316,6.37855986 20.8214346,6.37855986 C20.48434,6.37855986 20.2461483,6.76630458 20.2461483,7.31331602 C20.2461483,7.67693662 20.3736468,7.86161092 20.6258951,7.86161092"  fill="#FFFFFF"></path>
      <path d="M11.6792043,8.45556338 C11.4255817,8.53247535 11.1796263,8.56962412 10.9204822,8.56872095 C10.0921278,8.56826937 9.66073538,8.14114173 9.66073538,7.32313204 C9.66073538,6.36826849 10.2098373,5.66565053 10.9545992,5.66565053 C11.5650633,5.66565053 11.9542375,6.05924208 11.9542375,6.67686708 C11.9542375,6.88172007 11.9274744,7.08160563 11.862833,7.36294278 L10.390428,7.36294278 C10.3849789,7.40591461 10.3835081,7.42469102 10.3835081,7.44971831 C10.3835081,7.77310035 10.6030862,7.93766725 11.0327667,7.93766725 C11.2977215,7.93766725 11.5364678,7.88352465 11.8024593,7.76097887 L11.6792043,8.45556338 M11.2632429,6.80167077 C11.2677758,6.74396303 11.2700422,6.69609507 11.2700422,6.65987324 C11.2700422,6.43358187 11.1400603,6.30164789 10.9195419,6.30164789 C10.6836407,6.30164789 10.515443,6.4791919 10.4467028,6.7998882 L11.2632429,6.80167077"  fill="#FFFFFF"></path>
      <path d="M3.76077155,8.51638468 L3.01986739,8.51638468 L3.44443641,5.88749736 L2.49651597,8.51638468 L1.99189873,8.51638468 L1.92870404,5.90270863 L1.48327908,8.51638468 L0.789439421,8.51638468 L1.3690657,5.0963213 L2.4346956,5.0963213 L2.4643038,7.21356338 L3.1829777,5.0963213 L4.333695,5.0963213 L3.76077155,8.51638468"  fill="#FFFFFF"></path>
      <path d="M5.58512357,7.27709419 C5.50743822,7.2681338 5.47327306,7.26589965 5.41977095,7.26589965 C5.00007233,7.26589965 4.78738999,7.40857658 4.78738999,7.68901056 C4.78738999,7.86208627 4.89140446,7.97253433 5.052827,7.97253433 C5.35464738,7.97253433 5.57253767,7.68851144 5.58512357,7.27709419 M6.12433996,8.51638468 L5.51013864,8.51638468 L5.52467752,8.22791725 C5.33694997,8.4559912 5.08694394,8.56427641 4.74782399,8.56427641 C4.34640145,8.56427641 4.07088608,8.2542993 4.07088608,7.80435475 C4.07088608,7.1272632 4.54999397,6.73279225 5.37188668,6.73279225 C5.45603376,6.73279225 5.56380952,6.7399463 5.67339361,6.7542544 C5.69694997,6.66213116 5.70285714,6.62322359 5.70285714,6.57357306 C5.70285714,6.38930282 5.57333333,6.32087588 5.22736588,6.32087588 C5.01651597,6.32087588 4.77740808,6.35037148 4.61270645,6.39778785 L4.50963231,6.42778257 L4.44325497,6.44522799 L4.54589512,5.82040141 C4.91500904,5.7130669 5.15874623,5.67282835 5.43235684,5.67282835 C6.06878843,5.67282835 6.40542495,5.95547271 6.40542495,6.48860387 C6.40542495,6.62545775 6.39443038,6.72965493 6.34529234,7.03960827 L6.19023508,8.02532218 L6.16472574,8.20334155 L6.14567812,8.34418838 L6.13251356,8.44082746 L6.12433996,8.51638468"  fill="#FFFFFF"></path>
      <path d="M17.2582761,7.27709419 C17.1806872,7.2681338 17.1461844,7.26589965 17.0926823,7.26589965 C16.6729837,7.26589965 16.4602049,7.40857658 16.4602049,7.68901056 C16.4602049,7.86208627 16.5643159,7.97253433 16.725859,7.97253433 C17.0282339,7.97253433 17.2453285,7.68851144 17.2582761,7.27709419 M17.7972755,8.51638468 L17.1829536,8.51638468 L17.1976854,8.22791725 C17.0098614,8.4559912 16.7598553,8.56427641 16.4207354,8.56427641 C16.0194334,8.56427641 15.7437975,8.2542993 15.7437975,7.80435475 C15.7437975,7.1272632 16.2220133,6.73279225 17.0447981,6.73279225 C17.1285353,6.73279225 17.2362628,6.7399463 17.346305,6.7542544 C17.3694274,6.66213116 17.3757685,6.62322359 17.3757685,6.57357306 C17.3757685,6.38930282 17.2462447,6.32087588 16.9002773,6.32087588 C16.6888728,6.32087588 16.4501989,6.35037148 16.2857384,6.39778785 L16.1825437,6.42778257 L16.1162869,6.44522799 L16.2188065,5.82040141 C16.5881374,5.7130669 16.8317782,5.67282835 17.1053888,5.67282835 C17.7416998,5.67282835 18.0781193,5.95547271 18.0781193,6.48860387 C18.0781193,6.62545775 18.0667872,6.72965493 18.0182037,7.03960827 L17.863267,8.02532218 L17.8378782,8.20334155 L17.805425,8.44082746 L17.7972755,8.51638468"  fill="#FFFFFF"></path>
      <path d="M19.7845208,5.71171215 C19.7615913,5.70724384 19.7371187,5.70500968 19.7103074,5.70500968 C19.4666667,5.70500968 19.3285353,5.82798327 19.1014587,6.1567368 L19.1665582,5.73498063 L18.4964436,5.73498063 L18.044991,8.51683627 L18.7858951,8.51683627 C19.051525,6.81550352 19.1209403,6.52213996 19.4766486,6.52213996 C19.4993369,6.52213996 19.4984448,6.5212368 19.5274744,6.52480194 C19.5939241,6.18939349 19.6849186,5.94294718 19.8094756,5.71841461 L19.7845208,5.71171215"  fill="#FFFFFF"></path>
  </g>
</svg>
