<svg xmlns="http://www.w3.org/2000/svg" viewBox="0 0 15 15" version="1.1"><circle fill="#C8C8C8" cx="7.5" cy="7.5" r="7.5"/><path d="M6.42 10.15L6.42 11.94 8.25 11.94 8.25 10.15 6.42 10.15 6.42 10.15ZM4.54 6.3L6.26 6.3C6.26 6.09 6.28 5.89 6.33 5.71 6.38 5.53 6.44 5.37 6.54 5.23 6.64 5.09 6.76 4.98 6.92 4.9 7.07 4.83 7.25 4.78 7.46 4.78 7.77 4.78 8.01 4.87 8.18 5.04 8.36 5.21 8.45 5.48 8.45 5.83 8.46 6.04 8.42 6.22 8.34 6.36 8.26 6.5 8.15 6.63 8.02 6.74 7.88 6.86 7.74 6.98 7.58 7.09 7.43 7.21 7.28 7.35 7.14 7.51 7 7.67 6.88 7.86 6.78 8.08 6.67 8.31 6.61 8.59 6.58 8.93L6.58 9.45 8.16 9.45 8.16 9.01C8.19 8.78 8.27 8.57 8.38 8.43 8.51 8.27 8.64 8.13 8.8 8.01 8.95 7.88 9.12 7.77 9.29 7.64 9.47 7.53 9.63 7.38 9.78 7.21 9.92 7.03 10.03 6.83 10.13 6.59 10.23 6.35 10.28 6.04 10.28 5.67 10.28 5.44 10.23 5.2 10.13 4.94 10.03 4.68 9.88 4.43 9.65 4.21 9.43 3.98 9.13 3.79 8.76 3.64 8.39 3.49 7.93 3.42 7.38 3.42 6.95 3.42 6.56 3.49 6.22 3.63 5.87 3.78 5.58 3.98 5.33 4.23 5.08 4.49 4.89 4.79 4.76 5.14 4.62 5.49 4.55 5.88 4.54 6.3L4.54 6.3 4.54 6.3Z" fill="#FFFFFF"/></svg>