<svg width="35px" height="22px" viewBox="0 0 35 22" version="1.1" xmlns="http://www.w3.org/2000/svg" xmlns:xlink="http://www.w3.org/1999/xlink" >
    <defs>
        <rect id="path-1" x="0" y="0" width="35" height="22" rx="2"></rect>
    </defs>
    <g fill-rule="evenodd" >
        <g transform="translate(-88.000000, 0.000000)">
            <g transform="translate(88.000000, 0.000000)">
                <g>
                    <use fill="#004593" fill-rule="evenodd" xlink:href="#path-1"></use>
                    <use fill="none" xlink:href="#path-1"></use>
                </g>
                <g transform="translate(5.000000, 3.000000)" >
                    <g transform="translate(0.000000, 0.500000)">
                        <path d="M12.5929797,13.0525352 C13.905439,14.2571303 15.6463733,14.9916021 17.5561744,14.9916021 C21.6403737,14.9916021 24.9505023,11.6372535 24.9505023,7.49973592 C24.9505023,3.36274648 21.6403737,0.00839788732 17.5561744,0.00839788732 C15.6463733,0.00839788732 13.905439,0.742869718 12.5929797,1.94746479 C11.1002652,3.3175088 10.161951,5.2977993 10.161951,7.49973592 C10.161951,9.70119718 11.1002652,11.6814877 12.5929797,13.0525352" fill="#D82332"></path>
                        <path fill="#F8971D"></path>
                        <path d="M14.982608,6.70661092 C14.9548162,6.43777289 14.9125799,6.17292254 14.8575186,5.91401408 L10.3290677,5.91401408 C10.3867149,5.64322183 10.4584669,5.37882042 10.5437492,5.12044014 L14.6427326,5.12044014 C14.553036,4.84859155 14.4485815,4.58368838 14.3296303,4.32728873 L10.8584448,4.32728873 C10.984997,4.0525088 11.1282921,3.78860915 11.2854571,3.53368838 L13.90348,3.53368838 C13.7324452,3.256875 13.5439361,2.99202465 13.3394676,2.74056338 L11.8477456,2.74056338 C12.0772895,2.45833627 12.3259534,2.19295775 12.5933454,1.94696303 C11.2810167,0.742896127 9.54005626,0.00839788732 7.62954993,0.00839788732 C3.54595138,0.00839788732 0.235352622,3.36221831 0.235352622,7.50026408 C0.235352622,11.6372535 3.54595138,14.9911268 7.62954993,14.9911268 C9.54005626,14.9911268 11.2810167,14.2571039 12.5933454,13.0525352 C12.8602411,12.8065669 13.1101849,12.5416637 13.3394676,12.259463 L11.8477456,12.259463 C11.6435122,12.0079754 11.4563613,11.7425968 11.2854571,11.4658363 L13.90348,11.4658363 C14.0605144,11.2108891 14.2028431,10.9465405 14.3296303,10.6727113 L10.8584448,10.6727113 C10.7397288,10.4157835 10.6333414,10.1514085 10.5437492,9.87955986 L14.6427326,9.87955986 C14.7277537,9.62070423 14.8002632,9.35632923 14.8575186,9.08598592 C14.9125799,8.82607394 14.9548162,8.56169894 14.982608,8.29286092 C15.0101386,8.03244718 15.0238778,7.76762324 15.0238778,7.50026408 C15.0238778,7.23190141 15.0101386,6.96702465 14.982608,6.70661092" fill="#0092C7"></path>
                        <path fill="#FFFFFF"></path>
                    </g>
                </g>
                <g transform="translate(7.000000, 8.000000)">
                    <path d="M4.32806634,4.77525755 L3.41671518,4.77525755 L3.95783464,1.86632898 L2.71886079,4.77525755 L1.94979062,4.77525755 L1.79305568,1.88100962 L1.19502383,4.77525755 L0.3688907,4.77525755 L1.06689565,0.989354396 L2.50521346,0.989354396 L2.51951684,3.32790179 L3.51638716,0.989354396 L5.04022412,0.989354396 L4.32806634,4.77525755" fill="#0B2D5A"></path>
                    <path d="M14.4396528,4.73137019 C14.1832459,4.80446429 13.9982053,4.83367102 13.784558,4.83367102 C13.3288071,4.83367102 13.0724002,4.59986264 13.0724002,4.16129808 C13.0724002,4.07352335 13.0867036,3.97106799 13.101007,3.88360234 L13.1579194,3.57669986 L13.2006789,3.34273695 L13.6136702,0.989354396 L14.5108686,0.989354396 L14.3828909,1.69093407 L14.8384912,1.69093407 L14.7245159,2.4364011 L14.2546122,2.4364011 L14.0125087,3.72273352 C14.0125087,3.78130151 13.9982053,3.82503434 13.9982053,3.85424107 C13.9982053,4.01510989 14.0978773,4.07352335 14.3115246,4.07352335 C14.4111966,4.07352335 14.4965652,4.07352335 14.5536281,4.04447115 L14.4396528,4.73137019" fill="#0B2D5A"></path>
                    <path d="M10.8508594,2.67036401 C10.8508594,3.05020604 11.0643562,3.32790179 11.5344104,3.51813187 C11.9189455,3.67900069 11.9758579,3.72273352 11.9758579,3.86876717 C11.9758579,4.05899725 11.8049701,4.14677198 11.4488913,4.14677198 C11.1640282,4.14677198 10.9220752,4.10273008 10.6229087,4.01510989 L10.4947805,4.73137019 L10.5373895,4.73137019 L10.7084279,4.76073146 C10.7653402,4.77525755 10.836556,4.78962912 10.9505314,4.78962912 C11.1640282,4.80446429 11.3350665,4.81899038 11.4488913,4.81899038 C12.4174559,4.81899038 12.8587529,4.49756181 12.8587529,3.79582761 C12.8587529,3.37194368 12.6737123,3.12330014 12.218112,2.93353365 C11.8335769,2.7870364 11.7908173,2.74330357 11.7908173,2.59726992 C11.7908173,2.4364011 11.9475523,2.34862637 12.2322648,2.34862637 C12.4174559,2.34862637 12.6594089,2.36330701 12.901663,2.39251374 L13.0297912,1.69093407 C12.7876877,1.6470467 12.4317593,1.61783997 12.218112,1.61783997 C11.1926349,1.61783997 10.836556,2.1002919 10.8508594,2.67036401" fill="#0B2D5A"></path>
                    <path d="M7.26191547,4.77525755 L6.50714868,4.77525755 L6.52145206,4.45367445 C6.29350135,4.70216346 5.98018204,4.81899038 5.56719076,4.81899038 C5.0829837,4.81899038 4.74105763,4.48272665 4.74105763,3.98590316 C4.74105763,3.24043613 5.32508723,2.80187157 6.33626093,2.80187157 C6.4359329,2.80187157 6.56406108,2.80187157 6.70649263,2.81639766 C6.73494883,2.71425137 6.73494883,2.67036401 6.73494883,2.62647665 C6.73494883,2.42172047 6.57836446,2.33410027 6.15106979,2.33410027 C5.89481344,2.33410027 5.60995033,2.37798764 5.41045582,2.42172047 L5.28232765,2.46560783 L5.19680849,2.48028846 L5.32508723,1.79323489 C5.78083809,1.66172734 6.07985402,1.61783997 6.4074767,1.61783997 C7.19069969,1.61783997 7.60369097,1.93942308 7.60369097,2.52417582 C7.60369097,2.68489011 7.58953816,2.7870364 7.51832238,3.1381353 L7.33313125,4.21986607 L7.30467505,4.42446772 L7.27606829,4.58502747 L7.26191547,4.6873283 L7.26191547,4.77525755 L7.26191547,4.77525755 Z M6.64958023,3.40130495 C6.54990826,3.38646978 6.50714868,3.38646978 6.4359329,3.38646978 C5.92311908,3.38646978 5.66686273,3.5473386 5.66686273,3.85424107 C5.66686273,4.04447115 5.79499091,4.16129808 5.99448542,4.16129808 C6.36471712,4.16129808 6.63527685,3.85424107 6.64958023,3.40130495 L6.64958023,3.40130495 Z" fill="#0B2D5A"></path>
                    <path d="M10.2242208,4.70216346 C9.9250543,4.78962912 9.62603838,4.83367102 9.29841569,4.83367102 C8.28739255,4.83367102 7.76042591,4.35137363 7.76042591,3.44503777 C7.76042591,2.39251374 8.42967354,1.61783997 9.34117527,1.61783997 C10.0960926,1.61783997 10.5659963,2.05640453 10.5659963,2.72877747 C10.5659963,2.96274038 10.5373895,3.18186813 10.4520209,3.4887706 L8.65762425,3.4887706 C8.64332087,3.5473386 8.64332087,3.5618647 8.64332087,3.59107143 C8.64332087,3.94217033 8.9138806,4.13193681 9.44084724,4.13193681 C9.76846993,4.13193681 10.053333,4.07352335 10.3808052,3.92733516 L10.2242208,4.70216346 L10.2242208,4.70216346 Z M9.79692613,2.87496566 L9.79692613,2.71425137 C9.79692613,2.46560783 9.64019119,2.31941964 9.36963146,2.31941964 C9.08491892,2.31941964 8.87127159,2.50949519 8.78575243,2.87496566 L9.79692613,2.87496566 L9.79692613,2.87496566 Z" fill="#0B2D5A"></path>
                    <path d="M19.8799058,3.37194368 C19.7519282,4.39510646 19.0540738,4.84819712 18.1282687,4.84819712 C17.1029422,4.84819712 16.6899509,4.21986607 16.6899509,3.43051168 C16.6899509,2.34862637 17.3878053,1.60331387 18.4700442,1.60331387 C19.4100021,1.60331387 19.9085126,2.21711882 19.9085126,2.99194712 C19.9085126,3.18186813 19.9085126,3.1967033 19.8799058,3.37194368 L19.8799058,3.37194368 Z M18.9684041,3.00647321 C18.9684041,2.68489011 18.8404265,2.37798764 18.4700442,2.37798764 C18.0144439,2.37798764 17.7152774,2.94790522 17.7152774,3.43051168 C17.7152774,3.85424107 17.9146214,4.13193681 18.2420935,4.13193681 C18.441588,4.13193681 18.8545793,3.85424107 18.9400984,3.37194368 C18.9544018,3.26964286 18.9684041,3.1381353 18.9684041,3.00647321 L18.9684041,3.00647321 Z" fill="#0B2D5A"></path>
                    <path fill="#FFFFFF"></path>
                    <path d="M4.55601706,4.55612981 L3.64451533,4.55612981 L4.18563479,1.6470467 L2.94666094,4.55612981 L2.12067837,4.55612981 L1.97824682,1.66172734 L1.43712736,4.55612981 L0.611144792,4.55612981 L1.30899918,0.770072115 L2.73316417,0.770072115 L2.80422938,3.10877404 L3.80125027,0.770072115 L5.26802427,0.770072115 L4.55601706,4.55612981" fill="#FFFFFF"></path>
                    <path d="M14.6676035,4.51193338 C14.4111966,4.58502747 14.2260055,4.6142342 14.0125087,4.6142342 C13.5567578,4.6142342 13.3003509,4.38042582 13.3003509,3.94217033 C13.3003509,3.85424107 13.3146543,3.76646635 13.3288071,3.66416552 L13.3857195,3.35726305 L13.4286296,3.12330014 L13.8416209,0.770072115 L14.7388193,0.770072115 L14.6105405,1.47165179 L15.0805948,1.47165179 L14.9524666,2.21711882 L14.4825629,2.21711882 L14.2546122,3.50360577 C14.2403088,3.5618647 14.2260055,3.60590659 14.2260055,3.63495879 C14.2260055,3.79582761 14.325828,3.86876717 14.5393248,3.86876717 C14.6391473,3.86876717 14.7245159,3.85424107 14.7814283,3.83956044 L14.6676035,4.51193338" fill="#FFFFFF"></path>
                    <path d="M16.9889668,2.36330701 L16.9746634,2.26100618 L17.1455512,1.77855426 C17.1029422,1.77855426 17.0886388,1.77855426 17.0743354,1.76402816 C17.0317264,1.76402816 17.0032702,1.74934753 17.0032702,1.74934753 L16.917751,1.74934753 C16.6187351,1.74934753 16.4050878,1.88100962 16.1200741,2.24648008 L16.2198967,1.69093407 L15.2799387,1.69093407 L14.7245159,4.77525755 L15.6217142,4.77525755 C15.749993,4.05899725 15.8069054,3.66416552 15.8781211,3.32790179 C15.9920965,2.7725103 16.3907844,2.52417582 16.6899509,2.58258929 C16.7182565,2.58258929 16.7468633,2.58258929 16.7896229,2.59726992 L16.8465353,2.62647665 L16.9889668,2.36330701" fill="#0B2D5A"></path>
                    <path d="M17.3022861,1.50101305 C17.2310704,1.47165179 17.2169175,1.47165179 17.2026142,1.47165179 C17.1598546,1.45697115 17.1312478,1.45697115 17.1312478,1.44244505 L17.0317264,1.44244505 C16.7325599,1.44244505 16.5190631,1.57395261 16.2483529,1.93942308 L16.3337214,1.47165179 L15.5078894,1.47165179 L14.9524666,4.55612981 L15.8638178,4.55612981 C16.1914405,2.67036401 16.3195686,2.33410027 16.7610161,2.33410027 C16.7896229,2.33410027 16.8322319,2.34862637 16.8749915,2.34862637 L16.9746634,2.37798764 L17.3022861,1.50101305" fill="#FFFFFF"></path>
                    <path d="M11.0786596,2.45108173 C11.0786596,2.8310783 11.2923069,3.10877404 11.776514,3.29900412 C12.1467457,3.45956387 12.2038086,3.50360577 12.2038086,3.64963942 C12.2038086,3.83956044 12.0329209,3.92733516 11.676842,3.92733516 C11.4062822,3.92733516 11.1498753,3.88360234 10.8508594,3.79582761 L10.7368841,4.51193338 L10.7796436,4.51193338 L10.936228,4.55612981 C10.993291,4.55612981 11.0786596,4.57050137 11.1783315,4.57050137 C11.3919789,4.59986264 11.5628666,4.59986264 11.6911454,4.59986264 C12.6451055,4.59986264 13.101007,4.278125 13.101007,3.57669986 C13.101007,3.1526614 12.9158158,2.90417239 12.4459121,2.71425137 C12.0612265,2.56806319 12.0186175,2.52417582 12.0186175,2.37798764 C12.0186175,2.21711882 12.1752019,2.12949863 12.4743683,2.12949863 C12.6451055,2.12949863 12.901663,2.14417926 13.1294632,2.17338599 L13.2575913,1.47165179 C13.0154878,1.42776442 12.6594089,1.41323832 12.460065,1.41323832 C11.4347384,1.41323832 11.0786596,1.88100962 11.0786596,2.45108173" fill="#FFFFFF"></path>
                    <path d="M7.48986618,4.55612981 L6.74925221,4.55612981 L6.76355559,4.23423764 C6.53560488,4.48272665 6.22228557,4.59986264 5.80929429,4.59986264 C5.32508723,4.59986264 4.98331172,4.2635989 4.98331172,3.76646635 C4.98331172,3.02099931 5.56719076,2.58258929 6.57836446,2.58258929 C6.67803643,2.58258929 6.80616461,2.58258929 6.94859616,2.59726992 C6.97705236,2.49481456 6.97705236,2.45108173 6.97705236,2.40719437 C6.97705236,2.20259272 6.82031742,2.12949863 6.39317332,2.12949863 C6.13676641,2.12949863 5.8519033,2.15870536 5.65270991,2.20259272 L5.52443118,2.24648008 L5.43906258,2.26100618 L5.56719076,1.57395261 C6.02294162,1.45697115 6.30765417,1.41323832 6.64958023,1.41323832 C7.43280322,1.41323832 7.83149112,1.7201408 7.83149112,2.30489354 C7.83149112,2.46560783 7.81733831,2.58258929 7.76042591,2.91869849 L7.57523478,4.01510989 L7.54677858,4.20503091 L7.51832238,4.36589973 L7.504019,4.46820055 L7.48986618,4.55612981 L7.48986618,4.55612981 Z M6.8346208,3.18186813 C6.73494883,3.16734203 6.69218925,3.16734203 6.63527685,3.16734203 C6.12261359,3.16734203 5.86620668,3.32790179 5.86620668,3.63495879 C5.86620668,3.82503434 5.98018204,3.95669643 6.17952599,3.95669643 C6.54990826,3.95669643 6.82031742,3.63495879 6.8346208,3.18186813 L6.8346208,3.18186813 Z" fill="#FFFFFF"></path>
                    <path d="M10.4663243,4.48272665 C10.153005,4.57050137 9.85383853,4.6142342 9.54051922,4.6142342 C8.52949608,4.6142342 8.00252944,4.13193681 8.00252944,3.22560096 C8.00252944,2.17338599 8.67177707,1.39855769 9.58342936,1.39855769 C10.3238928,1.39855769 10.7937964,1.83712225 10.7937964,2.50949519 C10.7937964,2.74330357 10.7653402,2.96274038 10.6941245,3.26964286 L8.8854244,3.26964286 L8.8854244,3.37194368 C8.8854244,3.72273352 9.14183131,3.91280907 9.66879795,3.91280907 C9.99627008,3.91280907 10.2954366,3.85424107 10.6086053,3.72273352 L10.4663243,4.48272665 L10.4663243,4.48272665 Z M9.98211726,2.65568338 L9.98211726,2.49481456 C9.98211726,2.24648008 9.82538233,2.1002919 9.5548226,2.1002919 C9.26995949,2.1002919 9.07061554,2.30489354 8.98509638,2.65568338 L9.98211726,2.65568338 L9.98211726,2.65568338 Z" fill="#FFFFFF"></path>
                    <path d="M20.1221599,3.1526614 C19.9797283,4.17582418 19.281874,4.62906937 18.3560688,4.62906937 C17.3448951,4.62906937 16.9319039,4.00042926 16.9319039,3.21107486 C16.9319039,2.12949863 17.6299088,1.38403159 18.7121477,1.38403159 C19.6522562,1.38403159 20.1506161,1.99783654 20.1506161,2.7725103 C20.1506161,2.96274038 20.1506161,2.97726648 20.1221599,3.1526614 L20.1221599,3.1526614 Z M19.1820514,2.75813874 C19.1820514,2.4364011 19.0540738,2.14417926 18.6836915,2.14417926 C18.2280912,2.14417926 17.9432281,2.69957074 17.9432281,3.1967033 C17.9432281,3.60590659 18.1425721,3.88360234 18.4558914,3.88360234 C18.6552353,3.88360234 19.0823794,3.60590659 19.1537458,3.1381353 C19.1820514,3.02099931 19.1820514,2.88964629 19.1820514,2.75813874 L19.1820514,2.75813874 Z" fill="#FFFFFF"></path>
                </g>
            </g>
        </g>
    </g>
</svg>