<svg width="35px" height="22px" viewBox="0 0 35 22" version="1.1" xmlns="http://www.w3.org/2000/svg" xmlns:xlink="http://www.w3.org/1999/xlink">
    <defs>
        <rect id="path-1" x="0" y="0" width="35" height="22" rx="2"></rect>
    </defs>
    <g fill-rule="evenodd">
        <g>
            <use fill="#004593" fill-rule="evenodd" xlink:href="#path-1"></use>
            <use fill="none" xlink:href="#path-1"></use>
        </g>
        <g transform="translate(5.000000, 3.000000)">
            <g transform="translate(0.000000, 0.500000)">
                <path d="M12.5929797,13.0525352 C13.905439,14.2571303 15.6463733,14.9916021 17.5561744,14.9916021 C21.6403737,14.9916021 24.9505023,11.6372535 24.9505023,7.49973592 C24.9505023,3.36274648 21.6403737,0.00839788732 17.5561744,0.00839788732 C15.6463733,0.00839788732 13.905439,0.742869718 12.5929797,1.94746479 C11.1002652,3.3175088 10.161951,5.2977993 10.161951,7.49973592 C10.161951,9.70119718 11.1002652,11.6814877 12.5929797,13.0525352" fill="#F8971D"></path>
                <path fill="#F8971D"></path>
                <path d="M14.982608,6.70661092 C14.9548162,6.43777289 14.9125799,6.17292254 14.8575186,5.91401408 L10.3290677,5.91401408 C10.3867149,5.64322183 10.4584669,5.37882042 10.5437492,5.12044014 L14.6427326,5.12044014 C14.553036,4.84859155 14.4485815,4.58368838 14.3296303,4.32728873 L10.8584448,4.32728873 C10.984997,4.0525088 11.1282921,3.78860915 11.2854571,3.53368838 L13.90348,3.53368838 C13.7324452,3.256875 13.5439361,2.99202465 13.3394676,2.74056338 L11.8477456,2.74056338 C12.0772895,2.45833627 12.3259534,2.19295775 12.5933454,1.94696303 C11.2810167,0.742896127 9.54005626,0.00839788732 7.62954993,0.00839788732 C3.54595138,0.00839788732 0.235352622,3.36221831 0.235352622,7.50026408 C0.235352622,11.6372535 3.54595138,14.9911268 7.62954993,14.9911268 C9.54005626,14.9911268 11.2810167,14.2571039 12.5933454,13.0525352 C12.8602411,12.8065669 13.1101849,12.5416637 13.3394676,12.259463 L11.8477456,12.259463 C11.6435122,12.0079754 11.4563613,11.7425968 11.2854571,11.4658363 L13.90348,11.4658363 C14.0605144,11.2108891 14.2028431,10.9465405 14.3296303,10.6727113 L10.8584448,10.6727113 C10.7397288,10.4157835 10.6333414,10.1514085 10.5437492,9.87955986 L14.6427326,9.87955986 C14.7277537,9.62070423 14.8002632,9.35632923 14.8575186,9.08598592 C14.9125799,8.82607394 14.9548162,8.56169894 14.982608,8.29286092 C15.0101386,8.03244718 15.0238778,7.76762324 15.0238778,7.50026408 C15.0238778,7.23190141 15.0101386,6.96702465 14.982608,6.70661092" fill="#CA1F27"></path>
                <path fill="#FFFFFF"></path>
                <path d="M10.0802471,9.66340669 C9.83252361,9.73346831 9.66125377,9.76383803 9.47540888,9.76383803 C9.10066305,9.76383803 8.86780189,9.52476232 8.86780189,9.08548415 C8.86780189,8.99852113 8.87555957,8.90609155 8.89141451,8.80816901 L8.94018083,8.50605634 L8.97753265,8.2615669 L9.32623669,6.15256162 L10.0965984,6.15256162 L10.0049166,6.61119718 L10.486964,6.61119718 L10.3738115,7.39090669 L9.89014467,7.39090669 L9.68238497,8.65214789 C9.67240707,8.70879401 9.66812337,8.7515757 9.66812337,8.77988556 C9.66812337,8.9393662 9.75118545,9.00897887 9.94201929,9.00897887 C10.0329435,9.00897887 10.1044605,8.99952465 10.1866606,8.97961268 L10.0802471,9.66340669" fill="#221F5F"></path>
                <path d="M12.5579787,9.63462148 C12.2832208,9.71955106 12.0176572,9.75982394 11.7360036,9.75982394 C10.877617,9.75982394 10.3718525,9.28476232 10.3718525,8.37586268 C10.3718525,7.31537852 10.9668174,6.5346919 11.7733554,6.5346919 C12.434352,6.5346919 12.8560619,6.97101232 12.8560619,7.65779049 C12.8560619,7.88487676 12.8268334,8.10699824 12.7574061,8.42007042 L11.1623267,8.42007042 C11.1562668,8.46829225 11.1543339,8.48915493 11.1543339,8.51698944 C11.1543339,8.87527289 11.3927064,9.05865317 11.8586639,9.05865317 C12.1452019,9.05865317 12.4038698,8.99804577 12.6921579,8.86286092 L12.5579787,9.63462148 M12.0798232,7.79643486 C12.0846554,7.73231514 12.0870846,7.67965669 12.0870846,7.63888204 C12.0870846,7.3884243 11.9464014,7.24085387 11.707402,7.24085387 C11.4524171,7.24085387 11.269576,7.438125 11.1952642,7.79442782 L12.0798232,7.79643486" fill="#221F5F"></path>
                <path d="M3.95326904,9.70167254 L3.15038778,9.70167254 L3.60944947,6.78071303 L2.58405063,9.70167254 L2.03685955,9.70167254 L1.9693912,6.79758803 L1.48637734,9.70167254 L0.706586297,9.70167254 L1.33461925,5.90162852 L2.48905164,5.90162852 L2.52099658,8.25411972 L3.29969058,5.90162852 L4.56986136,5.90162852 L3.95326904,9.70167254" fill="#221F5F"></path>
                <path d="M5.88124975,8.32515845 C5.7970645,8.31475352 5.78081776,8.31227113 5.72322282,8.31227113 C5.26818364,8.31227113 5.03756882,8.48915493 5.03756882,8.78236796 C5.03756882,8.9746743 5.15038176,9.09739437 5.3258047,9.09739437 C5.71387181,9.09739437 5.86751055,8.78183979 5.88124975,8.32515845 M6.51515973,9.70167254 L5.821304,9.70167254 L5.83603576,9.38115317 C5.66022102,9.62268486 5.42276271,9.75435739 4.99491461,9.75435739 C4.60663854,9.75435739 4.28175608,9.41096831 4.28175608,8.91108275 C4.28175608,8.76396127 4.3087382,8.6303081 4.34131003,8.50705986 C4.46728752,8.0334507 4.94207354,7.72983275 5.67100864,7.71940141 C5.76216797,7.71839789 5.90496685,7.71641725 6.0240225,7.73181338 C6.04972473,7.63043134 6.05609805,7.58669894 6.05609805,7.53153169 C6.05609805,7.32678697 5.8897388,7.26221831 5.51483625,7.26221831 C5.28586699,7.26221831 5.02931485,7.30299296 4.85002612,7.35517606 L4.73919831,7.38742077 L4.69236488,7.40088908 L4.80321881,6.70613556 C5.17911392,6.59086268 5.44047217,6.54216549 5.73696203,6.54216549 C6.42595941,6.54216549 6.79104079,6.85621479 6.79104079,7.44855634 C6.79104079,7.60111796 6.80616436,7.71641725 6.75293148,8.06078345 L6.58505726,9.15652289 L6.55757886,9.35382042 L6.53683946,9.51039613 L6.52239502,9.61769366 L6.51515973,9.70167254" fill="#221F5F"></path>
                <path d="M16.4185634,6.64003521 C16.6417079,6.64003521 16.8500944,6.69916373 17.1356922,6.84528169 L17.2671549,6.02036092 C17.1958991,5.99054577 17.1752642,5.98209507 17.0732389,5.94580986 L16.7442033,5.86183099 C16.642178,5.83600352 16.5220514,5.82256162 16.3846333,5.82256162 C15.9862749,5.82256162 15.7523167,5.82755282 15.511959,5.97662852 C15.381959,6.05712148 15.220223,6.17490317 15.0327326,6.3831338 L14.9380993,6.35379401 L14.1202512,6.94267606 L14.1595881,6.61119718 L13.3085152,6.61119718 L12.8194414,9.70167254 L13.6223227,9.70167254 L13.9152863,8.03794014 C13.9152863,8.03794014 14.029562,7.81085387 14.0826381,7.73976232 C14.2305827,7.53800176 14.361079,7.53652289 14.5279345,7.54196303 C14.5485955,7.54299296 14.5761523,7.54346831 14.5856862,7.54399648 C14.5613683,7.72433979 14.5490918,7.9196831 14.5490918,8.13089789 C14.5490918,9.14165493 15.1155335,9.77075704 15.9798754,9.77075704 C16.2023146,9.77075704 16.3929918,9.74144366 16.688907,9.65994718 L16.8304521,8.79377641 C16.5637914,8.9259507 16.3462889,8.98909331 16.1482198,8.98909331 C15.6817922,8.98909331 15.3996424,8.64026408 15.3996424,8.06329225 C15.3996424,7.22643486 15.8196544,6.64003521 16.4185634,6.64003521" fill="#221F5F"></path>
                <path d="M23.2006872,5.90207746 L23.0244806,6.98691021 C22.8313743,6.6947007 22.601308,6.55360035 22.2901909,6.55360035 C21.8684549,6.55360035 21.4823729,6.79806338 21.2361121,7.25426937 L21.2383323,7.24977993 L20.7283886,6.94267606 L20.7677517,6.61119718 L19.9164175,6.61119718 L19.4271087,9.7022007 L20.22999,9.7022007 L20.4953968,8.03891725 C20.4953968,8.03891725 20.7013803,7.8068662 20.7544304,7.73582746 C20.8726502,7.57875 21.0041129,7.5484331 21.1105787,7.54101232 C21.0181656,7.80237676 20.9648282,8.11101232 20.9648282,8.45933979 C20.9648282,9.2315757 21.3616978,9.74242077 21.9454049,9.74242077 C22.2398051,9.74242077 22.4673639,9.63757923 22.6870605,9.3990581 L22.6475407,9.7022007 L23.4076371,9.7022007 L24.0188487,5.90207746 L23.2006872,5.90207746 M22.2231143,8.97417254 C21.9498192,8.97417254 21.8119309,8.76942782 21.8119309,8.36490317 C21.8119309,7.75769366 22.0699719,7.32631162 22.4344264,7.32631162 C22.7106992,7.32631162 22.8603416,7.53900528 22.8603416,7.93206866 C22.8603416,8.5452993 22.59739,8.97417254 22.2231143,8.97417254" fill="#221F5F"></path>
                <path d="M18.5263814,8.32515845 C18.4421439,8.31475352 18.425871,8.31227113 18.3688768,8.31227113 C17.9137071,8.31227113 17.6832228,8.48915493 17.6832228,8.78236796 C17.6832228,8.9746743 17.7955395,9.09739437 17.9710147,9.09739437 C18.3590818,9.09739437 18.5131384,8.78183979 18.5263814,8.32515845 M19.1602391,9.70167254 L18.4664356,9.70167254 L18.4816637,9.38115317 C18.3059795,9.62268486 18.067816,9.75435739 17.640438,9.75435739 C17.2524231,9.75435739 16.899775,9.41796655 16.9031967,8.90759683 C16.9081073,8.17262324 17.4494997,7.71940141 18.316297,7.71940141 C18.4079787,7.71940141 18.5500201,7.71641725 18.6696765,7.73181338 C18.6949869,7.63043134 18.7019088,7.58669894 18.7019088,7.53153169 C18.7019088,7.32678697 18.5352883,7.26221831 18.1604641,7.26221831 C17.9316777,7.26221831 17.6750995,7.30299296 17.4956801,7.35517606 L17.3848523,7.38742077 L17.3381756,7.40088908 L17.4494997,6.70613556 C17.8247941,6.59086268 18.0857605,6.54216549 18.382172,6.54216549 C19.071744,6.54216549 19.4366948,6.85621479 19.4366948,7.44855634 C19.4366948,7.60111796 19.4514266,7.71641725 19.3986116,8.06078345 L19.2307635,9.15652289 L19.2027366,9.35382042 L19.1823367,9.51039613 L19.1680751,9.61769366 L19.1602391,9.70167254" fill="#221F5F"></path>
                <path d="M8.18818164,7.27267606 C8.34568616,7.27161972 8.56049829,7.28807218 8.7913482,7.3193662 L8.90614627,6.60578345 C8.67082982,6.56997359 8.37183243,6.54364437 8.1891742,6.54364437 C7.29176411,6.54364437 6.99637131,7.02863556 6.99637131,7.59863556 C6.99637131,7.96637324 7.17255174,8.24168134 7.59567209,8.44444542 C7.92076351,8.59896127 7.97579867,8.62732394 7.97579867,8.76744718 C7.97579867,8.96028169 7.81079767,9.06908451 7.49364678,9.06908451 C7.2544123,9.06908451 7.03176411,9.03132042 6.77518585,8.94681338 L6.68214587,9.65696303 L6.70022102,9.66145246 L6.84709464,9.69274648 C6.89390195,9.70264965 6.96526221,9.71458627 7.05793651,9.72353873 C7.24853526,9.73993838 7.40901748,9.75137324 7.51297569,9.75137324 C8.40382962,9.75137324 8.77173197,9.40154049 8.77173197,8.72022887 C8.77173197,8.29584507 8.57227848,8.04689261 8.17096845,7.86052817 C7.83501105,7.70347711 7.79457705,7.68166373 7.7960659,7.53800176 C7.79815552,7.39589789 7.94340968,7.27412852 8.18818164,7.27267606" fill="#221F5F"></path>
                <path d="M17.4844223,5.78133803 L17.3529074,6.60578345 C17.0666044,6.46016725 16.858479,6.40103873 16.636301,6.40103873 C16.0363994,6.40103873 15.6163874,6.98791373 15.6163874,7.82376761 C15.6163874,8.40121479 15.8990336,8.74951585 16.3654872,8.74951585 C16.5627989,8.74951585 16.781529,8.68742958 17.0474583,8.55475352 L16.9061222,9.42044894 C16.6102853,9.50242077 16.4195298,9.53173415 16.1969078,9.53173415 C15.333271,9.53173415 14.7943339,8.90257923 14.7943339,7.89182218 C14.7943339,6.53321303 15.5380008,5.58356514 16.6023709,5.58356514 C16.7387965,5.58356514 16.8594716,5.59698063 16.9614446,5.62283451 L17.2905324,5.70681338 C17.3922443,5.74357394 17.4133755,5.75202465 17.4844223,5.78133803" fill="#FFFFFF"></path>
                <path d="M14.9081394,6.34634683 C14.8840567,6.34138204 14.8570223,6.33889965 14.8272714,6.33889965 C14.5643199,6.33889965 14.4141551,6.47553697 14.1683906,6.84081866 L14.2389411,6.3722007 L13.5129576,6.3722007 L13.0234137,9.46315141 L13.8265562,9.46315141 C14.1133554,7.57278169 14.1895479,7.24682218 14.5744023,7.24682218 C14.5994515,7.24682218 14.6012015,7.24629401 14.6333816,7.25078345 C14.7046635,6.87710387 14.8031887,6.60327465 14.9380993,6.35379401 L14.9081394,6.34634683" fill="#FFFFFF"></path>
                <path d="M10.2842194,9.42441021 C10.0638959,9.49497359 9.89312236,9.52478873 9.70759092,9.52478873 C9.29726944,9.52478873 9.07315853,9.28526408 9.07315853,8.84643486 C9.07315853,8.75947183 9.08096845,8.66659331 9.09671891,8.56914613 L9.14564195,8.26650528 L9.18299377,8.02204225 L9.53125377,5.91353873 L10.3290938,5.91353873 L10.2369158,6.3722007 L10.6467149,6.3722007 L10.5363834,7.1240757 L10.124991,7.1240757 L9.91388788,8.41315141 C9.90404059,8.46929577 9.90009644,8.51202465 9.90009644,8.54083627 C9.90009644,8.70036972 9.98279285,8.76942782 10.1737312,8.76942782 C10.265439,8.76942782 10.3358067,8.76047535 10.3905284,8.74058979 L10.2842194,9.42441021" fill="#FFFFFF"></path>
                <path d="M7.20068314,7.34867958 C7.20068314,7.73976232 7.38772956,8.008125 7.81092827,8.21086268 C8.13544505,8.36543134 8.18559574,8.41064261 8.18559574,8.55076585 C8.18559574,8.74357394 8.04292747,8.83056338 7.72567209,8.83056338 C7.48688166,8.83056338 7.26425959,8.79229754 7.00765521,8.7078169 L6.89682741,9.42089789 L6.9327165,9.42786972 L7.07956399,9.45919014 C7.12671087,9.46911972 7.19715692,9.47804577 7.28930882,9.48602113 C7.47990757,9.50339789 7.62712076,9.511875 7.73107896,9.511875 C8.57671891,9.511875 8.96771147,9.18586268 8.96771147,8.48120599 C8.96771147,8.05682218 8.80427768,7.80837148 8.40234077,7.62100352 C8.06651396,7.46448063 8.02756882,7.4296743 8.02756882,7.28606514 C8.02756882,7.11908451 8.16112116,7.03362676 8.42015471,7.03362676 C8.57731967,7.03362676 8.79234077,7.05105634 8.99584288,7.08034331 L9.11048423,6.36472711 C8.90269841,6.33142606 8.58800281,6.30411972 8.40479606,6.30411972 C7.50840466,6.30411972 7.19828009,6.77920775 7.20068314,7.34867958" fill="#FFFFFF"></path>
                <path d="M23.6123669,9.46315141 L22.8534459,9.46315141 L22.893044,9.15953345 C22.6723287,9.39808099 22.4447699,9.50292254 22.1503175,9.50292254 C21.5666888,9.50292254 21.181077,8.99308099 21.181077,8.22034331 C21.181077,7.19213028 21.7792285,6.32498239 22.4870323,6.32498239 C22.7988809,6.32498239 23.0362869,6.45520246 23.2559835,6.74838908 L23.4317199,5.66308099 L24.2235262,5.66308099 L23.6123669,9.46315141 M22.428053,8.73512324 C22.8023287,8.73512324 23.0653064,8.30527289 23.0653064,7.69304577 C23.0653064,7.3000088 22.9161342,7.08728873 22.6398875,7.08728873 C22.2747016,7.08728873 22.0166606,7.5181162 22.0166606,8.12590669 C22.0166606,8.52992958 22.154784,8.73512324 22.428053,8.73512324" fill="#FFFFFF"></path>
                <path d="M12.7358047,9.39507042 C12.4610468,9.48052817 12.1945951,9.52180458 11.9138557,9.52080106 C11.0164718,9.5202993 10.54913,9.04571303 10.54913,8.13681338 C10.54913,7.07585387 11.1439904,6.29516725 11.9508158,6.29516725 C12.6121519,6.29516725 13.0337573,6.7324912 13.0337573,7.4187412 C13.0337573,7.64635563 13.0047639,7.8684507 12.9347358,8.18104754 L11.3396303,8.18104754 C11.3337271,8.22879401 11.3321338,8.24965669 11.3321338,8.27746479 C11.3321338,8.63677817 11.57001,8.81963028 12.0354973,8.81963028 C12.3225316,8.81963028 12.5811734,8.75947183 12.8693309,8.62330986 L12.7358047,9.39507042 M12.2851798,7.55741197 C12.2900904,7.49329225 12.2925457,7.44010563 12.2925457,7.39985915 C12.2925457,7.1484243 12.151732,7.00183099 11.9128371,7.00183099 C11.6572775,7.00183099 11.4750633,7.19910211 11.4005947,7.55543134 L12.2851798,7.55741197" fill="#FFFFFF"></path>
                <path d="M4.15750251,9.46264965 L3.35485634,9.46264965 L3.81480611,6.54166373 L2.7878923,9.46264965 L2.24122363,9.46264965 L2.17276271,6.55856514 L1.69021901,9.46264965 L0.938559373,9.46264965 L1.56648784,5.66257923 L2.72092023,5.66257923 L2.75299578,8.01507042 L3.53155917,5.66257923 L4.77816958,5.66257923 L4.15750251,9.46264965" fill="#FFFFFF"></path>
                <path d="M6.13388387,8.08566021 C6.04972473,8.07570423 6.01271248,8.07322183 5.95475186,8.07322183 C5.50007836,8.07322183 5.26967249,8.23175176 5.26967249,8.54334507 C5.26967249,8.73565141 5.38235483,8.85837148 5.55722925,8.85837148 C5.88420133,8.85837148 6.12024915,8.54279049 6.13388387,8.08566021 M6.71803496,9.46264965 L6.05265019,9.46264965 L6.06840064,9.14213028 C5.86502913,9.39554577 5.59418927,9.51586268 5.22680932,9.51586268 C4.7919349,9.51586268 4.49345992,9.17144366 4.49345992,8.67150528 C4.49345992,7.91918134 5.01249347,7.48088028 5.90287724,7.48088028 C5.99403657,7.48088028 6.11079365,7.48882923 6.22950974,7.50472711 C6.25502913,7.40236796 6.26142857,7.35913732 6.26142857,7.30397007 C6.26142857,7.09922535 6.12111111,7.02319542 5.74631304,7.02319542 C5.5178923,7.02319542 5.25885875,7.05596831 5.08043199,7.10865317 L4.96876833,7.14198063 L4.89685955,7.16136444 L5.00805304,6.46711268 C5.40792646,6.34785211 5.67197509,6.30314261 5.96838658,6.30314261 C6.65785413,6.30314261 7.0225437,6.6171919 7.0225437,7.20955986 C7.0225437,7.36161972 7.01063291,7.47739437 6.95740004,7.82178697 L6.78942134,8.91702465 L6.76178622,9.11482394 L6.7411513,9.27132042 L6.72688969,9.37869718 L6.71803496,9.46264965" fill="#FFFFFF"></path>
                <path d="M18.7797991,8.08566021 C18.6957444,8.07570423 18.6583665,8.07322183 18.6004059,8.07322183 C18.1457324,8.07322183 17.915222,8.23175176 17.915222,8.54334507 C17.915222,8.73565141 18.0280088,8.85837148 18.2030139,8.85837148 C18.5305867,8.85837148 18.7657726,8.54279049 18.7797991,8.08566021 M19.3637151,9.46264965 L18.6981997,9.46264965 L18.7141591,9.14213028 C18.5106831,9.39554577 18.2398433,9.51586268 17.8724633,9.51586268 C17.4377195,9.51586268 17.1391139,9.17144366 17.1391139,8.67150528 C17.1391139,7.91918134 17.657181,7.48088028 18.5485312,7.48088028 C18.6392465,7.48088028 18.7559514,7.48882923 18.8751638,7.50472711 C18.900213,7.40236796 18.9070826,7.35913732 18.9070826,7.30397007 C18.9070826,7.09922535 18.7667651,7.02319542 18.391967,7.02319542 C18.1629455,7.02319542 17.9043822,7.05596831 17.7262166,7.10865317 L17.6144223,7.14198063 L17.5426442,7.16136444 L17.6537071,6.46711268 C18.0538156,6.34785211 18.3177597,6.30314261 18.6141712,6.30314261 C19.3035081,6.30314261 19.6679626,6.6171919 19.6679626,7.20955986 C19.6679626,7.36161972 19.6556862,7.47739437 19.603054,7.82178697 L19.4352059,8.91702465 L19.4077014,9.11482394 L19.3725437,9.37869718 L19.3637151,9.46264965" fill="#FFFFFF"></path>
                <path d="M21.5165642,6.34634683 C21.4917239,6.34138204 21.465212,6.33889965 21.4361664,6.33889965 C21.1722222,6.33889965 21.0225799,6.47553697 20.7765803,6.84081866 L20.8471047,6.3722007 L20.1211473,6.3722007 L19.6320735,9.46315141 L20.4347197,9.46315141 C20.7224854,7.57278169 20.7976854,7.24682218 21.183036,7.24682218 C21.207615,7.24682218 21.2066486,7.24581866 21.2380972,7.24977993 C21.3100844,6.87710387 21.4086618,6.60327465 21.5435986,6.35379401 L21.5165642,6.34634683" fill="#FFFFFF"></path>
            </g>
        </g>
    </g>
</svg>