<svg width="33px" height="22px" viewBox="0 0 33 22" version="1.1" xmlns="http://www.w3.org/2000/svg" xmlns:xlink="http://www.w3.org/1999/xlink" >
    <g fill-rule="evenodd" >
        <rect fill="#FFFFFF" transform="translate(16.500000, 11.000000) scale(1, -1) translate(-16.500000, -11.000000) " x="0" y="4" width="33" height="14"></rect>
        <g transform="translate(3.561905, 6.285714)" fill="#1A1F71">
            <g transform="translate(0.938095, 0.714286)">
                <path d="M7.91989177,7.23482768 L9.03933522,0.154654762 L10.8313741,0.154654762 L9.70979912,7.23482768 L7.91989177,7.23482768"></path>
                <path d="M16.2076185,0.328798512 C15.8529153,0.185340179 15.2965933,0.0312026786 14.6018942,0.0312026786 C12.8321083,0.0312026786 11.585201,0.991525595 11.5740533,2.36815268 C11.5641418,3.38535476 12.4641897,3.95350476 13.1436273,4.29198393 C13.8412678,4.63891935 14.075733,4.86056935 14.0728342,5.17017351 C14.0678678,5.64505268 13.5154678,5.86134018 13.0002838,5.86134018 C12.2838434,5.86134018 11.9029227,5.75429643 11.3145855,5.4899756 L11.0839357,5.3776381 L10.8324185,6.96299018 C11.2503421,7.16064643 12.0241838,7.33167351 12.8279732,7.34012976 C14.711155,7.34012976 15.9330598,6.3912881 15.9471064,4.9210006 C15.9541403,4.11609851 15.4769397,3.5031006 14.4436302,2.99758185 C13.8172884,2.66975893 13.4332557,2.4512256 13.4373908,2.11939226 C13.4373908,1.8253256 13.7621251,1.51040476 14.4636663,1.51040476 C15.0489128,1.50061935 15.473849,1.6383256 15.8035497,1.78178393 L15.9650749,1.86352768 L16.2076185,0.328798512"></path>
                <path d="M20.8010689,0.161323512 L19.4170421,0.161323512 C18.9879495,0.161323512 18.6671372,0.287502679 18.4787337,0.748586012 L15.8185981,7.23748601 L17.6999469,7.23748601 C17.6999469,7.23748601 18.0067126,6.36509435 18.0769456,6.1736256 C18.2822732,6.1736256 20.1094818,6.17671935 20.3709745,6.17671935 C20.4242833,6.42460893 20.5885369,7.23748601 20.5885369,7.23748601 L22.2512788,7.23748601 L20.8010689,0.161323512 L20.8010689,0.161323512 Z M18.5919591,4.72554435 C18.7404608,4.31730685 19.3056925,2.74570476 19.3056925,2.74570476 C19.2955252,2.76481726 19.4529793,2.3357256 19.5430565,2.06964018 L19.6645095,2.6804381 C19.6645095,2.6804381 20.0074255,4.37061101 20.0793211,4.72554435 L18.5919591,4.72554435 L18.5919591,4.72554435 Z"></path>
                <path d="M4.47600295,4.00724435 L4.66325538,4.9885131 L6.41741745,0.159558929 L8.31464591,0.159558929 L5.49422137,7.22682976 L3.59895389,7.22951101 L2.00632466,1.07911135 C1.45576494,0.750258906 0.827570505,0.48587995 0.12513878,0.302581845 L0.147135879,0.155113095 L3.03666371,0.155113095 C3.42555622,0.171131845 3.74037904,0.304369345 3.8486167,0.753031845 L4.47600295,4.00724435 Z"></path>
            </g>
        </g>
        <rect fill="#1A1F71" x="0" y="0" width="33" height="4"></rect>
        <rect fill="#F7B600" x="0" y="17.8571429" width="33" height="4"></rect>
    </g>
</svg>