<svg width="32px" height="22px" viewBox="0 0 32 22" version="1.1" xmlns="http://www.w3.org/2000/svg" xmlns:xlink="http://www.w3.org/1999/xlink">
    <g fill-rule="evenodd">
        <rect fill="#FFFFFF" transform="translate(16.000000, 11.000000) scale(1, -1) translate(-16.000000, -11.000000) " x="0" y="4" width="32" height="14"></rect>
        <g transform="translate(4.000000, 7.000000)" fill="#1A1F71">
            <path d="M8.41989177,7.23482768 L9.53933522,0.154654762 L11.3313741,0.154654762 L10.2097991,7.23482768 L8.41989177,7.23482768"></path>
            <path d="M16.7076185,0.328798512 C16.3529153,0.185340179 15.7965933,0.0312026786 15.1018942,0.0312026786 C13.3321083,0.0312026786 12.085201,0.991525595 12.0740533,2.36815268 C12.0641418,3.38535476 12.9641897,3.95350476 13.6436273,4.29198393 C14.3412678,4.63891935 14.575733,4.86056935 14.5728342,5.17017351 C14.5678678,5.64505268 14.0154678,5.86134018 13.5002838,5.86134018 C12.7838434,5.86134018 12.4029227,5.75429643 11.8145855,5.4899756 L11.5839357,5.3776381 L11.3324185,6.96299018 C11.7503421,7.16064643 12.5241838,7.33167351 13.3279732,7.34012976 C15.211155,7.34012976 16.4330598,6.3912881 16.4471064,4.9210006 C16.4541403,4.11609851 15.9769397,3.5031006 14.9436302,2.99758185 C14.3172884,2.66975893 13.9332557,2.4512256 13.9373908,2.11939226 C13.9373908,1.8253256 14.2621251,1.51040476 14.9636663,1.51040476 C15.5489128,1.50061935 15.973849,1.6383256 16.3035497,1.78178393 L16.4650749,1.86352768 L16.7076185,0.328798512"></path>
            <path d="M21.3010689,0.161323512 L19.9170421,0.161323512 C19.4879495,0.161323512 19.1671372,0.287502679 18.9787337,0.748586012 L16.3185981,7.23748601 L18.1999469,7.23748601 C18.1999469,7.23748601 18.5067126,6.36509435 18.5769456,6.1736256 C18.7822732,6.1736256 20.6094818,6.17671935 20.8709745,6.17671935 C20.9242833,6.42460893 21.0885369,7.23748601 21.0885369,7.23748601 L22.7512788,7.23748601 L21.3010689,0.161323512 L21.3010689,0.161323512 Z M19.0919591,4.72554435 C19.2404608,4.31730685 19.8056925,2.74570476 19.8056925,2.74570476 C19.7955252,2.76481726 19.9529793,2.3357256 20.0430565,2.06964018 L20.1645095,2.6804381 C20.1645095,2.6804381 20.5074255,4.37061101 20.5793211,4.72554435 L19.0919591,4.72554435 L19.0919591,4.72554435 Z"></path>
            <path d="M4.85086417,3.85213125 L5.0381166,4.8334 L6.79227867,0.00444583333 L8.68950713,0.00444583333 L5.86908259,7.07171667 L3.97381511,7.07439792 L2.38118588,0.92399825 C1.83062616,0.595145811 1.20243172,0.330766854 0.5,0.14746875 L0.521997099,0 L3.41152493,0 C3.80041744,0.01601875 4.11524026,0.14925625 4.22347792,0.59791875 L4.85086417,3.85213125 Z"></path>
        </g>
        <path d="M0,4 L32,4 L32,1.0093689 C32,0.443353176 31.5555144,0 31.0072136,0 L0.992786407,0 C0.452362061,0 0,0.451909848 0,1.0093689 L0,4 Z" fill="#1A1F71"></path>
        <path d="M0,17.8571429 L0,17.8571429 L0,20.847774 C0,21.4137897 0.444485615,21.8571429 0.992786407,21.8571429 L31.0072136,21.8571429 C31.5476379,21.8571429 32,21.405233 32,20.847774 L32,17.8571429 L0,17.8571429 Z" fill="#F7B600"></path>
    </g>
</svg>