<svg width="32px" height="22px" viewBox="0 0 32 22" version="1.1" xmlns="http://www.w3.org/2000/svg" xmlns:xlink="http://www.w3.org/1999/xlink">
    <g fill-rule="evenodd">
        <rect fill="#FFFFFF" transform="translate(16.000000, 11.000000) scale(1, -1) translate(-16.000000, -11.000000) " x="0" y="4" width="32" height="14"></rect>
        <path d="M0,1.0093689 L0,1.0093689 L0,4 L32,4 L32,1.0093689 C32,0.443353176 31.5555144,0 31.0072136,0 L0.992786407,0 C0.452362061,0 0,0.451909848 0,1.0093689 L0,1.0093689 Z" fill="#1A1F71"></path>
        <path d="M0,18 L0,18 L0,20.9906311 C0,21.5566468 0.444485615,22 0.992786407,22 L31.0072136,22 C31.5476379,22 32,21.5480902 32,20.9906311 L32,18 L0,18 Z" fill="#F7B600" ></path>
        <path d="M12.294753,12.9848277 L13.4141964,5.90465476 L15.2062353,5.90465476 L14.0846603,12.9848277 L12.294753,12.9848277 Z M20.5824797,6.07879851 C20.2277765,5.93534018 19.6714545,5.78120268 18.9767555,5.78120268 C17.2069695,5.78120268 15.9600622,6.7415256 15.9489145,8.11815268 C15.939003,9.13535476 16.839051,9.70350476 17.5184885,10.0419839 C18.216129,10.3889193 18.4505942,10.6105693 18.4476954,10.9201735 C18.442729,11.3950527 17.890329,11.6113402 17.375145,11.6113402 C16.6587046,11.6113402 16.2777839,11.5042964 15.6894468,11.2399756 L15.4587969,11.1276381 L15.2072797,12.7129902 C15.6252033,12.9106464 16.399045,13.0816735 17.2028344,13.0901298 C19.0860162,13.0901298 20.307921,12.1412881 20.3219676,10.6710006 C20.3290015,9.86609851 19.8518009,9.2531006 18.8184914,8.74758185 C18.1921496,8.41975893 17.8081169,8.2012256 17.8122521,7.86939226 C17.8122521,7.5753256 18.1369864,7.26040476 18.8385276,7.26040476 C19.423774,7.25061935 19.8487102,7.3883256 20.1784109,7.53178393 L20.3399361,7.61352768 L20.5824797,6.07879851 Z M25.1759301,5.91132351 L23.7919034,5.91132351 C23.3628107,5.91132351 23.0419984,6.03750268 22.8535949,6.49858601 L20.1934593,12.987486 L22.0748081,12.987486 C22.0748081,12.987486 22.3815738,12.1150943 22.4518068,11.9236256 C22.6571344,11.9236256 24.484343,11.9267193 24.7458357,11.9267193 C24.7991445,12.1746089 24.9633981,12.987486 24.9633981,12.987486 L26.62614,12.987486 L25.1759301,5.91132351 Z M8.85086417,9.75724435 L9.0381166,10.7385131 L10.7922787,5.90955893 L12.6895071,5.90955893 L9.86908259,12.9768298 L7.97381511,12.979511 L6.38118588,6.82911135 C5.83062616,6.50025891 5.20243172,6.23587995 4.5,6.05258185 L4.5219971,5.9051131 L7.41152493,5.9051131 C7.80041744,5.92113185 8.11524026,6.05436935 8.22347792,6.50303185 L8.85086417,9.75724435 L8.85086417,9.75724435 Z M22.9668203,10.4755443 C23.115322,10.0673068 23.6805537,8.49570476 23.6805537,8.49570476 C23.6703864,8.51481726 23.8278405,8.0857256 23.9179177,7.81964018 L24.0393707,8.4304381 C24.0393707,8.4304381 24.3822867,10.120611 24.4541823,10.4755443 L22.9668203,10.4755443 Z M15.2766364,16.2393491 L16.5100683,16.2393491 L16.5100683,16.454142 L15.0423168,16.454142 L15.0423168,14.15 L16.4710151,14.15 L16.4710151,14.3647929 L15.2766364,14.3647929 L15.2766364,15.1491124 L16.3929086,15.1491124 L16.3929086,15.3639053 L15.2766364,15.3639053 L15.2766364,16.2393491 Z M17.1707192,16.454142 L16.9559263,16.454142 L16.9559263,13.993787 L17.1707192,13.993787 L17.1707192,16.454142 Z M18.885808,15.5754438 C18.885808,15.4300782 18.8424159,15.3123772 18.7556305,15.2223373 C18.668845,15.1322974 18.5473472,15.0872781 18.3911334,15.0872781 C18.3217051,15.0872781 18.2544473,15.1008381 18.1893583,15.1279586 C18.1242692,15.155079 18.0673171,15.1914199 18.0185003,15.2369822 C17.9696835,15.2825446 17.9306306,15.3346151 17.9013405,15.3931953 C17.8720504,15.4517754 17.8574056,15.5125243 17.8574056,15.5754438 L18.885808,15.5754438 Z M17.8508967,15.7511834 C17.8574056,15.8271207 17.8758473,15.8987176 17.9062222,15.9659763 C17.9365971,16.0332351 17.9767347,16.0912719 18.0266364,16.1400888 C18.076538,16.1889056 18.1340325,16.227416 18.1991216,16.2556213 C18.2642107,16.2838266 18.3347228,16.297929 18.41066,16.297929 C18.5256507,16.297929 18.6249101,16.2713514 18.7084411,16.2181953 C18.7919721,16.1650392 18.855433,16.1037479 18.8988257,16.0343195 L19.064802,16.1710059 C18.9736773,16.2859966 18.8733332,16.3684416 18.7637665,16.4183432 C18.6541999,16.4682448 18.5364989,16.4931953 18.41066,16.4931953 C18.297839,16.4931953 18.1931556,16.4731264 18.0966068,16.4329882 C18.000058,16.3928499 17.9170706,16.3369826 17.8476423,16.2653846 C17.7782139,16.1937866 17.7234314,16.1091721 17.6832932,16.0115385 C17.6431549,15.9139048 17.6230861,15.8075943 17.6230861,15.6926036 C17.6230861,15.5776128 17.6426125,15.4713023 17.681666,15.3736686 C17.7207194,15.276035 17.7749595,15.1914205 17.8443878,15.1198225 C17.9138162,15.0482245 17.9951763,14.9923572 18.0884707,14.9522189 C18.181765,14.9120807 18.2826516,14.8920118 18.3911334,14.8920118 C18.5061241,14.8920118 18.6091803,14.9126231 18.700305,14.9538462 C18.7914297,14.9950692 18.8679082,15.0498517 18.9297429,15.1181953 C18.9915775,15.1865388 19.0387664,15.2668141 19.0713109,15.3590237 C19.1038555,15.4512332 19.1201275,15.5494078 19.1201275,15.6535503 L19.1201275,15.7511834 L17.8508967,15.7511834 Z M20.6334411,15.2890533 C20.5965573,15.2326427 20.5450292,15.1849114 20.4788553,15.145858 C20.4126814,15.1068045 20.3372877,15.0872781 20.2526719,15.0872781 C20.1637168,15.0851085 20.0839839,15.0992109 20.0134707,15.1295858 C19.9429575,15.1599607 19.882751,15.202268 19.8328494,15.2565089 C19.7829478,15.3107498 19.7449797,15.3752955 19.7189441,15.4501479 C19.6929084,15.5250004 19.6798908,15.6058181 19.6798908,15.6926036 C19.6798908,15.779389 19.6929084,15.8602067 19.7189441,15.9350592 C19.7449797,16.0099116 19.7829478,16.0744573 19.8328494,16.1286982 C19.882751,16.1829391 19.9429575,16.2252464 20.0134707,16.2556213 C20.0839839,16.2859962 20.1637168,16.3000986 20.2526719,16.297929 C20.3372877,16.297929 20.4126814,16.2784026 20.4788553,16.2393491 C20.5450292,16.2002957 20.5965573,16.1525644 20.6334411,16.0961538 L20.8091807,16.2295858 C20.7332435,16.3185409 20.6475441,16.3841714 20.5520802,16.4264793 C20.4566162,16.4687872 20.3568144,16.4910256 20.2526719,16.4931953 C20.1290026,16.4953649 20.017268,16.4763809 19.9174648,16.4362426 C19.8176615,16.3961043 19.7325046,16.340237 19.6619914,16.2686391 C19.5914782,16.1970411 19.5377805,16.1118841 19.5008967,16.0131657 C19.4640129,15.9144472 19.4455713,15.8075943 19.4455713,15.6926036 C19.4455713,15.5776128 19.4640129,15.4707599 19.5008967,15.3720414 C19.5377805,15.273323 19.5914782,15.188166 19.6619914,15.116568 C19.7325046,15.0449701 19.8176615,14.9891028 19.9174648,14.9489645 C20.017268,14.9088262 20.1290026,14.8898422 20.2526719,14.8920118 C20.3568144,14.8941815 20.4566162,14.9164199 20.5520802,14.9587278 C20.6475441,15.0010357 20.7332435,15.0666662 20.8091807,15.1556213 L20.6334411,15.2890533 Z M21.8929086,15.1263314 L21.4535594,15.1263314 L21.4535594,16.0245562 C21.4535594,16.0809668 21.4589835,16.1270708 21.4698316,16.1628698 C21.4806798,16.1986688 21.495867,16.2263313 21.5153938,16.245858 C21.5349205,16.2653847 21.5582437,16.2789447 21.5853642,16.2865385 C21.6124846,16.2941322 21.6423167,16.297929 21.6748612,16.297929 C21.711745,16.297929 21.7497131,16.292505 21.7887665,16.2816568 C21.82782,16.2708086 21.8636185,16.2567062 21.896163,16.2393491 L21.9059263,16.4378698 C21.8256498,16.4747536 21.7291024,16.4931953 21.6162813,16.4931953 C21.5750583,16.4931953 21.5322086,16.4877713 21.487731,16.4769231 C21.4432535,16.4660749 21.4025734,16.4454637 21.3656896,16.4150888 C21.3288058,16.3847139 21.2984314,16.3434914 21.2745654,16.2914201 C21.2506994,16.2393489 21.2387665,16.1710063 21.2387665,16.0863905 L21.2387665,15.1263314 L20.9165772,15.1263314 L20.9165772,14.9310651 L21.2387665,14.9310651 L21.2387665,14.5014793 L21.4535594,14.5014793 L21.4535594,14.9310651 L21.8929086,14.9310651 L21.8929086,15.1263314 Z M22.2216068,15.406213 C22.2216068,15.3389543 22.2199796,15.2706118 22.2167251,15.2011834 C22.2134707,15.1317551 22.2107587,15.0417165 22.208589,14.9310651 L22.4201275,14.9310651 L22.4201275,15.2142012 L22.4266364,15.2142012 C22.4418238,15.1729781 22.4635199,15.1333828 22.4917251,15.0954142 C22.5199304,15.0574456 22.5541017,15.0232743 22.5942399,14.9928994 C22.6343782,14.9625245 22.6810247,14.9381165 22.7341807,14.9196746 C22.7873368,14.9012326 22.8475433,14.8920118 22.914802,14.8920118 C22.9755519,14.8920118 23.0287071,14.8985206 23.0742695,14.9115385 L23.0319618,15.1230769 C23.0037565,15.1122287 22.9625341,15.1068047 22.9082932,15.1068047 C22.825847,15.1068047 22.7553349,15.1225344 22.6967547,15.1539941 C22.6381745,15.1854538 22.5893585,15.2255915 22.550305,15.2744083 C22.5112516,15.3232251 22.4825043,15.375838 22.4640624,15.4322485 C22.4456205,15.4886591 22.4363997,15.5428991 22.4363997,15.5949704 L22.4363997,16.454142 L22.2216068,16.454142 L22.2216068,15.406213 Z M24.5387665,15.6926036 C24.5387665,15.6079877 24.5252065,15.5287972 24.4980861,15.4550296 C24.4709656,15.381262 24.4324552,15.3172587 24.3825535,15.2630178 C24.3326519,15.2087768 24.2724454,15.1659272 24.2019322,15.1344675 C24.1314191,15.1030077 24.0516861,15.0872781 23.962731,15.0872781 C23.873776,15.0872781 23.794043,15.1030077 23.7235299,15.1344675 C23.6530167,15.1659272 23.5933526,15.2087768 23.5445358,15.2630178 C23.495719,15.3172587 23.4577509,15.381262 23.4306305,15.4550296 C23.40351,15.5287972 23.38995,15.6079877 23.38995,15.6926036 C23.38995,15.7772194 23.40351,15.8564099 23.4306305,15.9301775 C23.4577509,16.0039451 23.495719,16.0679484 23.5445358,16.1221893 C23.5933526,16.1764303 23.6530167,16.2192799 23.7235299,16.2507396 C23.794043,16.2821994 23.873776,16.297929 23.962731,16.297929 C24.0516861,16.297929 24.1314191,16.2821994 24.2019322,16.2507396 C24.2724454,16.2192799 24.3326519,16.1764303 24.3825535,16.1221893 C24.4324552,16.0679484 24.4709656,16.0039451 24.4980861,15.9301775 C24.5252065,15.8564099 24.5387665,15.7772194 24.5387665,15.6926036 L24.5387665,15.6926036 Z M24.7730861,15.6926036 C24.7730861,15.8075943 24.7530172,15.9139048 24.712879,16.0115385 C24.6727407,16.1091721 24.6168734,16.1937866 24.5452754,16.2653846 C24.4736774,16.3369826 24.3885205,16.3928499 24.289802,16.4329882 C24.1910836,16.4731264 24.082061,16.4931953 23.962731,16.4931953 C23.8455707,16.4931953 23.7376329,16.4731264 23.6389145,16.4329882 C23.540196,16.3928499 23.4550391,16.3369826 23.3834411,16.2653846 C23.3118431,16.1937866 23.2559758,16.1091721 23.2158376,16.0115385 C23.1756993,15.9139048 23.1556305,15.8075943 23.1556305,15.6926036 C23.1556305,15.5776128 23.1756993,15.4713023 23.2158376,15.3736686 C23.2559758,15.276035 23.3118431,15.1914205 23.3834411,15.1198225 C23.4550391,15.0482245 23.540196,14.9923572 23.6389145,14.9522189 C23.7376329,14.9120807 23.8455707,14.8920118 23.962731,14.8920118 C24.082061,14.8920118 24.1910836,14.9120807 24.289802,14.9522189 C24.3885205,14.9923572 24.4736774,15.0482245 24.5452754,15.1198225 C24.6168734,15.1914205 24.6727407,15.276035 24.712879,15.3736686 C24.7530172,15.4713023 24.7730861,15.5776128 24.7730861,15.6926036 L24.7730861,15.6926036 Z M25.381666,14.9310651 C25.3860052,14.9722882 25.3887172,15.0129682 25.389802,15.0531065 C25.3908869,15.0932448 25.3914293,15.1339248 25.3914293,15.1751479 L25.3979381,15.1751479 C25.4218041,15.1339248 25.4521786,15.0959568 25.4890624,15.0612426 C25.5259462,15.0265284 25.5671687,14.9966964 25.612731,14.9717456 C25.6582934,14.9467947 25.7065671,14.9272683 25.7575535,14.9131657 C25.80854,14.899063 25.8589833,14.8920118 25.9088849,14.8920118 C26.1041521,14.8920118 26.2484308,14.9435399 26.3417251,15.0465976 C26.4350195,15.1496553 26.481666,15.296646 26.481666,15.487574 L26.481666,16.454142 L26.2668731,16.454142 L26.2668731,15.6112426 C26.2668731,15.442011 26.2375834,15.3123772 26.1790032,15.2223373 C26.1204231,15.1322974 26.0119429,15.0872781 25.8535594,15.0872781 C25.8427113,15.0872781 25.8123368,15.0916173 25.7624352,15.1002959 C25.7125336,15.1089744 25.6599207,15.13284 25.6045949,15.1718935 C25.5492692,15.2109469 25.4999107,15.2695262 25.456518,15.3476331 C25.4131253,15.42574 25.3914293,15.5342202 25.3914293,15.6730769 L25.3914293,16.454142 L25.1766364,16.454142 L25.1766364,15.2662722 C25.1766364,15.2250491 25.1750092,15.1729786 25.1717547,15.1100592 C25.1685003,15.0471397 25.1647035,14.9874756 25.1603642,14.9310651 L25.381666,14.9310651 Z" fill="#1A1F71"></path>
    </g>
</svg>