<svg xmlns="http://www.w3.org/2000/svg" viewBox="0 0 25 18" version="1.1"><g transform="translate(1.000000, 2.250000)"><path d="M11.5 11.7C12.8 12.8 14.4 13.5 16.1 13.5 19.9 13.5 23 10.5 23 6.7 23 3 19.9 0 16.1 0 14.4 0 12.8 0.7 11.5 1.8 10.2 3 9.3 4.8 9.3 6.7 9.3 8.7 10.2 10.5 11.5 11.7" fill="#F8971D"/><path fill="#F8971D"/><path d="M13.7 6C13.7 5.8 13.6 5.6 13.6 5.3L9.4 5.3C9.5 5.1 9.5 4.8 9.6 4.6L13.4 4.6C13.3 4.4 13.2 4.1 13.1 3.9L9.9 3.9C10 3.6 10.2 3.4 10.3 3.2L12.7 3.2C12.6 2.9 12.4 2.7 12.2 2.5L10.8 2.5C11 2.2 11.3 2 11.5 1.8 10.3 0.7 8.7 0 6.9 0 3.2 0 0.1 3 0.1 6.8 0.1 10.5 3.2 13.5 6.9 13.5 8.7 13.5 10.3 12.8 11.5 11.7 11.8 11.5 12 11.3 12.2 11L10.8 11C10.6 10.8 10.5 10.6 10.3 10.3L12.7 10.3C12.9 10.1 13 9.9 13.1 9.6L9.9 9.6C9.8 9.4 9.7 9.1 9.6 8.9L13.4 8.9C13.5 8.7 13.5 8.4 13.6 8.2 13.6 7.9 13.7 7.7 13.7 7.5 13.7 7.2 13.8 7 13.8 6.8 13.8 6.5 13.7 6.3 13.7 6" fill="#CA1F27"/><path fill="#FFFFFF"/><path d="M9.2 8.7C9 8.8 8.8 8.8 8.7 8.8 8.3 8.8 8.1 8.6 8.1 8.2 8.1 8.1 8.1 8 8.1 7.9L8.2 7.7 8.2 7.4 8.5 5.5 9.2 5.5 9.2 6 9.6 6 9.5 6.7 9.1 6.7 8.9 7.8C8.9 7.8 8.8 7.9 8.8 7.9 8.8 8 8.9 8.1 9.1 8.1 9.2 8.1 9.3 8.1 9.3 8.1L9.2 8.7" fill="#221F5F"/><path d="M11.5 8.7C11.3 8.7 11 8.8 10.8 8.8 10 8.8 9.5 8.4 9.5 7.5 9.5 6.6 10 5.9 10.8 5.9 11.4 5.9 11.8 6.3 11.8 6.9 11.8 7.1 11.8 7.3 11.7 7.6L10.2 7.6C10.2 7.6 10.2 7.6 10.2 7.7 10.2 8 10.4 8.2 10.9 8.2 11.1 8.2 11.4 8.1 11.6 8L11.5 8.7M11.1 7C11.1 7 11.1 6.9 11.1 6.9 11.1 6.6 11 6.5 10.7 6.5 10.5 6.5 10.3 6.7 10.3 7L11.1 7" fill="#221F5F"/><path d="M3.6 8.7L2.8 8.7 3.3 6.1 2.3 8.7 1.8 8.7 1.7 6.1 1.3 8.7 0.6 8.7 1.2 5.3 2.2 5.3 2.3 7.4 3 5.3 4.1 5.3 3.6 8.7" fill="#221F5F"/><path d="M5.4 7.5C5.3 7.5 5.3 7.5 5.2 7.5 4.8 7.5 4.6 7.6 4.6 7.9 4.6 8.1 4.7 8.2 4.8 8.2 5.2 8.2 5.3 7.9 5.4 7.5M5.9 8.7L5.3 8.7 5.3 8.4C5.1 8.7 4.9 8.8 4.5 8.8 4.2 8.8 3.9 8.5 3.9 8 3.9 7.9 3.9 7.8 3.9 7.7 4 7.2 4.5 7 5.2 6.9 5.2 6.9 5.4 6.9 5.5 7 5.5 6.9 5.5 6.8 5.5 6.8 5.5 6.6 5.4 6.5 5 6.5 4.8 6.5 4.6 6.6 4.4 6.6L4.3 6.6 4.3 6.7 4.4 6C4.7 5.9 4.9 5.9 5.2 5.9 5.9 5.9 6.2 6.2 6.2 6.7 6.2 6.8 6.2 6.9 6.2 7.3L6 8.2 6 8.4 6 8.6 5.9 8.7 5.9 8.7" fill="#221F5F"/><path d="M15.1 6C15.3 6 15.5 6 15.7 6.2L15.9 5.4C15.8 5.4 15.8 5.4 15.7 5.4L15.4 5.3C15.3 5.3 15.2 5.2 15 5.2 14.7 5.2 14.5 5.2 14.2 5.4 14.1 5.5 14 5.6 13.8 5.7L13.7 5.7 13 6.2 13 6 12.2 6 11.8 8.7 12.5 8.7 12.8 7.2C12.8 7.2 12.9 7 12.9 7 13.1 6.8 13.2 6.8 13.3 6.8 13.4 6.8 13.4 6.8 13.4 6.8 13.4 7 13.4 7.1 13.4 7.3 13.4 8.2 13.9 8.8 14.7 8.8 14.9 8.8 15.1 8.8 15.3 8.7L15.5 7.9C15.2 8 15 8.1 14.8 8.1 14.4 8.1 14.1 7.8 14.1 7.3 14.1 6.5 14.5 6 15.1 6" fill="#221F5F"/><path d="M21.3 5.3L21.2 6.3C21 6 20.8 5.9 20.5 5.9 20.1 5.9 19.8 6.1 19.5 6.5L19.5 6.5 19.1 6.2 19.1 6 18.3 6 17.9 8.7 18.6 8.7 18.8 7.2C18.8 7.2 19 7 19.1 7 19.2 6.8 19.3 6.8 19.4 6.8 19.3 7 19.3 7.3 19.3 7.6 19.3 8.3 19.6 8.8 20.2 8.8 20.5 8.8 20.7 8.7 20.9 8.5L20.8 8.7 21.5 8.7 22.1 5.3 21.3 5.3M20.4 8.1C20.2 8.1 20.1 7.9 20.1 7.5 20.1 7 20.3 6.6 20.6 6.6 20.9 6.6 21 6.8 21 7.1 21 7.7 20.8 8.1 20.4 8.1" fill="#221F5F"/><path d="M17 7.5C16.9 7.5 16.9 7.5 16.9 7.5 16.5 7.5 16.2 7.6 16.2 7.9 16.2 8.1 16.3 8.2 16.5 8.2 16.9 8.2 17 7.9 17 7.5M17.6 8.7L17 8.7 17 8.4C16.8 8.7 16.6 8.8 16.2 8.8 15.8 8.8 15.5 8.5 15.5 8 15.5 7.4 16 6.9 16.8 6.9 16.9 6.9 17 6.9 17.2 7 17.2 6.9 17.2 6.8 17.2 6.8 17.2 6.6 17 6.5 16.7 6.5 16.5 6.5 16.2 6.6 16.1 6.6L16 6.6 15.9 6.7 16 6C16.4 5.9 16.6 5.9 16.9 5.9 17.5 5.9 17.9 6.2 17.9 6.7 17.9 6.8 17.9 6.9 17.8 7.3L17.7 8.2 17.6 8.4 17.6 8.6 17.6 8.7 17.6 8.7" fill="#221F5F"/><path d="M7.5 6.5C7.6 6.5 7.8 6.6 8 6.6L8.1 5.9C7.9 5.9 7.7 5.9 7.5 5.9 6.7 5.9 6.4 6.3 6.4 6.8 6.4 7.2 6.5 7.4 6.9 7.6 7.2 7.7 7.3 7.8 7.3 7.9 7.3 8.1 7.1 8.2 6.8 8.2 6.6 8.2 6.4 8.1 6.2 8.1L6.1 8.7 6.1 8.7 6.2 8.7C6.3 8.7 6.4 8.7 6.4 8.8 6.6 8.8 6.8 8.8 6.9 8.8 7.7 8.8 8 8.5 8 7.8 8 7.5 7.8 7.2 7.5 7.1 7.2 6.9 7.1 6.9 7.1 6.8 7.1 6.7 7.3 6.5 7.5 6.5" fill="#221F5F"/><path d="M16.1 5.2L15.9 5.9C15.7 5.8 15.5 5.8 15.3 5.8 14.7 5.8 14.3 6.3 14.3 7 14.3 7.6 14.6 7.9 15 7.9 15.2 7.9 15.4 7.8 15.7 7.7L15.5 8.5C15.3 8.6 15.1 8.6 14.9 8.6 14.1 8.6 13.6 8 13.6 7.1 13.6 5.9 14.3 5 15.2 5 15.4 5 15.5 5 15.6 5.1L15.9 5.1C16 5.2 16 5.2 16.1 5.2" fill="#FFFFFF"/><path d="M13.7 5.7C13.7 5.7 13.6 5.7 13.6 5.7 13.4 5.7 13.2 5.8 13 6.2L13.1 5.7 12.4 5.7 11.9 8.5 12.7 8.5C13 6.8 13 6.5 13.4 6.5 13.4 6.5 13.4 6.5 13.4 6.5 13.5 6.2 13.6 5.9 13.7 5.7L13.7 5.7" fill="#FFFFFF"/><path d="M9.4 8.5C9.2 8.5 9.1 8.6 8.9 8.6 8.5 8.6 8.3 8.4 8.3 8 8.3 7.9 8.3 7.8 8.3 7.7L8.4 7.4 8.4 7.2 8.7 5.3 9.5 5.3 9.4 5.7 9.8 5.7 9.6 6.4 9.3 6.4 9.1 7.6C9.1 7.6 9.1 7.7 9.1 7.7 9.1 7.8 9.1 7.9 9.3 7.9 9.4 7.9 9.5 7.9 9.5 7.9L9.4 8.5" fill="#FFFFFF"/><path d="M6.6 6.6C6.6 7 6.7 7.2 7.1 7.4 7.4 7.5 7.5 7.6 7.5 7.7 7.5 7.9 7.3 7.9 7.1 7.9 6.8 7.9 6.6 7.9 6.4 7.8L6.3 8.5 6.3 8.5 6.5 8.5C6.5 8.5 6.6 8.5 6.7 8.5 6.8 8.6 7 8.6 7.1 8.6 7.8 8.6 8.2 8.3 8.2 7.6 8.2 7.3 8.1 7 7.7 6.9 7.4 6.7 7.3 6.7 7.3 6.6 7.3 6.4 7.5 6.3 7.7 6.3 7.8 6.3 8 6.3 8.2 6.4L8.3 5.7C8.1 5.7 7.9 5.7 7.7 5.7 6.9 5.7 6.6 6.1 6.6 6.6" fill="#FFFFFF"/><path d="M21.7 8.5L21 8.5 21.1 8.2C20.9 8.5 20.6 8.6 20.4 8.6 19.8 8.6 19.5 8.1 19.5 7.4 19.5 6.5 20 5.7 20.7 5.7 21 5.7 21.2 5.8 21.4 6.1L21.6 5.1 22.3 5.1 21.7 8.5M20.6 7.9C21 7.9 21.2 7.5 21.2 6.9 21.2 6.6 21.1 6.4 20.8 6.4 20.5 6.4 20.2 6.8 20.2 7.3 20.2 7.7 20.4 7.9 20.6 7.9" fill="#FFFFFF"/><path d="M11.7 8.5C11.4 8.5 11.2 8.6 10.9 8.6 10.1 8.6 9.7 8.1 9.7 7.3 9.7 6.4 10.2 5.7 11 5.7 11.6 5.7 12 6.1 12 6.7 12 6.9 11.9 7.1 11.9 7.4L10.4 7.4C10.4 7.4 10.4 7.4 10.4 7.4 10.4 7.8 10.6 7.9 11 7.9 11.3 7.9 11.5 7.9 11.8 7.8L11.7 8.5M11.3 6.8C11.3 6.7 11.3 6.7 11.3 6.7 11.3 6.4 11.1 6.3 10.9 6.3 10.7 6.3 10.5 6.5 10.4 6.8L11.3 6.8" fill="#FFFFFF"/><path d="M3.8 8.5L3 8.5 3.4 5.9 2.5 8.5 2 8.5 1.9 5.9 1.5 8.5 0.8 8.5 1.4 5.1 2.4 5.1 2.5 7.2 3.2 5.1 4.3 5.1 3.8 8.5" fill="#FFFFFF"/><path d="M5.6 7.3C5.5 7.3 5.5 7.3 5.4 7.3 5 7.3 4.8 7.4 4.8 7.7 4.8 7.9 4.9 8 5.1 8 5.4 8 5.6 7.7 5.6 7.3M6.1 8.5L5.5 8.5 5.5 8.2C5.3 8.5 5.1 8.6 4.7 8.6 4.3 8.6 4.1 8.3 4.1 7.8 4.1 7.1 4.5 6.7 5.4 6.7 5.5 6.7 5.6 6.7 5.7 6.8 5.7 6.7 5.7 6.6 5.7 6.6 5.7 6.4 5.6 6.3 5.2 6.3 5 6.3 4.8 6.4 4.6 6.4L4.5 6.4 4.4 6.4 4.5 5.8C4.9 5.7 5.2 5.7 5.4 5.7 6.1 5.7 6.4 6 6.4 6.5 6.4 6.6 6.4 6.7 6.3 7L6.2 8 6.2 8.2 6.1 8.3 6.1 8.4 6.1 8.5" fill="#FFFFFF"/><path d="M17.3 7.3C17.2 7.3 17.1 7.3 17.1 7.3 16.7 7.3 16.5 7.4 16.5 7.7 16.5 7.9 16.6 8 16.7 8 17 8 17.2 7.7 17.3 7.3M17.8 8.5L17.2 8.5 17.2 8.2C17 8.5 16.8 8.6 16.4 8.6 16 8.6 15.7 8.3 15.7 7.8 15.7 7.1 16.2 6.7 17 6.7 17.1 6.7 17.2 6.7 17.3 6.8 17.4 6.7 17.4 6.6 17.4 6.6 17.4 6.4 17.2 6.3 16.9 6.3 16.7 6.3 16.5 6.4 16.3 6.4L16.2 6.4 16.1 6.4 16.2 5.8C16.6 5.7 16.8 5.7 17.1 5.7 17.7 5.7 18.1 6 18.1 6.5 18.1 6.6 18.1 6.7 18 7L17.9 8 17.8 8.2 17.8 8.4 17.8 8.5" fill="#FFFFFF"/><path d="M19.8 5.7C19.8 5.7 19.7 5.7 19.7 5.7 19.5 5.7 19.3 5.8 19.1 6.2L19.2 5.7 18.5 5.7 18 8.5 18.8 8.5C19.1 6.8 19.1 6.5 19.5 6.5 19.5 6.5 19.5 6.5 19.5 6.5 19.6 6.2 19.7 5.9 19.8 5.7L19.8 5.7" fill="#FFFFFF"/></g></svg>
