<svg xmlns="http://www.w3.org/2000/svg" width="20" height="18" viewBox="0 0 20 18" version="1.1"><g transform="translate(1.000000, 0.000000)" fill-rule="evenodd"><rect fill="#0072AD" x="0" y="0" width="18" height="18"/><path d="M0 9L0.9 9 1.1 8.5 1.5 8.5 1.7 9 3.4 9 3.4 8.7 3.6 9 4.5 9 4.6 8.7 4.6 9 8.9 9 8.9 8.2 9 8.2C9.1 8.2 9.1 8.2 9.1 8.3L9.1 9 11.3 9 11.3 8.8C11.5 8.9 11.8 9 12.1 9L13.1 9 13.3 8.5 13.7 8.5 13.9 9 15.7 9 15.7 8.6 16 9 17.4 9 17.4 6 16 6 16 6.4 15.8 6 14.3 6 14.3 6.4 14.1 6 12.2 6C11.8 6 11.5 6 11.3 6.2L11.3 6 9.9 6 9.9 6.2C9.8 6 9.6 6 9.4 6L4.4 6 4 6.8 3.7 6 2.1 6 2.1 6.4 2 6 0.6 6 0 7.4 0 9 0 9ZM16.9 8.6L16.2 8.6 15.2 7 15.2 8.6 14.2 8.6 14 8.1 12.9 8.1 12.7 8.6 12.1 8.6C11.9 8.6 11.6 8.5 11.4 8.3 11.2 8.2 11.1 7.9 11.1 7.5 11.1 7.2 11.2 6.9 11.4 6.7 11.6 6.5 11.8 6.4 12.2 6.4L12.7 6.4 12.7 6.9 12.2 6.9C12 6.9 11.9 6.9 11.8 7 11.7 7.1 11.6 7.3 11.6 7.5 11.6 7.7 11.7 7.9 11.8 8 11.9 8.1 12 8.1 12.1 8.1L12.4 8.1 13.1 6.4 13.9 6.4 14.7 8.5 14.7 6.4 15.5 6.4 16.4 7.9 16.4 6.4 16.9 6.4 16.9 8.6 16.9 8.6ZM10.4 6.4L10.9 6.4 10.9 8.6 10.4 8.6 10.4 6.4ZM10 7C10 7.3 9.8 7.5 9.7 7.6 9.8 7.6 9.9 7.7 9.9 7.8 10 7.9 10 8 10 8.2L10 8.6 9.5 8.6 9.5 8.3C9.5 8.2 9.5 8 9.4 7.9 9.3 7.8 9.2 7.8 9 7.8L8.5 7.8 8.5 8.6 8 8.6 8 6.4 9.2 6.4C9.4 6.4 9.6 6.4 9.8 6.5 9.9 6.6 10 6.8 10 7L10 7ZM7.6 8.6L5.9 8.6 5.9 6.4 7.6 6.4 7.6 6.9 6.4 6.9 6.4 7.3 7.6 7.3 7.6 7.7 6.4 7.7 6.4 8.1 7.6 8.1 7.6 8.6 7.6 8.6ZM5.5 8.6L5 8.6 5 6.9 4.3 8.6 3.8 8.6 3.1 6.9 3.1 8.6 2 8.6 1.8 8.1 0.8 8.1 0.6 8.6 0 8.6 0.9 6.4 1.7 6.4 2.6 8.5 2.6 6.4 3.4 6.4 4.1 7.9 4.7 6.4 5.5 6.4 5.5 8.6 5.5 8.6ZM13.8 7.7L13.5 6.8 13.1 7.7 13.8 7.7 13.8 7.7ZM9.4 7.3C9.3 7.4 9.2 7.4 9.1 7.4L8.5 7.4 8.5 6.9 9.1 6.9C9.2 6.9 9.3 6.9 9.4 6.9 9.4 7 9.5 7 9.5 7.1 9.5 7.2 9.4 7.3 9.4 7.3L9.4 7.3ZM1.6 7.7L1.3 6.8 0.9 7.7 1.6 7.7 1.6 7.7ZM9.8 10.7C9.8 11.3 9.4 11.5 8.9 11.5L8.3 11.5 8.3 12.2 7.3 12.2 6.7 11.5 6.1 12.2 4.1 12.2 4.1 10 6.1 10 6.7 10.7 7.4 10 9 10C9.4 10 9.8 10.1 9.8 10.7L9.8 10.7ZM5.8 11.7L4.6 11.7 4.6 11.3 5.7 11.3 5.7 10.9 4.6 10.9 4.6 10.5 5.8 10.5 6.4 11.1 5.8 11.7 5.8 11.7ZM7.8 12L7 11.1 7.8 10.3 7.8 12 7.8 12ZM9 11L8.3 11 8.3 10.5 9 10.5C9.2 10.5 9.3 10.5 9.3 10.7 9.3 10.9 9.2 11 9 11L9 11ZM12.4 10L14.1 10 14.1 10.5 12.9 10.5 12.9 10.9 14 10.9 14 11.3 12.9 11.3 12.9 11.7 14.1 11.7 14.1 12.2 12.4 12.2 12.4 10 12.4 10ZM11.7 11.2C11.9 11.2 12 11.3 12 11.4 12.1 11.5 12.1 11.6 12.1 11.8L12.1 12.2 11.6 12.2 11.6 11.9C11.6 11.8 11.6 11.6 11.5 11.5 11.4 11.4 11.3 11.4 11.1 11.4L10.6 11.4 10.6 12.2 10.1 12.2 10.1 10 11.2 10C11.5 10 11.7 10 11.8 10.1 12 10.2 12.1 10.4 12.1 10.6 12.1 10.9 11.9 11.1 11.7 11.2L11.7 11.2ZM11.4 10.9C11.3 10.9 11.3 10.9 11.2 10.9L10.6 10.9 10.6 10.5 11.2 10.5C11.3 10.5 11.3 10.5 11.4 10.5 11.5 10.5 11.5 10.6 11.5 10.7 11.5 10.8 11.5 10.9 11.4 10.9L11.4 10.9ZM16 11C16.1 11.1 16.1 11.3 16.1 11.5 16.1 12 15.8 12.2 15.3 12.2L14.3 12.2 14.3 11.7 15.3 11.7C15.4 11.7 15.5 11.7 15.5 11.7 15.6 11.6 15.6 11.6 15.6 11.5 15.6 11.5 15.6 11.4 15.5 11.4 15.5 11.3 15.4 11.3 15.3 11.3 14.9 11.3 14.3 11.3 14.3 10.7 14.3 10.3 14.5 10 15 10L16 10 16 10.5 15.1 10.5C15 10.5 14.9 10.5 14.9 10.5 14.8 10.6 14.8 10.6 14.8 10.7 14.8 10.8 14.9 10.8 14.9 10.8 15 10.9 15 10.9 15.1 10.9L15.4 10.9C15.7 10.9 15.9 10.9 16 11L16 11ZM18 11.9C17.9 12.1 17.6 12.2 17.3 12.2L16.3 12.2 16.3 11.7 17.3 11.7C17.4 11.7 17.5 11.7 17.5 11.7 17.5 11.6 17.6 11.6 17.6 11.5 17.6 11.5 17.5 11.4 17.5 11.4 17.5 11.4 17.4 11.3 17.3 11.3 16.9 11.3 16.3 11.4 16.3 10.7 16.3 10.4 16.5 10 17 10L18 10 18 9.6 17.1 9.6C16.8 9.6 16.6 9.7 16.4 9.8L16.4 9.6 15 9.6C14.8 9.6 14.6 9.7 14.4 9.8L14.4 9.6 12 9.6 12 9.8C11.8 9.6 11.4 9.6 11.3 9.6L9.7 9.6 9.7 9.8C9.5 9.6 9.2 9.6 9 9.6L7.1 9.6 6.7 10.1 6.3 9.6 3.6 9.6 3.6 12.6 6.3 12.6 6.7 12.2 7.1 12.6 8.8 12.6 8.8 11.9 8.9 11.9C9.1 11.9 9.4 11.9 9.6 11.8L9.6 12.6 11 12.6 11 11.8 11 11.8C11.1 11.8 11.1 11.8 11.1 11.9L11.1 12.6 15.3 12.6C15.5 12.6 15.8 12.6 15.9 12.4L15.9 12.6 17.3 12.6C17.5 12.6 17.8 12.6 18 12.5L18 11.9 18 11.9ZM18 10.5L17.1 10.5C17 10.5 16.9 10.5 16.9 10.5 16.8 10.6 16.8 10.6 16.8 10.7 16.8 10.8 16.8 10.8 16.9 10.9 17 10.9 17 10.9 17.1 10.9L17.4 10.9C17.7 10.9 17.8 10.9 18 11.1 18 11.1 18 11.1 18 11.1L18 10.5 18 10.5Z" fill="#FFFFFF"/></g></svg>