<svg xmlns="http://www.w3.org/2000/svg" width="25" height="18" viewBox="0 0 25 18" version="1.1"><g transform="translate(1.000000, 2.250000)"><path d="M11.5 11.8C12.9 10.5 13.8 8.7 13.8 6.8 13.8 4.8 12.9 3 11.5 1.7 10.3 0.7 8.7 0 6.9 0 3.1 0 0 3 0 6.8 0 10.5 3.1 13.5 6.9 13.5 8.7 13.5 10.3 12.8 11.5 11.8" fill="#0092C7"/><path d="M11.5 11.8C12.9 10.5 13.7 8.8 13.7 6.8 13.7 4.8 12.9 3 11.5 1.7L11.5 11.8" fill="#0092C7"/><path d="M16 0C14.2 0 12.6 0.7 11.3 1.7 11.1 2 10.9 2.2 10.6 2.5L12 2.5C12.2 2.7 12.4 2.9 12.6 3.2L10.1 3.2C10 3.4 9.8 3.6 9.7 3.9L13 3.9C13.1 4.1 13.2 4.4 13.3 4.6L9.4 4.6C9.3 4.8 9.3 5.1 9.2 5.3L13.5 5.3C13.6 5.8 13.6 6.3 13.6 6.8 13.6 7.5 13.5 8.2 13.3 8.9L9.4 8.9C9.5 9.1 9.6 9.4 9.7 9.6L13 9.6C12.9 9.9 12.7 10.1 12.6 10.3L10.1 10.3C10.3 10.6 10.4 10.8 10.6 11L12 11C11.8 11.3 11.6 11.5 11.3 11.8 12.6 12.8 14.2 13.5 16 13.5 19.9 13.5 23 10.5 23 6.8 23 3 19.9 0 16 0" fill="#D82331"/><path fill="#D82331"/><path d="M5.8 8.6L4.9 8.6 5.4 6 4.2 8.6 3.5 8.6 3.4 6 2.8 8.6 2 8.6 2.7 5.2 4 5.2 4.1 7.3 5 5.2 6.4 5.2 5.8 8.6" fill="#0B2D5A"/><path d="M15.4 8.6C15.1 8.7 14.9 8.7 14.7 8.7 14.3 8.7 14.1 8.5 14.1 8.1 14.1 8 14.1 7.9 14.1 7.8L14.1 7.6 14.2 7.3 14.6 5.2 15.4 5.2 15.3 5.8 15.7 5.8 15.6 6.5 15.2 6.5 15 7.7C15 7.7 14.9 7.8 14.9 7.8 14.9 8 15 8 15.2 8 15.3 8 15.4 8 15.5 8L15.4 8.6" fill="#0B2D5A"/><path d="M12 6.7C12 7.1 12.2 7.3 12.6 7.5 13 7.6 13 7.7 13 7.8 13 8 12.9 8.1 12.5 8.1 12.3 8.1 12 8 11.7 8L11.6 8.6 11.7 8.6 11.8 8.6C11.9 8.6 11.9 8.7 12.1 8.7 12.3 8.7 12.4 8.7 12.5 8.7 13.4 8.7 13.9 8.4 13.9 7.8 13.9 7.4 13.7 7.1 13.3 7 12.9 6.8 12.8 6.8 12.8 6.7 12.8 6.5 13 6.4 13.3 6.4 13.4 6.4 13.7 6.5 13.9 6.5L14 5.8C13.8 5.8 13.5 5.8 13.3 5.8 12.3 5.8 11.9 6.2 12 6.7" fill="#0B2D5A"/><path d="M8.6 8.6L7.8 8.6 7.8 8.4C7.6 8.6 7.3 8.7 6.9 8.7 6.5 8.7 6.2 8.4 6.2 7.9 6.2 7.2 6.7 6.8 7.7 6.8 7.8 6.8 7.9 6.8 8 6.9 8.1 6.8 8.1 6.7 8.1 6.7 8.1 6.5 7.9 6.4 7.5 6.4 7.3 6.4 7 6.5 6.8 6.5L6.7 6.5 6.6 6.6 6.7 5.9C7.1 5.8 7.4 5.8 7.7 5.8 8.5 5.8 8.9 6.1 8.9 6.6 8.9 6.7 8.9 6.8 8.8 7.2L8.6 8.1 8.6 8.3 8.6 8.5 8.6 8.6 8.6 8.6 8.6 8.6ZM8 7.4C7.9 7.4 7.8 7.4 7.8 7.4 7.3 7.4 7 7.5 7 7.8 7 8 7.2 8.1 7.3 8.1 7.7 8.1 8 7.8 8 7.4L8 7.4Z" fill="#0B2D5A"/><path d="M11.4 8.6C11.1 8.7 10.8 8.7 10.5 8.7 9.5 8.7 9 8.3 9 7.4 9 6.5 9.7 5.8 10.5 5.8 11.2 5.8 11.7 6.2 11.7 6.8 11.7 7 11.7 7.2 11.6 7.5L9.9 7.5C9.9 7.5 9.9 7.5 9.9 7.6 9.9 7.9 10.1 8.1 10.6 8.1 10.9 8.1 11.2 8 11.5 7.9L11.4 8.6 11.4 8.6ZM11 6.9L11 6.8C11 6.5 10.8 6.4 10.6 6.4 10.3 6.4 10.1 6.6 10 6.9L11 6.9 11 6.9Z" fill="#0B2D5A"/><path d="M20.5 7.4C20.4 8.3 19.7 8.7 18.9 8.7 17.9 8.7 17.5 8.1 17.5 7.4 17.5 6.4 18.2 5.8 19.2 5.8 20.1 5.8 20.5 6.3 20.5 7 20.5 7.2 20.5 7.2 20.5 7.4L20.5 7.4ZM19.7 7C19.7 6.7 19.5 6.5 19.2 6.5 18.8 6.5 18.5 7 18.5 7.4 18.5 7.8 18.7 8.1 19 8.1 19.2 8.1 19.5 7.8 19.6 7.4 19.6 7.3 19.7 7.2 19.7 7L19.7 7Z" fill="#0B2D5A"/><path fill="#FFFFFF"/><path d="M6 8.4L5.1 8.4 5.6 5.8 4.5 8.4 3.7 8.4 3.5 5.8 3 8.4 2.2 8.4 2.9 5 4.3 5 4.3 7.1 5.3 5 6.7 5 6 8.4" fill="#FFFFFF"/><path d="M15.6 8.4C15.3 8.5 15.2 8.5 15 8.5 14.5 8.5 14.3 8.3 14.3 7.9 14.3 7.8 14.3 7.7 14.3 7.6L14.4 7.4 14.4 7.1 14.8 5 15.6 5 15.5 5.6 16 5.6 15.8 6.3 15.4 6.3 15.2 7.5C15.2 7.5 15.2 7.6 15.2 7.6 15.2 7.8 15.3 7.8 15.5 7.8 15.6 7.8 15.6 7.8 15.7 7.8L15.6 8.4" fill="#FFFFFF"/><path d="M17.8 6.5L17.8 6.4 17.9 5.9C17.9 5.9 17.9 5.9 17.9 5.9 17.8 5.9 17.8 5.9 17.8 5.9L17.7 5.9C17.4 5.9 17.2 6 17 6.3L17 5.8 16.2 5.8 15.6 8.6 16.5 8.6C16.6 8 16.7 7.6 16.7 7.3 16.8 6.8 17.2 6.6 17.5 6.7 17.5 6.7 17.5 6.7 17.6 6.7L17.6 6.7 17.8 6.5" fill="#0B2D5A"/><path d="M18.1 5.7C18 5.6 18 5.6 18 5.6 17.9 5.6 17.9 5.6 17.9 5.6L17.8 5.6C17.5 5.6 17.3 5.7 17.1 6.1L17.2 5.6 16.4 5.6 15.8 8.4 16.7 8.4C17 6.7 17.1 6.4 17.6 6.4 17.6 6.4 17.6 6.4 17.7 6.4L17.8 6.5 18.1 5.7" fill="#FFFFFF"/><path d="M12.2 6.5C12.2 6.9 12.4 7.1 12.8 7.3 13.2 7.4 13.2 7.5 13.2 7.6 13.2 7.8 13.1 7.9 12.7 7.9 12.5 7.9 12.2 7.8 12 7.8L11.8 8.4 11.9 8.4 12 8.4C12.1 8.4 12.2 8.5 12.3 8.5 12.5 8.5 12.6 8.5 12.8 8.5 13.7 8.5 14.1 8.2 14.1 7.6 14.1 7.2 13.9 6.9 13.5 6.8 13.1 6.6 13.1 6.6 13.1 6.5 13.1 6.3 13.2 6.2 13.5 6.2 13.7 6.2 13.9 6.3 14.1 6.3L14.2 5.6C14 5.6 13.7 5.6 13.5 5.6 12.5 5.6 12.2 6 12.2 6.5" fill="#FFFFFF"/><path d="M8.8 8.4L8.1 8.4 8.1 8.2C7.9 8.4 7.6 8.5 7.2 8.5 6.7 8.5 6.4 8.2 6.4 7.7 6.4 7 6.9 6.7 7.9 6.7 8 6.7 8.1 6.7 8.3 6.7 8.3 6.6 8.3 6.5 8.3 6.5 8.3 6.3 8.1 6.2 7.7 6.2 7.5 6.2 7.2 6.3 7 6.3L6.9 6.3 6.8 6.4 6.9 5.7C7.4 5.6 7.6 5.6 8 5.6 8.7 5.6 9.1 5.9 9.1 6.4 9.1 6.5 9.1 6.7 9 7L8.8 8 8.8 8.1 8.8 8.3 8.8 8.4 8.8 8.4 8.8 8.4ZM8.1 7.2C8.1 7.2 8 7.2 8 7.2 7.5 7.2 7.2 7.3 7.2 7.6 7.2 7.8 7.3 7.9 7.5 7.9 7.9 7.9 8.1 7.6 8.1 7.2L8.1 7.2Z" fill="#FFFFFF"/><path d="M11.6 8.4C11.3 8.5 11 8.5 10.7 8.5 9.8 8.5 9.3 8.1 9.3 7.2 9.3 6.3 9.9 5.6 10.8 5.6 11.5 5.6 11.9 6 11.9 6.6 11.9 6.8 11.9 7 11.8 7.3L10.1 7.3 10.1 7.4C10.1 7.7 10.3 7.9 10.8 7.9 11.1 7.9 11.4 7.8 11.7 7.7L11.6 8.4 11.6 8.4ZM11.1 6.7L11.1 6.6C11.1 6.3 11 6.2 10.7 6.2 10.5 6.2 10.3 6.4 10.2 6.7L11.1 6.7 11.1 6.7Z" fill="#FFFFFF"/><path d="M20.8 7.2C20.6 8.1 20 8.5 19.1 8.5 18.1 8.5 17.7 7.9 17.7 7.2 17.7 6.2 18.4 5.6 19.4 5.6 20.3 5.6 20.8 6.1 20.8 6.8 20.8 7 20.8 7 20.8 7.2L20.8 7.2ZM19.9 6.8C19.9 6.5 19.7 6.3 19.4 6.3 19 6.3 18.7 6.8 18.7 7.2 18.7 7.6 18.9 7.8 19.2 7.8 19.4 7.8 19.8 7.6 19.8 7.2 19.9 7 19.9 6.9 19.9 6.8L19.9 6.8Z" fill="#FFFFFF"/></g></svg>