<svg xmlns="http://www.w3.org/2000/svg" viewBox="0 0 26 18" version="1.1"><g fill-rule="evenodd" transform="translate(1.000000, 5.000000)"><path d="M8.3 7L9.6 0 11.5 0 10.3 7 8.3 7" fill="#00589F"/><path d="M17.4 0.3C17 0.1 16.4 0 15.6 0 13.7 0 12.3 0.9 12.3 2.2 12.3 3.2 13.3 3.7 14 4.1 14.8 4.4 15.1 4.6 15 4.9 15 5.3 14.4 5.6 13.9 5.6 13.1 5.6 12.7 5.5 12 5.2L11.8 5.1 11.5 6.6C12 6.8 12.8 7 13.7 7 15.7 7 17.1 6.1 17.1 4.7 17.1 3.9 16.6 3.3 15.5 2.8 14.8 2.5 14.4 2.3 14.4 2 14.4 1.7 14.7 1.4 15.5 1.4 16.1 1.4 16.6 1.5 16.9 1.7L17.1 1.7 17.4 0.3" fill="#00589F"/><path d="M22.4 0L20.9 0C20.4 0 20.1 0.1 19.8 0.6L17 7 19 7C19 7 19.3 6.1 19.4 5.9 19.6 5.9 21.6 5.9 21.9 5.9 22 6.2 22.1 7 22.1 7L24 7 22.4 0 22.4 0ZM20 4.5C20.1 4.1 20.7 2.6 20.7 2.6 20.7 2.6 20.9 2.1 21 1.9L21.1 2.5C21.1 2.5 21.5 4.2 21.6 4.5L20 4.5 20 4.5Z" fill="#00589F"/><path d="M6.7 0L4.8 4.8 4.6 3.8C4.2 2.7 3.1 1.5 1.9 0.9L3.6 7 5.7 7 8.8 0 6.7 0" fill="#00589F"/><path d="M3.1 0L0 0 0 0.1C2.4 0.7 3.9 2.1 4.6 3.8L3.9 0.6C3.8 0.1 3.5 0 3.1 0" fill="#F9A51A"/></g></svg>
