<svg xmlns="http://www.w3.org/2000/svg" viewBox="0 0 18 19" version="1.1"><g stroke="none" stroke-width="1" fill="none" fill-rule="evenodd"><circle fill="#E1E1E1" cx="9" cy="9" r="9"/><path d="M7.7 12.18L7.7 14.33 9.9 14.33 9.9 12.18 7.7 12.18ZM5.45 7.56L7.51 7.56C7.51 7.31 7.53 7.07 7.59 6.85 7.65 6.63 7.73 6.44 7.85 6.28 7.97 6.11 8.11 5.98 8.3 5.88 8.48 5.79 8.7 5.74 8.95 5.74 9.32 5.74 9.61 5.84 9.82 6.05 10.03 6.25 10.14 6.57 10.14 7 10.15 7.25 10.1 7.46 10.01 7.63 9.91 7.8 9.78 7.95 9.62 8.09 9.46 8.23 9.29 8.37 9.1 8.51 8.92 8.65 8.74 8.82 8.57 9.01 8.4 9.2 8.26 9.43 8.13 9.7 8 9.97 7.93 10.31 7.9 10.71L7.9 11.34 9.79 11.34 9.79 10.81C9.83 10.53 9.92 10.29 10.06 10.11 10.21 9.92 10.37 9.75 10.56 9.61 10.74 9.46 10.94 9.32 11.15 9.17 11.36 9.03 11.55 8.86 11.73 8.65 11.9 8.44 12.04 8.2 12.16 7.91 12.28 7.62 12.34 7.25 12.34 6.8 12.34 6.53 12.28 6.24 12.16 5.93 12.04 5.61 11.85 5.32 11.58 5.05 11.31 4.78 10.95 4.55 10.51 4.37 10.07 4.19 9.51 4.1 8.85 4.1 8.34 4.1 7.87 4.19 7.46 4.36 7.04 4.53 6.69 4.77 6.39 5.08 6.1 5.39 5.87 5.75 5.71 6.17 5.54 6.59 5.46 7.05 5.45 7.56L5.45 7.56Z" fill="#FFFFFF"/></g></svg>