<svg xmlns="http://www.w3.org/2000/svg" viewBox="0 0 28 22" version="1.1"><g fill-rule="evenodd"><g transform="translate(-225.000000, -5.000000)"><g transform="translate(224.000000, 5.000000)"><rect fill="#939090" x="1" y="0" width="28" height="22"/><rect fill="#FFFFFF" x="2" y="1" width="26" height="20"/><path d="M3 21L28 21C28 21 28 14.1 28 12 20.8 18 10.2 21 3 21Z" fill="#E7772F"/><g transform="translate(3.000000, 8.000000)"><path d="M1.2 0.2L0.1 0.2 0.1 3.8 1.1 3.8C1.7 3.8 2.1 3.6 2.5 3.3 3 3 3.2 2.5 3.2 2 3.2 0.9 2.4 0.2 1.2 0.2L1.2 0.2ZM2 2.9C1.8 3.1 1.5 3.2 1 3.2L0.8 3.2 0.8 0.8 1 0.8C1.5 0.8 1.8 0.9 2 1.1 2.3 1.3 2.4 1.6 2.4 2 2.4 2.3 2.3 2.7 2 2.9L2 2.9Z" fill="#1A1918"/><path d="M3.6 0.2L4.3 0.2 4.3 3.8 3.6 3.8 3.6 0.2Z" fill="#1A1918"/><path d="M6.1 1.6C5.7 1.4 5.6 1.3 5.6 1.1 5.6 0.9 5.8 0.7 6.1 0.7 6.3 0.7 6.5 0.8 6.7 1L7.1 0.5C6.8 0.3 6.4 0.1 6 0.1 5.3 0.1 4.8 0.6 4.8 1.2 4.8 1.6 5 1.9 5.7 2.1 6 2.2 6.2 2.3 6.2 2.3 6.4 2.4 6.5 2.6 6.5 2.7 6.5 3 6.2 3.2 5.9 3.2 5.5 3.2 5.2 3 5.1 2.7L4.6 3.2C4.9 3.6 5.3 3.8 5.9 3.8 6.7 3.8 7.2 3.4 7.2 2.7 7.2 2.1 7 1.8 6.1 1.6" fill="#1A1918"/><path d="M7.5 2C7.5 3 8.4 3.8 9.5 3.8 9.8 3.8 10.1 3.8 10.4 3.6L10.4 2.8C10.1 3.1 9.9 3.2 9.5 3.2 8.8 3.2 8.2 2.7 8.2 2 8.2 1.3 8.8 0.7 9.5 0.7 9.9 0.7 10.1 0.9 10.4 1.1L10.4 0.3C10.1 0.2 9.8 0.1 9.5 0.1 8.4 0.1 7.5 0.9 7.5 2" fill="#1A1918"/><path d="M16.4 2.6L15.3 0.2 14.5 0.2 16.2 3.9 16.6 3.9 18.2 0.2 17.4 0.2 16.4 2.6" fill="#1A1918"/><path d="M18.5 3.8L20.7 3.8 20.7 3.2 19.3 3.2 19.3 2.2 20.6 2.2 20.6 1.6 19.3 1.6 19.3 0.8 20.7 0.8 20.7 0.2 18.5 0.2 18.5 3.8" fill="#1A1918"/><path d="M23.6 1.2C23.6 0.6 23.1 0.2 22.3 0.2L21.2 0.2 21.2 3.8 21.9 3.8 21.9 2.3 22 2.3 23 3.8 24 3.8 22.8 2.3C23.3 2.1 23.6 1.8 23.6 1.2L23.6 1.2ZM22.1 1.8L21.9 1.8 21.9 0.8 22.1 0.8C22.6 0.8 22.9 0.9 22.9 1.3 22.9 1.6 22.6 1.8 22.1 1.8L22.1 1.8Z" fill="#1A1918"/><path d="M14.7 2C14.7 3 13.8 3.9 12.7 3.9 11.6 3.9 10.7 3 10.7 2 10.7 0.9 11.6 0.1 12.7 0.1 13.8 0.1 14.7 0.9 14.7 2" fill="#E7772F"/></g></g></g></g></svg>