<svg xmlns="http://www.w3.org/2000/svg" xmlns:xlink="http://www.w3.org/1999/xlink" width="35" height="22" viewBox="0 0 35 22" version="1.1"><defs><rect id="path-1" x="0" y="0" width="35" height="22" rx="2"/></defs><g fill-rule="evenodd"><g transform="translate(-88.000000, 0.000000)"><g transform="translate(88.000000, 0.000000)"><use fill="#004593" fill-rule="evenodd" xlink:href="#path-1"/><use fill="none" xlink:href="#path-1"/><g transform="translate(5.000000, 3.000000)"><g transform="translate(0.000000, 0.500000)"><path d="M12.59 13.05C13.91 14.26 15.65 14.99 17.56 14.99 21.64 14.99 24.95 11.64 24.95 7.5 24.95 3.36 21.64 0.01 17.56 0.01 15.65 0.01 13.91 0.74 12.59 1.95 11.1 3.32 10.16 5.3 10.16 7.5 10.16 9.7 11.1 11.68 12.59 13.05" fill="#D82332"/><path fill="#F8971D"/><path d="M14.98 6.71C14.95 6.44 14.91 6.17 14.86 5.91L10.33 5.91C10.39 5.64 10.46 5.38 10.54 5.12L14.64 5.12C14.55 4.85 14.45 4.58 14.33 4.33L10.86 4.33C10.98 4.05 11.13 3.79 11.29 3.53L13.9 3.53C13.73 3.26 13.54 2.99 13.34 2.74L11.85 2.74C12.08 2.46 12.33 2.19 12.59 1.95 11.28 0.74 9.54 0.01 7.63 0.01 3.55 0.01 0.24 3.36 0.24 7.5 0.24 11.64 3.55 14.99 7.63 14.99 9.54 14.99 11.28 14.26 12.59 13.05 12.86 12.81 13.11 12.54 13.34 12.26L11.85 12.26C11.64 12.01 11.46 11.74 11.29 11.47L13.9 11.47C14.06 11.21 14.2 10.95 14.33 10.67L10.86 10.67C10.74 10.42 10.63 10.15 10.54 9.88L14.64 9.88C14.73 9.62 14.8 9.36 14.86 9.09 14.91 8.83 14.95 8.56 14.98 8.29 15.01 8.03 15.02 7.77 15.02 7.5 15.02 7.23 15.01 6.97 14.98 6.71" fill="#0092C7"/><path fill="#FFFFFF"/></g></g><g transform="translate(7.000000, 8.000000)"><path d="M4.33 4.78L3.42 4.78 3.96 1.87 2.72 4.78 1.95 4.78 1.79 1.88 1.2 4.78 0.37 4.78 1.07 0.99 2.51 0.99 2.52 3.33 3.52 0.99 5.04 0.99 4.33 4.78" fill="#0B2D5A"/><path d="M14.44 4.73C14.18 4.8 14 4.83 13.78 4.83 13.33 4.83 13.07 4.6 13.07 4.16 13.07 4.07 13.09 3.97 13.1 3.88L13.16 3.58 13.2 3.34 13.61 0.99 14.51 0.99 14.38 1.69 14.84 1.69 14.72 2.44 14.25 2.44 14.01 3.72C14.01 3.78 14 3.83 14 3.85 14 4.02 14.1 4.07 14.31 4.07 14.41 4.07 14.5 4.07 14.55 4.04L14.44 4.73" fill="#0B2D5A"/><path d="M10.85 2.67C10.85 3.05 11.06 3.33 11.53 3.52 11.92 3.68 11.98 3.72 11.98 3.87 11.98 4.06 11.8 4.15 11.45 4.15 11.16 4.15 10.92 4.1 10.62 4.02L10.49 4.73 10.54 4.73 10.71 4.76C10.77 4.78 10.84 4.79 10.95 4.79 11.16 4.8 11.34 4.82 11.45 4.82 12.42 4.82 12.86 4.5 12.86 3.8 12.86 3.37 12.67 3.12 12.22 2.93 11.83 2.79 11.79 2.74 11.79 2.6 11.79 2.44 11.95 2.35 12.23 2.35 12.42 2.35 12.66 2.36 12.9 2.39L13.03 1.69C12.79 1.65 12.43 1.62 12.22 1.62 11.19 1.62 10.84 2.1 10.85 2.67" fill="#0B2D5A"/><path d="M7.26 4.78L6.51 4.78 6.52 4.45C6.29 4.7 5.98 4.82 5.57 4.82 5.08 4.82 4.74 4.48 4.74 3.99 4.74 3.24 5.33 2.8 6.34 2.8 6.44 2.8 6.56 2.8 6.71 2.82 6.73 2.71 6.73 2.67 6.73 2.63 6.73 2.42 6.58 2.33 6.15 2.33 5.89 2.33 5.61 2.38 5.41 2.42L5.28 2.47 5.2 2.48 5.33 1.79C5.78 1.66 6.08 1.62 6.41 1.62 7.19 1.62 7.6 1.94 7.6 2.52 7.6 2.68 7.59 2.79 7.52 3.14L7.33 4.22 7.3 4.42 7.28 4.59 7.26 4.69 7.26 4.78 7.26 4.78ZM6.65 3.4C6.55 3.39 6.51 3.39 6.44 3.39 5.92 3.39 5.67 3.55 5.67 3.85 5.67 4.04 5.79 4.16 5.99 4.16 6.36 4.16 6.64 3.85 6.65 3.4L6.65 3.4Z" fill="#0B2D5A"/><path d="M10.22 4.7C9.93 4.79 9.63 4.83 9.3 4.83 8.29 4.83 7.76 4.35 7.76 3.45 7.76 2.39 8.43 1.62 9.34 1.62 10.1 1.62 10.57 2.06 10.57 2.73 10.57 2.96 10.54 3.18 10.45 3.49L8.66 3.49C8.64 3.55 8.64 3.56 8.64 3.59 8.64 3.94 8.91 4.13 9.44 4.13 9.77 4.13 10.05 4.07 10.38 3.93L10.22 4.7 10.22 4.7ZM9.8 2.87L9.8 2.71C9.8 2.47 9.64 2.32 9.37 2.32 9.08 2.32 8.87 2.51 8.79 2.87L9.8 2.87 9.8 2.87Z" fill="#0B2D5A"/><path d="M19.88 3.37C19.75 4.4 19.05 4.85 18.13 4.85 17.1 4.85 16.69 4.22 16.69 3.43 16.69 2.35 17.39 1.6 18.47 1.6 19.41 1.6 19.91 2.22 19.91 2.99 19.91 3.18 19.91 3.2 19.88 3.37L19.88 3.37ZM18.97 3.01C18.97 2.68 18.84 2.38 18.47 2.38 18.01 2.38 17.72 2.95 17.72 3.43 17.72 3.85 17.91 4.13 18.24 4.13 18.44 4.13 18.85 3.85 18.94 3.37 18.95 3.27 18.97 3.14 18.97 3.01L18.97 3.01Z" fill="#0B2D5A"/><path fill="#FFFFFF"/><path d="M4.56 4.56L3.64 4.56 4.19 1.65 2.95 4.56 2.12 4.56 1.98 1.66 1.44 4.56 0.61 4.56 1.31 0.77 2.73 0.77 2.8 3.11 3.8 0.77 5.27 0.77 4.56 4.56" fill="#FFFFFF"/><path d="M14.67 4.51C14.41 4.59 14.23 4.61 14.01 4.61 13.56 4.61 13.3 4.38 13.3 3.94 13.3 3.85 13.31 3.77 13.33 3.66L13.39 3.36 13.43 3.12 13.84 0.77 14.74 0.77 14.61 1.47 15.08 1.47 14.95 2.22 14.48 2.22 14.25 3.5C14.24 3.56 14.23 3.61 14.23 3.63 14.23 3.8 14.33 3.87 14.54 3.87 14.64 3.87 14.72 3.85 14.78 3.84L14.67 4.51" fill="#FFFFFF"/><path d="M16.99 2.36L16.97 2.26 17.15 1.78C17.1 1.78 17.09 1.78 17.07 1.76 17.03 1.76 17 1.75 17 1.75L16.92 1.75C16.62 1.75 16.41 1.88 16.12 2.25L16.22 1.69 15.28 1.69 14.72 4.78 15.62 4.78C15.75 4.06 15.81 3.66 15.88 3.33 15.99 2.77 16.39 2.52 16.69 2.58 16.72 2.58 16.75 2.58 16.79 2.6L16.85 2.63 16.99 2.36" fill="#0B2D5A"/><path d="M17.3 1.5C17.23 1.47 17.22 1.47 17.2 1.47 17.16 1.46 17.13 1.46 17.13 1.44L17.03 1.44C16.73 1.44 16.52 1.57 16.25 1.94L16.33 1.47 15.51 1.47 14.95 4.56 15.86 4.56C16.19 2.67 16.32 2.33 16.76 2.33 16.79 2.33 16.83 2.35 16.87 2.35L16.97 2.38 17.3 1.5" fill="#FFFFFF"/><path d="M11.08 2.45C11.08 2.83 11.29 3.11 11.78 3.3 12.15 3.46 12.2 3.5 12.2 3.65 12.2 3.84 12.03 3.93 11.68 3.93 11.41 3.93 11.15 3.88 10.85 3.8L10.74 4.51 10.78 4.51 10.94 4.56C10.99 4.56 11.08 4.57 11.18 4.57 11.39 4.6 11.56 4.6 11.69 4.6 12.65 4.6 13.1 4.28 13.1 3.58 13.1 3.15 12.92 2.9 12.45 2.71 12.06 2.57 12.02 2.52 12.02 2.38 12.02 2.22 12.18 2.13 12.47 2.13 12.65 2.13 12.9 2.14 13.13 2.17L13.26 1.47C13.02 1.43 12.66 1.41 12.46 1.41 11.43 1.41 11.08 1.88 11.08 2.45" fill="#FFFFFF"/><path d="M7.49 4.56L6.75 4.56 6.76 4.23C6.54 4.48 6.22 4.6 5.81 4.6 5.33 4.6 4.98 4.26 4.98 3.77 4.98 3.02 5.57 2.58 6.58 2.58 6.68 2.58 6.81 2.58 6.95 2.6 6.98 2.49 6.98 2.45 6.98 2.41 6.98 2.2 6.82 2.13 6.39 2.13 6.14 2.13 5.85 2.16 5.65 2.2L5.52 2.25 5.44 2.26 5.57 1.57C6.02 1.46 6.31 1.41 6.65 1.41 7.43 1.41 7.83 1.72 7.83 2.3 7.83 2.47 7.82 2.58 7.76 2.92L7.58 4.02 7.55 4.21 7.52 4.37 7.5 4.47 7.49 4.56 7.49 4.56ZM6.83 3.18C6.73 3.17 6.69 3.17 6.64 3.17 6.12 3.17 5.87 3.33 5.87 3.63 5.87 3.83 5.98 3.96 6.18 3.96 6.55 3.96 6.82 3.63 6.83 3.18L6.83 3.18Z" fill="#FFFFFF"/><path d="M10.47 4.48C10.15 4.57 9.85 4.61 9.54 4.61 8.53 4.61 8 4.13 8 3.23 8 2.17 8.67 1.4 9.58 1.4 10.32 1.4 10.79 1.84 10.79 2.51 10.79 2.74 10.77 2.96 10.69 3.27L8.89 3.27 8.89 3.37C8.89 3.72 9.14 3.91 9.67 3.91 10 3.91 10.3 3.85 10.61 3.72L10.47 4.48 10.47 4.48ZM9.98 2.66L9.98 2.49C9.98 2.25 9.83 2.1 9.55 2.1 9.27 2.1 9.07 2.3 8.99 2.66L9.98 2.66 9.98 2.66Z" fill="#FFFFFF"/><path d="M20.12 3.15C19.98 4.18 19.28 4.63 18.36 4.63 17.34 4.63 16.93 4 16.93 3.21 16.93 2.13 17.63 1.38 18.71 1.38 19.65 1.38 20.15 2 20.15 2.77 20.15 2.96 20.15 2.98 20.12 3.15L20.12 3.15ZM19.18 2.76C19.18 2.44 19.05 2.14 18.68 2.14 18.23 2.14 17.94 2.7 17.94 3.2 17.94 3.61 18.14 3.88 18.46 3.88 18.66 3.88 19.08 3.61 19.15 3.14 19.18 3.02 19.18 2.89 19.18 2.76L19.18 2.76Z" fill="#FFFFFF"/></g></g></g></g></svg>