<svg xmlns="http://www.w3.org/2000/svg" xmlns:xlink="http://www.w3.org/1999/xlink" width="35" height="22" viewBox="0 0 35 22" version="1.1"><defs><rect id="path-1" x="0" y="0" width="35" height="22" rx="2"/></defs><g fill-rule="evenodd"><use fill="#004593" fill-rule="evenodd" xlink:href="#path-1"/><use fill="none" xlink:href="#path-1"/><g transform="translate(5.000000, 3.000000)"><g transform="translate(0.000000, 0.500000)"><path d="M12.59 13.05C13.91 14.26 15.65 14.99 17.56 14.99 21.64 14.99 24.95 11.64 24.95 7.5 24.95 3.36 21.64 0.01 17.56 0.01 15.65 0.01 13.91 0.74 12.59 1.95 11.1 3.32 10.16 5.3 10.16 7.5 10.16 9.7 11.1 11.68 12.59 13.05" fill="#F8971D"/><path fill="#F8971D"/><path d="M14.98 6.71C14.95 6.44 14.91 6.17 14.86 5.91L10.33 5.91C10.39 5.64 10.46 5.38 10.54 5.12L14.64 5.12C14.55 4.85 14.45 4.58 14.33 4.33L10.86 4.33C10.98 4.05 11.13 3.79 11.29 3.53L13.9 3.53C13.73 3.26 13.54 2.99 13.34 2.74L11.85 2.74C12.08 2.46 12.33 2.19 12.59 1.95 11.28 0.74 9.54 0.01 7.63 0.01 3.55 0.01 0.24 3.36 0.24 7.5 0.24 11.64 3.55 14.99 7.63 14.99 9.54 14.99 11.28 14.26 12.59 13.05 12.86 12.81 13.11 12.54 13.34 12.26L11.85 12.26C11.64 12.01 11.46 11.74 11.29 11.47L13.9 11.47C14.06 11.21 14.2 10.95 14.33 10.67L10.86 10.67C10.74 10.42 10.63 10.15 10.54 9.88L14.64 9.88C14.73 9.62 14.8 9.36 14.86 9.09 14.91 8.83 14.95 8.56 14.98 8.29 15.01 8.03 15.02 7.77 15.02 7.5 15.02 7.23 15.01 6.97 14.98 6.71" fill="#CA1F27"/><path fill="#FFFFFF"/><path d="M10.08 9.66C9.83 9.73 9.66 9.76 9.48 9.76 9.1 9.76 8.87 9.52 8.87 9.09 8.87 9 8.88 8.91 8.89 8.81L8.94 8.51 8.98 8.26 9.33 6.15 10.1 6.15 10 6.61 10.49 6.61 10.37 7.39 9.89 7.39 9.68 8.65C9.67 8.71 9.67 8.75 9.67 8.78 9.67 8.94 9.75 9.01 9.94 9.01 10.03 9.01 10.1 9 10.19 8.98L10.08 9.66" fill="#221F5F"/><path d="M12.56 9.63C12.28 9.72 12.02 9.76 11.74 9.76 10.88 9.76 10.37 9.28 10.37 8.38 10.37 7.32 10.97 6.53 11.77 6.53 12.43 6.53 12.86 6.97 12.86 7.66 12.86 7.88 12.83 8.11 12.76 8.42L11.16 8.42C11.16 8.47 11.15 8.49 11.15 8.52 11.15 8.88 11.39 9.06 11.86 9.06 12.15 9.06 12.4 9 12.69 8.86L12.56 9.63M12.08 7.8C12.08 7.73 12.09 7.68 12.09 7.64 12.09 7.39 11.95 7.24 11.71 7.24 11.45 7.24 11.27 7.44 11.2 7.79L12.08 7.8" fill="#221F5F"/><path d="M3.95 9.7L3.15 9.7 3.61 6.78 2.58 9.7 2.04 9.7 1.97 6.8 1.49 9.7 0.71 9.7 1.33 5.9 2.49 5.9 2.52 8.25 3.3 5.9 4.57 5.9 3.95 9.7" fill="#221F5F"/><path d="M5.88 8.33C5.8 8.31 5.78 8.31 5.72 8.31 5.27 8.31 5.04 8.49 5.04 8.78 5.04 8.97 5.15 9.1 5.33 9.1 5.71 9.1 5.87 8.78 5.88 8.33M6.52 9.7L5.82 9.7 5.84 9.38C5.66 9.62 5.42 9.75 4.99 9.75 4.61 9.75 4.28 9.41 4.28 8.91 4.28 8.76 4.31 8.63 4.34 8.51 4.47 8.03 4.94 7.73 5.67 7.72 5.76 7.72 5.9 7.72 6.02 7.73 6.05 7.63 6.06 7.59 6.06 7.53 6.06 7.33 5.89 7.26 5.51 7.26 5.29 7.26 5.03 7.3 4.85 7.36L4.74 7.39 4.69 7.4 4.8 6.71C5.18 6.59 5.44 6.54 5.74 6.54 6.43 6.54 6.79 6.86 6.79 7.45 6.79 7.6 6.81 7.72 6.75 8.06L6.59 9.16 6.56 9.35 6.54 9.51 6.52 9.62 6.52 9.7" fill="#221F5F"/><path d="M16.42 6.64C16.64 6.64 16.85 6.7 17.14 6.85L17.27 6.02C17.2 5.99 17.18 5.98 17.07 5.95L16.74 5.86C16.64 5.84 16.52 5.82 16.38 5.82 15.99 5.82 15.75 5.83 15.51 5.98 15.38 6.06 15.22 6.17 15.03 6.38L14.94 6.35 14.12 6.94 14.16 6.61 13.31 6.61 12.82 9.7 13.62 9.7 13.92 8.04C13.92 8.04 14.03 7.81 14.08 7.74 14.23 7.54 14.36 7.54 14.53 7.54 14.55 7.54 14.58 7.54 14.59 7.54 14.56 7.72 14.55 7.92 14.55 8.13 14.55 9.14 15.12 9.77 15.98 9.77 16.2 9.77 16.39 9.74 16.69 9.66L16.83 8.79C16.56 8.93 16.35 8.99 16.15 8.99 15.68 8.99 15.4 8.64 15.4 8.06 15.4 7.23 15.82 6.64 16.42 6.64" fill="#221F5F"/><path d="M23.2 5.9L23.02 6.99C22.83 6.69 22.6 6.55 22.29 6.55 21.87 6.55 21.48 6.8 21.24 7.25L21.24 7.25 20.73 6.94 20.77 6.61 19.92 6.61 19.43 9.7 20.23 9.7 20.5 8.04C20.5 8.04 20.7 7.81 20.75 7.74 20.87 7.58 21 7.55 21.11 7.54 21.02 7.8 20.96 8.11 20.96 8.46 20.96 9.23 21.36 9.74 21.95 9.74 22.24 9.74 22.47 9.64 22.69 9.4L22.65 9.7 23.41 9.7 24.02 5.9 23.2 5.9M22.22 8.97C21.95 8.97 21.81 8.77 21.81 8.36 21.81 7.76 22.07 7.33 22.43 7.33 22.71 7.33 22.86 7.54 22.86 7.93 22.86 8.55 22.6 8.97 22.22 8.97" fill="#221F5F"/><path d="M18.53 8.33C18.44 8.31 18.43 8.31 18.37 8.31 17.91 8.31 17.68 8.49 17.68 8.78 17.68 8.97 17.8 9.1 17.97 9.1 18.36 9.1 18.51 8.78 18.53 8.33M19.16 9.7L18.47 9.7 18.48 9.38C18.31 9.62 18.07 9.75 17.64 9.75 17.25 9.75 16.9 9.42 16.9 8.91 16.91 8.17 17.45 7.72 18.32 7.72 18.41 7.72 18.55 7.72 18.67 7.73 18.69 7.63 18.7 7.59 18.7 7.53 18.7 7.33 18.54 7.26 18.16 7.26 17.93 7.26 17.68 7.3 17.5 7.36L17.38 7.39 17.34 7.4 17.45 6.71C17.82 6.59 18.09 6.54 18.38 6.54 19.07 6.54 19.44 6.86 19.44 7.45 19.44 7.6 19.45 7.72 19.4 8.06L19.23 9.16 19.2 9.35 19.18 9.51 19.17 9.62 19.16 9.7" fill="#221F5F"/><path d="M8.19 7.27C8.35 7.27 8.56 7.29 8.79 7.32L8.91 6.61C8.67 6.57 8.37 6.54 8.19 6.54 7.29 6.54 7 7.03 7 7.6 7 7.97 7.17 8.24 7.6 8.44 7.92 8.6 7.98 8.63 7.98 8.77 7.98 8.96 7.81 9.07 7.49 9.07 7.25 9.07 7.03 9.03 6.78 8.95L6.68 9.66 6.7 9.66 6.85 9.69C6.89 9.7 6.97 9.71 7.06 9.72 7.25 9.74 7.41 9.75 7.51 9.75 8.4 9.75 8.77 9.4 8.77 8.72 8.77 8.3 8.57 8.05 8.17 7.86 7.84 7.7 7.79 7.68 7.8 7.54 7.8 7.4 7.94 7.27 8.19 7.27" fill="#221F5F"/><path d="M17.48 5.78L17.35 6.61C17.07 6.46 16.86 6.4 16.64 6.4 16.04 6.4 15.62 6.99 15.62 7.82 15.62 8.4 15.9 8.75 16.37 8.75 16.56 8.75 16.78 8.69 17.05 8.55L16.91 9.42C16.61 9.5 16.42 9.53 16.2 9.53 15.33 9.53 14.79 8.9 14.79 7.89 14.79 6.53 15.54 5.58 16.6 5.58 16.74 5.58 16.86 5.6 16.96 5.62L17.29 5.71C17.39 5.74 17.41 5.75 17.48 5.78" fill="#FFFFFF"/><path d="M14.91 6.35C14.88 6.34 14.86 6.34 14.83 6.34 14.56 6.34 14.41 6.48 14.17 6.84L14.24 6.37 13.51 6.37 13.02 9.46 13.83 9.46C14.11 7.57 14.19 7.25 14.57 7.25 14.6 7.25 14.6 7.25 14.63 7.25 14.7 6.88 14.8 6.6 14.94 6.35L14.91 6.35" fill="#FFFFFF"/><path d="M10.28 9.42C10.06 9.49 9.89 9.52 9.71 9.52 9.3 9.52 9.07 9.29 9.07 8.85 9.07 8.76 9.08 8.67 9.1 8.57L9.15 8.27 9.18 8.02 9.53 5.91 10.33 5.91 10.24 6.37 10.65 6.37 10.54 7.12 10.12 7.12 9.91 8.41C9.9 8.47 9.9 8.51 9.9 8.54 9.9 8.7 9.98 8.77 10.17 8.77 10.27 8.77 10.34 8.76 10.39 8.74L10.28 9.42" fill="#FFFFFF"/><path d="M7.2 7.35C7.2 7.74 7.39 8.01 7.81 8.21 8.14 8.37 8.19 8.41 8.19 8.55 8.19 8.74 8.04 8.83 7.73 8.83 7.49 8.83 7.26 8.79 7.01 8.71L6.9 9.42 6.93 9.43 7.08 9.46C7.13 9.47 7.2 9.48 7.29 9.49 7.48 9.5 7.63 9.51 7.73 9.51 8.58 9.51 8.97 9.19 8.97 8.48 8.97 8.06 8.8 7.81 8.4 7.62 8.07 7.46 8.03 7.43 8.03 7.29 8.03 7.12 8.16 7.03 8.42 7.03 8.58 7.03 8.79 7.05 9 7.08L9.11 6.36C8.9 6.33 8.59 6.3 8.4 6.3 7.51 6.3 7.2 6.78 7.2 7.35" fill="#FFFFFF"/><path d="M23.61 9.46L22.85 9.46 22.89 9.16C22.67 9.4 22.44 9.5 22.15 9.5 21.57 9.5 21.18 8.99 21.18 8.22 21.18 7.19 21.78 6.32 22.49 6.32 22.8 6.32 23.04 6.46 23.26 6.75L23.43 5.66 24.22 5.66 23.61 9.46M22.43 8.74C22.8 8.74 23.07 8.31 23.07 7.69 23.07 7.3 22.92 7.09 22.64 7.09 22.27 7.09 22.02 7.52 22.02 8.13 22.02 8.53 22.15 8.74 22.43 8.74" fill="#FFFFFF"/><path d="M12.74 9.4C12.46 9.48 12.19 9.52 11.91 9.52 11.02 9.52 10.55 9.05 10.55 8.14 10.55 7.08 11.14 6.3 11.95 6.3 12.61 6.3 13.03 6.73 13.03 7.42 13.03 7.65 13 7.87 12.93 8.18L11.34 8.18C11.33 8.23 11.33 8.25 11.33 8.28 11.33 8.64 11.57 8.82 12.04 8.82 12.32 8.82 12.58 8.76 12.87 8.62L12.74 9.4M12.29 7.56C12.29 7.49 12.29 7.44 12.29 7.4 12.29 7.15 12.15 7 11.91 7 11.66 7 11.48 7.2 11.4 7.56L12.29 7.56" fill="#FFFFFF"/><path d="M4.16 9.46L3.35 9.46 3.81 6.54 2.79 9.46 2.24 9.46 2.17 6.56 1.69 9.46 0.94 9.46 1.57 5.66 2.72 5.66 2.75 8.02 3.53 5.66 4.78 5.66 4.16 9.46" fill="#FFFFFF"/><path d="M6.13 8.09C6.05 8.08 6.01 8.07 5.95 8.07 5.5 8.07 5.27 8.23 5.27 8.54 5.27 8.74 5.38 8.86 5.56 8.86 5.88 8.86 6.12 8.54 6.13 8.09M6.72 9.46L6.05 9.46 6.07 9.14C5.87 9.4 5.59 9.52 5.23 9.52 4.79 9.52 4.49 9.17 4.49 8.67 4.49 7.92 5.01 7.48 5.9 7.48 5.99 7.48 6.11 7.49 6.23 7.5 6.26 7.4 6.26 7.36 6.26 7.3 6.26 7.1 6.12 7.02 5.75 7.02 5.52 7.02 5.26 7.06 5.08 7.11L4.97 7.14 4.9 7.16 5.01 6.47C5.41 6.35 5.67 6.3 5.97 6.3 6.66 6.3 7.02 6.62 7.02 7.21 7.02 7.36 7.01 7.48 6.96 7.82L6.79 8.92 6.76 9.11 6.74 9.27 6.73 9.38 6.72 9.46" fill="#FFFFFF"/><path d="M18.78 8.09C18.7 8.08 18.66 8.07 18.6 8.07 18.15 8.07 17.92 8.23 17.92 8.54 17.92 8.74 18.03 8.86 18.2 8.86 18.53 8.86 18.77 8.54 18.78 8.09M19.36 9.46L18.7 9.46 18.71 9.14C18.51 9.4 18.24 9.52 17.87 9.52 17.44 9.52 17.14 9.17 17.14 8.67 17.14 7.92 17.66 7.48 18.55 7.48 18.64 7.48 18.76 7.49 18.88 7.5 18.9 7.4 18.91 7.36 18.91 7.3 18.91 7.1 18.77 7.02 18.39 7.02 18.16 7.02 17.9 7.06 17.73 7.11L17.61 7.14 17.54 7.16 17.65 6.47C18.05 6.35 18.32 6.3 18.61 6.3 19.3 6.3 19.67 6.62 19.67 7.21 19.67 7.36 19.66 7.48 19.6 7.82L19.44 8.92 19.41 9.11 19.37 9.38 19.36 9.46" fill="#FFFFFF"/><path d="M21.52 6.35C21.49 6.34 21.47 6.34 21.44 6.34 21.17 6.34 21.02 6.48 20.78 6.84L20.85 6.37 20.12 6.37 19.63 9.46 20.43 9.46C20.72 7.57 20.8 7.25 21.18 7.25 21.21 7.25 21.21 7.25 21.24 7.25 21.31 6.88 21.41 6.6 21.54 6.35L21.52 6.35" fill="#FFFFFF"/></g></g></g></svg>