<svg xmlns="http://www.w3.org/2000/svg" viewBox="0 0 30 18" version="1.1"><g fill-rule="evenodd"><path d="M28.9 16.8L1.1 16.8 1 1.1 2.2 1.1 2.2 12C2.2 12.6 2.8 13.2 3.5 13.2L28.9 13.2 28.9 16.8Z" fill="#004F8B"/><g transform="translate(5.640000, 3.500000)"><path d="M6.6 6.1L7.6 1 9.1 1 8.1 6.1 6.6 6.1" fill="#004F8B"/><path d="M13.6 1.1C13.3 1 12.9 0.9 12.3 0.9 10.8 0.9 9.7 1.6 9.7 2.6 9.7 3.3 10.5 3.7 11.1 4 11.6 4.2 11.8 4.4 11.8 4.6 11.8 5 11.4 5.1 10.9 5.1 10.3 5.1 10 5.1 9.5 4.9L9.3 4.8 9.1 5.9C9.5 6.1 10.1 6.2 10.8 6.2 12.4 6.2 13.4 5.5 13.4 4.5 13.4 3.9 13 3.4 12.2 3.1 11.6 2.8 11.3 2.7 11.3 2.4 11.3 2.2 11.6 2 12.2 2 12.7 2 13 2.1 13.3 2.2L13.4 2.2 13.6 1.1" fill="#004F8B"/><path d="M15.7 4.3C15.8 4 16.3 2.9 16.3 2.9 16.3 2.9 16.4 2.6 16.5 2.4L16.6 2.8C16.6 2.8 16.9 4.1 16.9 4.3L15.7 4.3 15.7 4.3ZM17.5 1L16.4 1C16 1 15.7 1.1 15.6 1.4L13.3 6.1 14.9 6.1C14.9 6.1 15.2 5.5 15.2 5.4L17.2 5.4C17.2 5.5 17.3 6.1 17.3 6.1L18.7 6.1 17.5 1 17.5 1Z" fill="#004F8B"/><path d="M5.4 1L3.9 4.5 3.7 3.8C3.4 3 2.6 2.1 1.6 1.6L3 6.1 4.6 6.1 7 1 5.4 1" fill="#004F8B"/><path d="M2.5 1L0.1 1 0 1.1C1.9 1.5 3.2 2.5 3.7 3.8L3.2 1.4C3.1 1.1 2.8 1 2.5 1" fill="#EE9F2D"/></g><path d="M12.9 15.9L13.2 15.9 13.2 15.9 14.1 15.9 14.1 15.6 13.3 15.6 13.4 15 14 15 14.1 14.7 13.4 14.7 13.5 14.2 14.3 14.2 14.3 13.9 13.2 13.9 12.9 15.9 12.9 15.9ZM16 15.9L16.3 15.9 16.3 15.9 17.1 15.9 17.1 15.6 16.3 15.6 16.4 15 17 15 17.1 14.7 16.4 14.7 16.5 14.2 17.3 14.2 17.4 13.9 16.3 13.9 16 15.9 16 15.9ZM14.5 15.9L14.8 15.9 14.8 15.9 15.6 15.9 15.6 15.6 14.8 15.6 15.1 13.9 14.8 13.9 14.5 15.9 14.5 15.9ZM19.9 15.9L20.3 15.9 20.3 15.9 20.3 15.9 20.5 14.2 21.2 14.2 21.3 13.9 19.6 13.9 19.6 14.2 20.2 14.2 19.9 15.9 19.9 15.9ZM21.3 15.9L21.6 15.9 21.6 15.9 21.7 15.1 21.9 15.1 22.4 15.9 22.8 15.9 22.3 15.1C22.9 14.9 23.1 13.9 22.3 13.9L21.6 13.9 21.3 15.9 21.3 15.9ZM21.8 14.8L22.1 14.8C22.4 14.8 22.6 14.1 22.3 14.1L21.9 14.1 21.8 14.8 21.8 14.8ZM24.3 13.8C24.8 13.8 25.2 14.3 25.1 14.9 25 15.5 24.5 16 24 16 23.5 16 23.1 15.5 23.2 14.9 23.3 14.3 23.7 13.8 24.3 13.8L24.3 13.8ZM24.2 14.1C24.6 14.1 24.9 14.5 24.8 14.9 24.8 15.3 24.4 15.7 24 15.7 23.7 15.7 23.4 15.3 23.4 14.9 23.5 14.5 23.9 14.1 24.2 14.1L24.2 14.1ZM25.4 15.9L25.7 15.9 25.7 15.9 26 14.3 26.8 15.9 27 15.9 27.4 13.9 27.1 13.9 26.8 15.4 26 13.9 25.7 13.9 25.4 15.9 25.4 15.9ZM18.7 13.8C18.9 13.8 19.1 13.9 19.3 14L19.1 14.3C19 14.2 18.8 14.1 18.7 14.1 18.3 14.1 17.9 14.5 17.8 14.9 17.8 15.3 18.1 15.7 18.5 15.7 18.6 15.7 18.8 15.6 19 15.5L19 15.8C18.8 15.9 18.6 16 18.4 16 17.9 16 17.5 15.5 17.6 14.9 17.6 14.3 18.1 13.8 18.7 13.8L18.7 13.8Z" fill="#FFFFFF"/></g></svg>
