<svg xmlns="http://www.w3.org/2000/svg" xmlns:xlink="http://www.w3.org/1999/xlink" width="33" height="22" viewBox="0 0 33 22" version="1.1"><g fill-rule="evenodd"><rect fill="#FFFFFF" transform="translate(16.500000, 11.000000) scale(1, -1) translate(-16.500000, -11.000000) " x="0" y="4" width="33" height="14"/><g transform="translate(3.561905, 6.285714)" fill="#1A1F71"><g transform="translate(0.938095, 0.714286)"><path d="M7.92 7.23L9.04 0.15 10.83 0.15 9.71 7.23 7.92 7.23"/><path d="M16.21 0.33C15.85 0.19 15.3 0.03 14.6 0.03 12.83 0.03 11.59 0.99 11.57 2.37 11.56 3.39 12.46 3.95 13.14 4.29 13.84 4.64 14.08 4.86 14.07 5.17 14.07 5.65 13.52 5.86 13 5.86 12.28 5.86 11.9 5.75 11.31 5.49L11.08 5.38 10.83 6.96C11.25 7.16 12.02 7.33 12.83 7.34 14.71 7.34 15.93 6.39 15.95 4.92 15.95 4.12 15.48 3.5 14.44 3 13.82 2.67 13.43 2.45 13.44 2.12 13.44 1.83 13.76 1.51 14.46 1.51 15.05 1.5 15.47 1.64 15.8 1.78L15.97 1.86 16.21 0.33"/><path d="M20.8 0.16L19.42 0.16C18.99 0.16 18.67 0.29 18.48 0.75L15.82 7.24 17.7 7.24C17.7 7.24 18.01 6.37 18.08 6.17 18.28 6.17 20.11 6.18 20.37 6.18 20.42 6.42 20.59 7.24 20.59 7.24L22.25 7.24 20.8 0.16 20.8 0.16ZM18.59 4.73C18.74 4.32 19.31 2.75 19.31 2.75 19.3 2.76 19.45 2.34 19.54 2.07L19.66 2.68C19.66 2.68 20.01 4.37 20.08 4.73L18.59 4.73 18.59 4.73Z"/><path d="M4.48 4.01L4.66 4.99 6.42 0.16 8.31 0.16 5.49 7.23 3.6 7.23 2.01 1.08C1.46 0.75 0.83 0.49 0.13 0.3L0.15 0.16 3.04 0.16C3.43 0.17 3.74 0.3 3.85 0.75L4.48 4.01Z"/></g></g><rect fill="#1A1F71" x="0" y="0" width="33" height="4"/><rect fill="#F7B600" x="0" y="17.86" width="33" height="4"/></g></svg>