<svg xmlns="http://www.w3.org/2000/svg" xmlns:xlink="http://www.w3.org/1999/xlink" width="32" height="22" viewBox="0 0 32 22" version="1.1"><g fill-rule="evenodd"><rect fill="#FFFFFF" transform="translate(16.000000, 11.000000) scale(1, -1) translate(-16.000000, -11.000000) " x="0" y="4" width="32" height="14"/><path d="M0 1.01L0 1.01 0 4 32 4 32 1.01C32 0.44 31.56 0 31.01 0L0.99 0C0.45 0 0 0.45 0 1.01L0 1.01Z" fill="#1A1F71"/><path d="M0 18L0 18 0 20.99C0 21.56 0.44 22 0.99 22L31.01 22C31.55 22 32 21.55 32 20.99L32 18 0 18Z" fill="#F7B600"/><path d="M12.29 12.98L13.41 5.9 15.21 5.9 14.08 12.98 12.29 12.98ZM20.58 6.08C20.23 5.94 19.67 5.78 18.98 5.78 17.21 5.78 15.96 6.74 15.95 8.12 15.94 9.14 16.84 9.7 17.52 10.04 18.22 10.39 18.45 10.61 18.45 10.92 18.44 11.4 17.89 11.61 17.38 11.61 16.66 11.61 16.28 11.5 15.69 11.24L15.46 11.13 15.21 12.71C15.63 12.91 16.4 13.08 17.2 13.09 19.09 13.09 20.31 12.14 20.32 10.67 20.33 9.87 19.85 9.25 18.82 8.75 18.19 8.42 17.81 8.2 17.81 7.87 17.81 7.58 18.14 7.26 18.84 7.26 19.42 7.25 19.85 7.39 20.18 7.53L20.34 7.61 20.58 6.08ZM25.18 5.91L23.79 5.91C23.36 5.91 23.04 6.04 22.85 6.5L20.19 12.99 22.07 12.99C22.07 12.99 22.38 12.12 22.45 11.92 22.66 11.92 24.48 11.93 24.75 11.93 24.8 12.17 24.96 12.99 24.96 12.99L26.63 12.99 25.18 5.91ZM8.85 9.76L9.04 10.74 10.79 5.91 12.69 5.91 9.87 12.98 7.97 12.98 6.38 6.83C5.83 6.5 5.2 6.24 4.5 6.05L4.52 5.91 7.41 5.91C7.8 5.92 8.12 6.05 8.22 6.5L8.85 9.76 8.85 9.76ZM22.97 10.48C23.12 10.07 23.68 8.5 23.68 8.5 23.67 8.51 23.83 8.09 23.92 7.82L24.04 8.43C24.04 8.43 24.38 10.12 24.45 10.48L22.97 10.48ZM15.28 16.24L16.51 16.24 16.51 16.45 15.04 16.45 15.04 14.15 16.47 14.15 16.47 14.36 15.28 14.36 15.28 15.15 16.39 15.15 16.39 15.36 15.28 15.36 15.28 16.24ZM17.17 16.45L16.96 16.45 16.96 13.99 17.17 13.99 17.17 16.45ZM18.89 15.58C18.89 15.43 18.84 15.31 18.76 15.22 18.67 15.13 18.55 15.09 18.39 15.09 18.32 15.09 18.25 15.1 18.19 15.13 18.12 15.16 18.07 15.19 18.02 15.24 17.97 15.28 17.93 15.33 17.9 15.39 17.87 15.45 17.86 15.51 17.86 15.58L18.89 15.58ZM17.85 15.75C17.86 15.83 17.88 15.9 17.91 15.97 17.94 16.03 17.98 16.09 18.03 16.14 18.08 16.19 18.13 16.23 18.2 16.26 18.26 16.28 18.33 16.3 18.41 16.3 18.53 16.3 18.62 16.27 18.71 16.22 18.79 16.17 18.86 16.1 18.9 16.03L19.06 16.17C18.97 16.29 18.87 16.37 18.76 16.42 18.65 16.47 18.54 16.49 18.41 16.49 18.3 16.49 18.19 16.47 18.1 16.43 18 16.39 17.92 16.34 17.85 16.27 17.78 16.19 17.72 16.11 17.68 16.01 17.64 15.91 17.62 15.81 17.62 15.69 17.62 15.58 17.64 15.47 17.68 15.37 17.72 15.28 17.77 15.19 17.84 15.12 17.91 15.05 18 14.99 18.09 14.95 18.18 14.91 18.28 14.89 18.39 14.89 18.51 14.89 18.61 14.91 18.7 14.95 18.79 15 18.87 15.05 18.93 15.12 18.99 15.19 19.04 15.27 19.07 15.36 19.1 15.45 19.12 15.55 19.12 15.65L19.12 15.75 17.85 15.75ZM20.63 15.29C20.6 15.23 20.55 15.18 20.48 15.15 20.41 15.11 20.34 15.09 20.25 15.09 20.16 15.09 20.08 15.1 20.01 15.13 19.94 15.16 19.88 15.2 19.83 15.26 19.78 15.31 19.74 15.38 19.72 15.45 19.69 15.53 19.68 15.61 19.68 15.69 19.68 15.78 19.69 15.86 19.72 15.94 19.74 16.01 19.78 16.07 19.83 16.13 19.88 16.18 19.94 16.23 20.01 16.26 20.08 16.29 20.16 16.3 20.25 16.3 20.34 16.3 20.41 16.28 20.48 16.24 20.55 16.2 20.6 16.15 20.63 16.1L20.81 16.23C20.73 16.32 20.65 16.38 20.55 16.43 20.46 16.47 20.36 16.49 20.25 16.49 20.13 16.5 20.02 16.48 19.92 16.44 19.82 16.4 19.73 16.34 19.66 16.27 19.59 16.2 19.54 16.11 19.5 16.01 19.46 15.91 19.45 15.81 19.45 15.69 19.45 15.58 19.46 15.47 19.5 15.37 19.54 15.27 19.59 15.19 19.66 15.12 19.73 15.04 19.82 14.99 19.92 14.95 20.02 14.91 20.13 14.89 20.25 14.89 20.36 14.89 20.46 14.92 20.55 14.96 20.65 15 20.73 15.07 20.81 15.16L20.63 15.29ZM21.89 15.13L21.45 15.13 21.45 16.02C21.45 16.08 21.46 16.13 21.47 16.16 21.48 16.2 21.5 16.23 21.52 16.25 21.53 16.27 21.56 16.28 21.59 16.29 21.61 16.29 21.64 16.3 21.67 16.3 21.71 16.3 21.75 16.29 21.79 16.28 21.83 16.27 21.86 16.26 21.9 16.24L21.91 16.44C21.83 16.47 21.73 16.49 21.62 16.49 21.58 16.49 21.53 16.49 21.49 16.48 21.44 16.47 21.4 16.45 21.37 16.42 21.33 16.38 21.3 16.34 21.27 16.29 21.25 16.24 21.24 16.17 21.24 16.09L21.24 15.13 20.92 15.13 20.92 14.93 21.24 14.93 21.24 14.5 21.45 14.5 21.45 14.93 21.89 14.93 21.89 15.13ZM22.22 15.41C22.22 15.34 22.22 15.27 22.22 15.2 22.21 15.13 22.21 15.04 22.21 14.93L22.42 14.93 22.42 15.21 22.43 15.21C22.44 15.17 22.46 15.13 22.49 15.1 22.52 15.06 22.55 15.02 22.59 14.99 22.63 14.96 22.68 14.94 22.73 14.92 22.79 14.9 22.85 14.89 22.91 14.89 22.98 14.89 23.03 14.9 23.07 14.91L23.03 15.12C23 15.11 22.96 15.11 22.91 15.11 22.83 15.11 22.76 15.12 22.7 15.15 22.64 15.19 22.59 15.23 22.55 15.27 22.51 15.32 22.48 15.38 22.46 15.43 22.45 15.49 22.44 15.54 22.44 15.59L22.44 16.45 22.22 16.45 22.22 15.41ZM24.54 15.69C24.54 15.61 24.53 15.53 24.5 15.46 24.47 15.38 24.43 15.32 24.38 15.26 24.33 15.21 24.27 15.17 24.2 15.13 24.13 15.1 24.05 15.09 23.96 15.09 23.87 15.09 23.79 15.1 23.72 15.13 23.65 15.17 23.59 15.21 23.54 15.26 23.5 15.32 23.46 15.38 23.43 15.46 23.4 15.53 23.39 15.61 23.39 15.69 23.39 15.78 23.4 15.86 23.43 15.93 23.46 16 23.5 16.07 23.54 16.12 23.59 16.18 23.65 16.22 23.72 16.25 23.79 16.28 23.87 16.3 23.96 16.3 24.05 16.3 24.13 16.28 24.2 16.25 24.27 16.22 24.33 16.18 24.38 16.12 24.43 16.07 24.47 16 24.5 15.93 24.53 15.86 24.54 15.78 24.54 15.69L24.54 15.69ZM24.77 15.69C24.77 15.81 24.75 15.91 24.71 16.01 24.67 16.11 24.62 16.19 24.55 16.27 24.47 16.34 24.39 16.39 24.29 16.43 24.19 16.47 24.08 16.49 23.96 16.49 23.85 16.49 23.74 16.47 23.64 16.43 23.54 16.39 23.46 16.34 23.38 16.27 23.31 16.19 23.26 16.11 23.22 16.01 23.18 15.91 23.16 15.81 23.16 15.69 23.16 15.58 23.18 15.47 23.22 15.37 23.26 15.28 23.31 15.19 23.38 15.12 23.46 15.05 23.54 14.99 23.64 14.95 23.74 14.91 23.85 14.89 23.96 14.89 24.08 14.89 24.19 14.91 24.29 14.95 24.39 14.99 24.47 15.05 24.55 15.12 24.62 15.19 24.67 15.28 24.71 15.37 24.75 15.47 24.77 15.58 24.77 15.69L24.77 15.69ZM25.38 14.93C25.39 14.97 25.39 15.01 25.39 15.05 25.39 15.09 25.39 15.13 25.39 15.18L25.4 15.18C25.42 15.13 25.45 15.1 25.49 15.06 25.53 15.03 25.57 15 25.61 14.97 25.66 14.95 25.71 14.93 25.76 14.91 25.81 14.9 25.86 14.89 25.91 14.89 26.1 14.89 26.25 14.94 26.34 15.05 26.44 15.15 26.48 15.3 26.48 15.49L26.48 16.45 26.27 16.45 26.27 15.61C26.27 15.44 26.24 15.31 26.18 15.22 26.12 15.13 26.01 15.09 25.85 15.09 25.84 15.09 25.81 15.09 25.76 15.1 25.71 15.11 25.66 15.13 25.6 15.17 25.55 15.21 25.5 15.27 25.46 15.35 25.41 15.43 25.39 15.53 25.39 15.67L25.39 16.45 25.18 16.45 25.18 15.27C25.18 15.23 25.18 15.17 25.17 15.11 25.17 15.05 25.16 14.99 25.16 14.93L25.38 14.93Z" fill="#1A1F71"/></g></svg>